<?xml version="1.0" standalone="no"?>
<!DOCTYPE svg PUBLIC "-//W3C//DTD SVG 20010904//EN"
 "http://www.w3.org/TR/2001/REC-SVG-20010904/DTD/svg10.dtd">
<svg version="1.0" xmlns="http://www.w3.org/2000/svg"
 width="1999.000000pt" height="1049.000000pt" viewBox="0 0 1999.000000 1049.000000"
 preserveAspectRatio="xMidYMid meet">

<g transform="translate(0.000000,1049.000000) scale(0.100000,-0.100000)"
fill="#000000" stroke="none">
<path d="M0 5245 l0 -5245 9995 0 9995 0 0 5245 0 5245 -4553 0 c-3528 0
-4556 -3 -4565 -12 -15 -15 -16 -28 -2 -28 6 0 10 7 10 15 0 8 5 15 10 15 7 0
7 -6 0 -19 -14 -27 -13 -31 10 -31 22 0 27 16 8 23 -7 2 -9 8 -5 13 5 5 14 2
21 -8 15 -21 61 -39 79 -32 8 3 20 -2 27 -11 12 -14 11 -18 -1 -26 -12 -8 -12
-10 1 -19 23 -16 -7 -32 -50 -27 -19 2 -44 1 -55 -4 -16 -6 -16 -8 -3 -8 9 -1
19 -7 21 -13 4 -10 7 -10 14 0 9 12 83 13 83 0 0 -3 19 -9 43 -13 85 -15 87
-17 73 -77 -8 -38 -16 -53 -28 -53 -9 0 -20 -4 -24 -8 -4 -4 36 -7 90 -7 112
0 123 -14 14 -19 -179 -6 -394 -24 -445 -36 l-22 -5 22 -34 c12 -19 31 -36 42
-38 11 -2 19 -9 18 -15 -2 -7 4 -10 12 -7 9 4 15 0 15 -10 0 -9 6 -16 13 -16
7 0 24 -11 39 -24 14 -14 29 -22 32 -19 3 4 6 2 6 -3 0 -6 24 -16 53 -23 28
-8 57 -18 64 -23 7 -5 17 -7 23 -3 6 4 17 2 24 -5 8 -6 65 -13 128 -16 62 -2
136 -6 163 -9 28 -2 56 -4 63 -5 7 0 10 -4 7 -10 -8 -13 25 -13 45 0 13 8 12
10 -3 10 -11 0 -17 6 -14 13 2 8 28 13 73 14 68 3 145 13 213 28 25 6 32 5 27
-3 -4 -7 -14 -12 -22 -12 -20 0 -17 -17 5 -29 12 -7 30 -7 52 -1 49 14 54 13
54 -15 0 -19 -5 -25 -22 -25 -12 0 -25 -4 -28 -10 -4 -6 7 -10 27 -10 18 0 53
-7 77 -16 54 -18 109 -11 141 18 16 15 25 17 33 9 15 -15 67 -14 160 4 43 8
98 15 122 15 24 0 46 4 50 9 7 12 83 12 91 0 3 -5 14 -9 24 -9 10 0 20 -6 23
-12 2 -8 8 -9 13 -4 5 5 4 11 -3 13 -20 7 -15 20 9 26 27 7 42 -12 25 -31 -10
-12 1 -14 70 -9 72 5 83 3 99 -14 13 -15 25 -18 46 -14 19 5 28 3 28 -5 0 -9
14 -11 49 -6 30 4 52 2 56 -4 3 -5 21 -10 40 -10 42 0 95 -29 95 -52 0 -11 -5
-15 -15 -12 -8 4 -27 3 -43 -1 l-27 -8 29 -8 c16 -4 43 -6 60 -3 25 3 27 3 11
-5 -14 -7 -16 -10 -5 -11 8 0 45 -4 83 -9 37 -4 67 -4 67 1 0 4 15 10 33 13
58 11 62 12 80 20 10 4 23 2 32 -5 9 -7 18 -10 21 -7 8 8 -6 28 -15 22 -5 -2
-17 2 -27 10 -24 18 -38 19 -31 2 4 -10 -4 -14 -24 -14 -17 0 -25 4 -18 8 7 4
-5 7 -25 7 -21 0 -40 3 -43 6 -4 3 8 6 26 6 19 0 30 4 26 10 -3 6 -26 10 -51
10 -24 0 -44 5 -44 10 0 12 73 11 108 -2 13 -4 20 -12 17 -18 -3 -5 -1 -10 4
-10 6 0 11 4 11 9 0 10 101 26 140 23 24 -2 24 -2 6 13 -11 8 -31 15 -45 15
-26 0 -60 15 -51 23 5 4 121 -8 181 -18 26 -5 39 -2 48 9 16 19 41 21 41 4 0
-7 7 -2 16 10 14 21 20 22 96 16 44 -3 92 -10 106 -15 18 -7 46 -7 87 2 71 13
125 3 140 -28 9 -17 15 -19 30 -11 15 9 17 8 12 -6 -5 -12 0 -16 18 -16 13 0
27 5 30 10 7 12 35 -12 35 -30 0 -7 14 -11 33 -10 58 3 74 0 74 -15 0 -8 -4
-12 -9 -9 -13 9 -69 -7 -62 -17 12 -20 104 0 104 23 0 4 21 8 46 8 32 0 43 -3
38 -12 -4 -7 -3 -8 4 -4 7 4 22 0 33 -8 21 -14 21 -15 -16 -22 -22 -4 -47 -2
-62 5 -36 17 -51 0 -29 -33 18 -29 21 -40 6 -31 -6 4 -22 0 -35 -9 -13 -9 -31
-16 -40 -16 -8 0 -15 -4 -15 -10 0 -13 43 -13 55 -1 6 6 34 12 63 14 29 2 58
9 65 16 15 15 27 14 27 -1 0 -7 -33 -29 -73 -48 -39 -19 -79 -44 -89 -55 -18
-22 -15 -36 4 -17 7 7 23 12 36 12 21 0 23 -2 12 -15 -7 -9 -15 -13 -18 -10
-8 8 -32 -16 -26 -26 3 -5 15 -9 27 -9 l21 0 -22 -16 c-20 -14 -33 -41 -14
-31 4 3 16 1 27 -4 14 -5 16 -8 4 -8 -9 -1 -21 -12 -28 -25 -17 -32 -100 -50
-131 -29 -21 15 -48 13 -92 -5 -15 -6 -43 -12 -63 -14 -31 -2 -33 -4 -19 -19
12 -13 12 -18 2 -26 -24 -18 -72 -32 -153 -43 -133 -19 -145 -22 -145 -31 0
-5 11 -9 25 -9 14 0 25 -5 25 -11 0 -7 -9 -9 -22 -6 -13 3 -41 9 -63 13 -49 8
-38 -9 15 -24 l35 -10 -33 -1 c-18 -1 -31 -5 -28 -10 3 -4 16 -6 30 -4 33 7
43 -15 11 -23 -39 -10 -24 -28 23 -27 26 0 43 -4 46 -13 3 -8 15 -14 27 -14
11 0 23 -8 26 -17 3 -15 19 -18 96 -21 58 -2 97 -8 107 -16 8 -7 39 -19 67
-26 29 -6 51 -16 48 -20 -4 -7 123 -35 160 -35 6 0 13 -3 16 -8 5 -6 28 -12
89 -20 30 -4 80 -32 80 -44 0 -7 10 -13 23 -14 12 0 56 -2 97 -5 108 -8 274
-4 312 7 18 5 58 9 88 9 30 1 75 5 100 11 25 6 63 14 85 18 22 4 60 14 85 23
25 9 70 23 100 31 30 9 79 23 109 31 29 9 65 16 80 16 14 0 38 6 53 14 19 10
29 11 37 3 9 -9 14 -9 19 -1 4 6 40 12 81 12 60 2 77 6 87 21 14 19 35 22 177
25 65 1 69 0 92 -31 18 -22 42 -36 82 -49 32 -9 66 -24 75 -32 11 -9 44 -16
89 -17 46 -2 75 -8 80 -17 6 -10 13 -10 26 -2 10 6 27 8 38 4 11 -4 33 -3 49
3 20 7 34 7 47 -2 10 -6 33 -11 51 -11 35 -1 68 -19 68 -39 0 -6 6 -11 14 -11
7 0 19 -6 26 -14 6 -8 18 -12 26 -9 8 3 14 -1 14 -11 0 -9 6 -16 14 -16 8 0
38 -11 68 -25 29 -14 66 -25 83 -25 39 0 116 -30 114 -44 -3 -27 2 -37 18 -35
33 5 167 -23 211 -43 50 -24 122 -21 151 6 22 20 61 21 61 2 0 -16 21 -26 55
-26 23 0 36 -18 34 -48 0 -11 -2 -12 -6 -4 -2 6 -9 9 -14 6 -5 -3 2 -15 17
-27 25 -19 26 -21 8 -28 -18 -7 -18 -8 1 -8 66 -3 -76 -44 -210 -61 -152 -20
-444 -10 -486 16 -5 2 -86 9 -181 15 -104 7 -189 17 -213 26 -62 23 -259 29
-347 10 -40 -9 -95 -19 -123 -22 -121 -15 -165 -24 -199 -41 -43 -21 -334 -64
-436 -64 -52 0 -92 -4 -95 -11 -4 -6 -13 -8 -21 -5 -24 9 -23 -9 1 -20 19 -9
22 -9 18 2 -4 10 4 14 28 13 19 0 27 -3 19 -6 -8 -4 -19 -12 -25 -19 -5 -7
-28 -15 -50 -18 -22 -3 -51 -8 -65 -12 -14 -3 -32 -6 -40 -6 -8 0 -44 -8 -80
-18 -36 -10 -99 -21 -140 -25 -41 -3 -95 -10 -120 -16 -97 -21 -202 -29 -362
-28 -95 0 -168 5 -168 10 0 5 8 9 17 9 33 0 6 9 -57 19 -83 14 -186 -2 -195
-29 -6 -19 -36 -27 -115 -29 -24 -1 -49 -5 -55 -10 -5 -4 -44 -8 -85 -10 -41
-2 -87 -4 -102 -5 -16 -1 -40 -3 -55 -4 -62 -4 -6 -15 94 -18 106 -3 203 -15
293 -36 25 -5 88 -10 140 -9 111 0 150 -13 65 -23 -31 -3 -60 -4 -64 -2 -4 3
-74 6 -154 7 -106 1 -151 -2 -162 -11 -8 -7 -15 -8 -15 -2 0 5 -21 9 -47 8
-40 -1 -48 -5 -51 -22 -2 -17 6 -22 55 -32 38 -8 59 -9 61 -2 6 18 41 10 47
-11 4 -13 12 -18 22 -15 9 4 22 1 29 -5 11 -9 14 -8 14 4 0 11 9 15 30 13 16
-1 33 -5 36 -9 4 -4 13 -2 20 4 17 14 52 7 101 -21 34 -20 44 -32 49 -60 9
-57 24 -87 49 -100 14 -7 27 -21 30 -30 5 -16 80 -48 99 -42 4 1 14 -3 22 -9
8 -6 14 -8 14 -4 0 4 7 2 15 -5 11 -9 34 -11 74 -7 40 5 61 3 63 -5 3 -8 17
-8 53 1 28 6 136 12 240 13 133 1 200 5 224 15 43 17 79 16 111 -1 84 -48 89
-49 169 -42 44 3 93 11 111 17 33 12 88 10 295 -11 61 -6 202 -12 315 -14 175
-3 216 -7 280 -26 41 -12 97 -26 124 -31 28 -5 52 -13 55 -18 8 -12 87 -16
143 -7 25 4 61 4 80 0 l33 -8 -45 -7 c-25 -4 -103 -11 -175 -15 -122 -7 -131
-9 -152 -33 -17 -19 -31 -25 -60 -24 -166 6 -330 4 -393 -5 -41 -6 -151 -14
-245 -17 -93 -3 -188 -8 -210 -11 -22 -2 -74 0 -115 6 -57 8 -75 8 -81 -2 -4
-7 -25 -13 -46 -15 -21 -1 -141 -6 -268 -12 -213 -9 -372 -22 -470 -37 -22 -3
-56 -6 -75 -6 -36 1 -150 -15 -182 -24 -10 -3 -18 -10 -18 -16 0 -7 5 -6 15 2
8 6 22 10 32 7 14 -4 13 -5 -4 -6 -13 0 -23 -5 -23 -10 0 -12 -66 -34 -79 -27
-5 3 -8 -2 -7 -12 1 -17 -15 -19 -71 -7 -17 4 -21 2 -16 -10 5 -13 -2 -16 -39
-14 -46 3 -108 -16 -108 -32 0 -5 9 -9 20 -9 11 0 20 -5 20 -11 0 -5 -4 -7
-10 -4 -5 3 -10 2 -10 -4 0 -6 11 -13 25 -17 14 -3 25 -13 25 -23 0 -13 2 -14
9 -2 8 12 14 13 36 3 14 -7 49 -12 78 -12 29 0 58 -4 66 -9 35 -22 -189 -52
-241 -32 -39 15 -99 -15 -68 -34 6 -3 10 -1 10 4 0 17 22 12 48 -8 65 -55 -8
-72 -278 -68 -134 2 -202 7 -218 16 -13 7 -35 13 -50 14 -15 1 -28 9 -30 17
-2 11 18 21 70 36 100 29 165 44 186 44 15 0 15 -2 2 -10 -11 -7 7 -10 60 -9
41 1 84 -2 96 -6 16 -5 25 0 37 19 16 24 16 26 -10 46 -17 13 -35 19 -48 16
-11 -3 -48 -6 -82 -6 -47 0 -63 -3 -63 -14 0 -9 -7 -12 -21 -9 -13 4 -17 8 -9
13 34 21 -248 21 -300 0 -23 -10 -37 -10 -55 -2 -20 10 -25 8 -30 -9 -5 -16
-9 -18 -21 -8 -20 16 -38 -2 -29 -30 6 -21 25 -29 25 -11 0 6 5 10 10 10 20 0
10 -17 -17 -29 -20 -9 -28 -10 -31 -1 -3 8 -8 8 -18 -1 -10 -8 -14 -8 -14 0 0
6 -6 11 -14 11 -17 0 -27 -33 -16 -51 7 -10 12 -10 25 1 9 7 15 9 14 4 -1 -5
0 -12 1 -16 1 -5 3 -14 4 -20 1 -13 5 -14 46 -17 11 0 26 -14 35 -31 15 -30
15 -32 -10 -61 -14 -17 -23 -34 -20 -39 7 -11 -46 -20 -115 -20 -71 0 -120 -9
-120 -22 0 -6 13 -8 30 -5 16 4 32 2 35 -3 3 -6 -1 -10 -9 -10 -9 0 -16 -4
-16 -10 0 -5 -8 -10 -17 -11 -16 0 -16 -1 0 -8 16 -6 14 -9 -15 -25 -25 -13
-46 -17 -74 -13 -72 12 -114 12 -119 2 -3 -6 -8 -5 -11 3 -5 10 -10 9 -25 -4
-18 -17 -21 -16 -47 8 -24 23 -36 26 -114 27 -56 2 -88 -2 -88 -8 0 -6 -11
-13 -24 -17 -14 -3 -27 -12 -30 -20 -6 -17 -33 -19 -38 -2 -3 8 -9 8 -24 0
-10 -6 -13 -12 -6 -12 6 0 12 -5 12 -11 0 -6 -6 -9 -14 -6 -10 4 -12 -1 -9
-16 4 -20 3 -20 -7 -4 -20 31 -36 18 -56 -43 -19 -60 -32 -70 -64 -50 -12 7
-8 12 18 21 28 10 45 29 25 29 -40 -2 -99 -25 -115 -45 -24 -30 -38 -32 -38
-5 0 25 -15 26 -33 0 -12 -17 -16 -18 -33 -6 -25 18 -90 18 -105 0 -9 -12 -6
-13 20 -8 30 6 43 -7 21 -21 -26 -16 -2 -20 97 -18 62 2 109 7 113 13 4 6 30
12 59 12 29 1 56 7 62 15 7 7 31 13 56 13 42 0 45 -2 39 -22 -3 -13 -6 -26 -6
-29 0 -23 -98 -36 -325 -43 -154 -5 -208 -14 -201 -33 4 -8 1 -11 -5 -8 -6 4
-13 -3 -16 -15 -3 -13 -11 -19 -19 -16 -9 4 -14 -2 -14 -17 0 -24 -56 -81 -66
-66 -12 19 -32 9 -30 -16 3 -25 0 -28 -61 -40 -35 -7 -43 -22 -18 -31 19 -8 9
-24 -15 -24 -11 0 -20 -10 -24 -26 -4 -16 -18 -30 -36 -37 -16 -6 -31 -20 -34
-31 -4 -16 -8 -17 -20 -7 -20 17 -39 4 -32 -23 3 -11 2 -26 -2 -31 -12 -17
-32 -16 -32 1 0 8 -5 12 -10 9 -6 -3 -10 -15 -10 -25 0 -11 -9 -24 -20 -30
-15 -8 -20 -8 -20 2 0 7 -7 3 -15 -9 -9 -13 -22 -20 -30 -17 -14 6 -20 -6 -16
-29 1 -5 -7 -6 -18 -2 -12 3 -21 0 -25 -10 -3 -9 -11 -13 -17 -10 -6 4 -17 -2
-24 -13 -8 -10 -27 -25 -43 -31 -22 -9 -28 -18 -25 -32 5 -17 -5 -24 -29 -20
-5 0 -8 -5 -8 -13 0 -22 -19 -29 -36 -15 -13 11 -15 10 -12 -7 2 -13 -3 -19
-17 -19 -13 0 -21 -8 -23 -23 -3 -17 -8 -21 -21 -17 -10 3 -24 -1 -31 -10 -10
-12 -25 -15 -54 -11 -23 3 -33 3 -23 0 29 -9 19 -21 -27 -33 -51 -13 -142 -15
-149 -3 -2 4 -2 1 -1 -6 5 -19 -5 -21 -185 -37 -30 -3 -62 -12 -71 -20 -21
-19 -30 -19 -30 0 0 8 -7 15 -15 15 -8 0 -15 -4 -15 -9 0 -5 -20 -11 -45 -13
-35 -2 -45 0 -45 12 -1 12 -4 11 -15 -4 -7 -10 -19 -15 -25 -11 -6 4 -17 1
-25 -5 -10 -8 -37 -10 -89 -5 -65 6 -81 4 -119 -14 -25 -12 -67 -24 -95 -28
-47 -5 -114 -45 -99 -59 3 -3 55 -5 116 -5 61 1 119 1 129 0 79 -8 504 12 552
26 26 8 201 26 335 35 72 5 168 14 215 20 227 27 411 39 575 39 166 0 272 7
494 30 58 6 90 5 102 -2 13 -8 22 -7 35 4 19 16 60 18 389 19 214 0 328 -7
320 -20 -3 -4 17 -5 43 -3 35 3 43 2 32 -6 -13 -9 -13 -11 3 -11 9 0 17 5 17
10 0 6 9 10 21 10 12 0 18 -4 13 -11 -5 -8 9 -10 47 -6 41 5 47 4 24 -3 -25
-8 -21 -9 23 -6 29 2 55 -1 58 -6 3 -5 -197 -8 -469 -7 -260 1 -480 -1 -487
-6 -8 -5 -59 -10 -114 -11 -56 -1 -113 -7 -128 -13 -20 -7 -28 -7 -32 2 -3 9
-5 9 -5 0 -1 -9 -20 -13 -58 -14 l-58 -2 72 -7 c140 -12 90 -24 -145 -35 -80
-3 -121 -1 -117 5 4 6 -11 10 -37 10 -24 0 -109 7 -190 16 -126 14 -174 15
-330 5 -101 -6 -212 -18 -248 -26 -36 -8 -87 -15 -115 -15 -57 0 -91 -14 -62
-26 50 -19 -23 -29 -343 -44 -102 -5 -212 -12 -245 -15 -46 -5 -57 -4 -45 5
11 9 -13 10 -100 5 -156 -7 -211 -15 -235 -31 -13 -9 -45 -14 -95 -13 -41 1
-67 3 -57 6 9 2 17 9 17 14 0 5 -51 9 -112 10 -119 1 -116 10 5 23 37 4 69 12
72 17 4 5 14 9 25 9 35 0 10 37 -41 60 -27 13 -49 27 -49 30 0 4 -22 17 -50
28 -38 16 -51 27 -56 49 -7 31 -50 72 -76 73 -9 0 -18 4 -20 10 -4 13 -96 30
-100 18 -5 -14 -38 2 -38 18 0 8 -8 14 -17 14 -35 1 -200 0 -283 -1 l-85 -2
65 -11 c43 -8 59 -14 48 -18 -24 -10 -23 -27 1 -21 11 3 28 0 38 -6 15 -8 10
-10 -24 -11 -24 0 -43 -5 -43 -11 0 -5 -4 -8 -9 -4 -6 3 -39 1 -75 -5 -36 -6
-166 -13 -288 -16 -123 -4 -231 -10 -241 -16 -9 -5 -46 -9 -82 -9 -36 -1 -65
-5 -65 -10 0 -5 6 -9 14 -9 8 0 18 -5 22 -11 5 -8 -54 -10 -219 -7 -124 2
-221 1 -216 -3 21 -13 -79 -17 -311 -14 -246 3 -288 -2 -328 -39 -21 -19 -35
-21 -130 -21 -76 0 -106 -3 -105 -12 2 -11 -47 -21 -212 -43 -94 -12 -373 -12
-380 0 -8 12 43 20 152 23 51 1 93 4 93 7 0 3 64 7 143 8 78 2 146 8 151 13 6
5 -4 9 -25 9 -23 0 -30 3 -20 9 9 6 12 19 8 40 -6 28 -4 31 21 32 77 2 194 22
252 44 38 14 66 16 183 10 122 -6 137 -5 137 9 0 10 -9 16 -25 16 -14 0 -25 5
-25 10 0 6 -11 10 -23 10 -13 0 -32 9 -42 20 -18 20 -18 20 94 18 90 -2 114 0
121 12 14 21 12 30 -4 30 -8 0 -33 22 -55 48 -37 44 -47 49 -104 60 -63 12
-107 17 -207 27 -65 6 -159 22 -215 36 -22 6 -69 16 -105 23 -36 7 -74 16 -85
20 -53 21 -76 27 -150 41 -100 19 -109 19 -101 0 6 -17 -9 -21 -19 -5 -3 6
-15 10 -26 10 -10 0 -19 7 -19 15 0 18 -16 20 -23 3 -4 -9 -6 -7 -6 3 -1 16
-74 45 -90 35 -4 -3 -23 -1 -42 4 -19 5 -59 11 -89 13 -67 6 -120 13 -225 32
-44 8 -107 19 -139 25 -33 5 -79 10 -103 10 -24 0 -57 7 -72 15 -16 8 -31 11
-35 8 -3 -4 -6 1 -6 11 0 9 -4 15 -9 11 -5 -3 -12 -1 -16 5 -3 5 3 10 14 10
12 0 21 -3 21 -7 0 -5 28 -7 62 -5 58 3 63 5 64 27 2 21 -7 27 -52 45 -30 11
-61 20 -69 20 -8 0 -16 4 -19 9 -14 23 -137 50 -251 55 -67 3 -157 12 -200 20
-44 7 -93 11 -110 9 -28 -4 -81 2 -230 28 -33 6 -82 12 -110 14 -27 2 -90 9
-140 14 -49 6 -146 17 -215 25 -122 14 -189 31 -212 54 -7 7 -18 12 -25 12
-19 0 -56 22 -71 43 -7 9 -17 15 -22 12 -4 -3 -10 2 -14 10 -3 8 -13 15 -21
15 -9 0 -23 7 -31 15 -13 13 -12 14 15 9 25 -5 31 -3 31 10 0 9 -7 19 -15 22
-8 4 -15 9 -15 13 0 10 58 38 94 46 26 5 27 7 11 19 -17 12 -17 13 1 20 16 6
16 9 4 16 -13 8 -12 10 3 10 9 0 17 -5 17 -11 0 -20 24 -3 30 22 5 21 11 24
50 23 101 -2 302 -28 359 -46 19 -6 98 -12 175 -13 78 -1 155 -5 171 -8 50
-10 335 -16 335 -7 0 11 133 2 178 -12 17 -5 32 -14 32 -19 0 -5 7 -9 15 -9 8
0 12 -6 9 -14 -5 -13 32 -31 84 -41 9 -2 17 -4 17 -5 0 -2 23 -4 50 -5 28 -2
51 -4 53 -5 1 -1 5 -3 10 -4 4 -1 13 -5 20 -9 6 -5 12 -4 12 1 0 10 71 5 132
-8 22 -4 36 -4 32 1 -3 5 0 9 5 9 6 0 11 -4 11 -9 0 -8 41 -2 85 14 17 6 18 5
5 -5 -13 -10 -12 -11 3 -6 10 3 21 6 23 6 2 0 4 9 4 20 0 13 -7 20 -20 20 -11
0 -20 4 -20 9 0 9 -36 16 -142 27 -32 4 -63 13 -69 20 -6 8 -24 14 -40 14 -15
0 -34 7 -43 15 -8 8 -21 12 -29 9 -9 -3 -17 3 -20 18 -11 42 -9 43 76 39 161
-9 278 -4 293 12 22 21 -72 74 -155 88 -31 5 -83 23 -116 40 -33 17 -76 37
-95 44 -32 11 -29 12 40 8 41 -3 107 -11 145 -19 98 -20 214 -28 254 -17 36 9
55 33 27 33 -9 0 -19 7 -22 15 -3 8 -16 17 -27 21 -48 14 -96 40 -97 52 0 6
-12 12 -28 12 -16 0 -46 8 -68 19 -21 10 -63 22 -91 26 -36 5 -53 12 -53 21 0
8 -11 15 -27 16 -43 2 -57 5 -73 12 -13 5 -46 10 -97 15 -7 0 -13 13 -13 27 0
21 -4 25 -20 21 -11 -3 -18 -1 -15 3 3 5 -4 12 -16 15 -12 4 -18 13 -15 20 7
18 -45 35 -109 35 -27 1 -63 1 -80 2 -16 0 -43 0 -60 -1 -16 -1 -97 -2 -178
-2 -119 1 -151 -2 -163 -14 -18 -17 -34 -20 -34 -5 0 6 -23 10 -52 9 l-53 -1
40 -10 c22 -6 44 -17 48 -24 4 -8 15 -14 22 -14 8 0 15 -5 15 -10 0 -6 -16 -9
-37 -6 -21 3 -58 5 -83 6 -35 1 -40 3 -25 10 19 8 16 12 -15 14 -8 1 -15 7
-15 14 0 23 -75 44 -160 44 -85 0 -145 17 -65 18 37 0 42 3 27 11 -13 8 -33 7
-68 -1 -59 -14 -115 -8 -164 20 -19 11 -36 19 -38 18 -11 -6 -98 16 -107 27
-7 8 -21 15 -31 15 -11 0 -19 5 -19 10 0 6 -9 10 -20 10 -11 0 -20 7 -20 15 0
18 12 19 28 3 9 -9 12 -9 12 0 0 16 66 31 130 29 73 -1 82 5 63 44 -11 22 -14
46 -10 80 5 39 3 51 -11 59 -16 9 -16 11 2 25 11 8 14 15 7 15 -7 0 -19 7 -27
15 -14 13 -13 15 5 15 12 0 21 -4 21 -9 0 -5 10 -13 22 -17 33 -11 117 -11
115 0 -1 5 13 13 31 18 32 9 32 9 15 32 -12 16 -20 20 -25 12 -5 -7 -8 -7 -8
0 0 6 -6 11 -12 12 -54 7 -63 10 -66 23 -1 9 2 26 7 40 9 21 10 22 10 3 1 -17
7 -20 44 -19 40 1 42 3 40 30 -3 33 -12 41 -65 49 -39 6 -68 25 -68 44 0 19
-43 47 -73 47 -33 0 -49 21 -20 28 17 4 17 4 -1 12 -13 6 -21 4 -24 -3 -5 -17
-23 -15 -37 5 -7 9 -17 13 -23 9 -18 -11 -14 -24 8 -31 11 -3 20 -11 20 -16 0
-15 -45 -6 -46 9 -1 6 -2 21 -3 32 0 12 -12 25 -26 30 -14 5 -25 14 -25 19 0
5 -11 19 -25 32 -13 13 -25 30 -25 37 0 6 -12 12 -27 13 -16 0 -22 3 -15 6 6
2 12 11 12 18 0 7 7 15 15 19 9 3 15 0 15 -10 0 -11 6 -13 20 -9 10 3 86 7
169 8 82 1 144 5 138 10 -8 4 -4 9 11 13 12 4 22 10 22 15 0 5 -10 10 -22 10
-19 1 -17 3 7 9 17 4 24 8 18 9 -7 0 -13 6 -13 12 0 5 4 8 9 5 5 -3 14 1 21 9
10 12 9 16 -6 21 -11 3 -27 10 -36 15 -10 5 -22 9 -28 9 -5 0 -19 8 -29 18
-11 9 -27 23 -35 30 -25 20 -19 31 22 38 20 3 42 12 47 19 6 6 28 21 50 33
l40 21 -40 1 -40 2 33 14 c18 8 38 11 44 8 8 -5 9 1 5 17 -4 13 -7 27 -7 30 0
4 -9 9 -20 12 -16 4 -20 14 -20 45 0 40 20 69 39 58 5 -4 12 -2 15 3 4 5 1 13
-4 16 -7 5 -5 11 6 19 20 15 12 34 -23 47 -40 15 -17 28 53 28 44 0 67 -4 70
-13 10 -26 180 -66 282 -66 42 -1 96 -5 120 -9 23 -5 45 -5 47 0 3 4 35 11 71
14 37 4 72 14 80 23 14 13 17 13 25 1 7 -10 8 -4 4 16 -6 29 -6 29 10 10 16
-20 16 -20 31 -1 13 19 14 19 14 2 0 -15 3 -16 14 -7 10 9 16 8 25 -3 7 -8 19
-12 27 -9 8 3 14 0 14 -6 0 -6 -5 -11 -11 -11 -5 0 -7 -5 -4 -10 11 -18 33 8
31 35 -3 24 -27 55 -44 55 -6 0 -13 -7 -16 -16 -5 -13 -9 -14 -22 -4 -12 11
-12 15 -2 21 7 5 9 9 3 9 -5 0 -16 -4 -24 -9 -10 -6 -22 -5 -35 5 -11 8 -35
14 -53 14 -17 0 -38 7 -47 15 -8 8 -32 15 -55 15 -34 0 -41 3 -41 20 0 15 7
20 28 20 46 0 59 17 18 24 -20 4 -41 4 -47 1 -11 -7 -59 9 -97 33 -16 11 -20
18 -12 27 6 7 8 20 4 29 -4 11 -1 16 10 16 9 0 16 4 16 9 0 10 -13 15 -67 26
-17 3 -39 17 -47 31 -9 13 -23 24 -31 24 -9 0 -15 10 -15 25 0 19 -6 25 -33
30 -18 4 -39 5 -47 3 -9 -2 -14 3 -12 11 2 11 -29 42 -48 47 -35 10 -50 18
-50 26 0 5 -5 6 -12 2 -8 -5 -9 0 -5 16 4 15 -1 29 -17 45 -20 20 -21 26 -11
46 8 14 12 55 11 99 -2 80 5 100 36 100 10 0 21 6 24 14 3 8 13 12 22 9 10 -2
27 4 39 14 12 10 31 26 42 35 11 10 36 19 56 21 20 2 43 13 54 26 11 13 24 20
30 17 5 -4 12 -2 15 3 3 5 25 12 48 15 24 4 60 17 80 30 35 21 36 23 20 39 -9
9 -28 28 -42 42 -14 15 -35 31 -47 35 -12 5 -23 19 -25 32 -2 15 -11 24 -25
26 -13 2 -23 7 -23 11 0 5 -15 14 -32 21 -83 31 -105 44 -100 62 2 10 -10 31
-32 54 -46 47 -46 64 -1 64 28 0 37 5 50 30 9 18 23 30 36 30 11 0 30 7 43 15
13 9 28 15 32 14 24 -4 24 3 0 22 -25 20 -35 49 -17 49 5 0 11 7 15 15 5 13
-274 15 -2474 15 l-2480 0 0 -5245z m13440 5226 c0 -5 24 -11 53 -13 53 -5
165 -41 159 -52 -2 -4 -2 -11 0 -17 4 -11 90 -15 108 -4 15 9 12 -6 -6 -26
-10 -11 -12 -19 -5 -24 6 -3 11 1 11 10 0 9 5 13 10 10 6 -4 8 -10 5 -15 -3
-4 1 -11 7 -13 8 -3 6 -6 -4 -6 -25 -1 -22 -19 5 -42 12 -10 16 -18 10 -19 -7
0 -13 -9 -13 -21 0 -11 -6 -27 -13 -34 -19 -18 -88 -36 -152 -38 -45 -2 -56 2
-74 23 -11 14 -20 19 -21 12 0 -9 -12 -10 -42 -6 -50 8 -69 20 -45 30 9 3 14
11 11 16 -9 14 15 28 49 28 15 0 27 5 27 10 0 6 11 10 24 10 13 0 31 3 40 6
23 9 20 34 -4 34 -13 0 -20 7 -20 20 0 17 -7 20 -50 20 -47 0 -66 12 -37 24
17 7 -30 46 -57 46 -11 0 -28 5 -36 10 -12 7 -10 11 10 19 32 13 50 13 50 2z
m416 -210 c-10 -16 -36 -13 -36 3 0 17 21 27 34 16 4 -5 5 -13 2 -19z m-2260
-82 c3 -5 0 -9 -5 -9 -6 0 -11 -9 -11 -19 0 -19 -18 -31 -47 -31 -11 0 -13 3
-5 13 7 8 6 18 -4 31 -9 13 -10 22 -4 26 14 8 69 0 76 -11z m-238 -14 c-10
-10 -49 -14 -43 -4 4 5 16 9 27 9 12 0 19 -2 16 -5z m326 -64 c3 -5 -2 -7 -13
-4 -13 3 -21 -2 -26 -16 -5 -15 -15 -21 -38 -22 -68 -2 -93 -2 -122 -1 -26 2
-28 4 -14 17 8 9 32 17 52 18 20 2 39 5 41 8 9 9 115 9 120 0z m-244 -101 c0
-13 -50 -13 -70 0 -11 7 -4 10 28 10 23 0 42 -4 42 -10z m1634 -128 c-1 -22 2
-23 44 -17 34 5 43 4 40 -7 -3 -7 -15 -12 -28 -10 -14 2 -20 0 -16 -7 5 -7 47
-9 119 -7 62 2 125 1 140 -1 38 -8 28 -29 -13 -25 -25 2 -31 -1 -27 -12 5 -12
1 -13 -16 -7 -12 4 -47 9 -77 10 -80 2 -200 22 -200 33 0 5 -10 6 -21 3 -15
-5 -19 -4 -14 4 4 7 16 11 27 9 12 -2 23 3 25 10 3 8 -8 12 -34 12 -22 0 -43
3 -46 7 -15 14 15 29 55 29 38 -1 43 -3 42 -24z m-977 12 c-3 -3 -12 -4 -19
-1 -8 3 -5 6 6 6 11 1 17 -2 13 -5z m693 -18 c0 -2 -9 -6 -20 -9 -11 -3 -18
-1 -14 4 5 9 34 13 34 5z m1170 -26 c12 -8 9 -10 -13 -10 -16 0 -26 4 -22 10
8 12 16 12 35 0z m-1800 -10 c0 -5 -5 -10 -11 -10 -5 0 -7 5 -4 10 3 6 8 10
11 10 2 0 4 -4 4 -10z m724 -20 c7 -7 0 -8 -24 -4 -52 10 -74 26 -26 20 22 -3
44 -10 50 -16z m1952 5 l29 -15 -32 0 c-31 0 -49 11 -36 24 8 8 6 8 39 -9z
m-1649 -131 c-3 -3 -12 -4 -19 -1 -8 3 -5 6 6 6 11 1 17 -2 13 -5z m1508 -168
c12 -12 11 -15 -11 -19 -28 -5 -44 11 -23 24 18 11 18 11 34 -5z m139 -71 c-7
-16 -49 -21 -59 -6 -3 5 9 12 27 14 18 2 34 5 35 5 1 1 0 -5 -3 -13z m-934
-365 c0 -21 -5 -30 -16 -30 -11 0 -14 5 -10 16 3 9 6 22 6 30 0 8 5 14 10 14
6 0 10 -13 10 -30z m72 -30 c15 0 28 -4 28 -10 0 -5 -16 -10 -35 -10 -19 0
-35 2 -35 4 0 2 -3 13 -6 23 -6 15 -4 16 7 6 7 -7 26 -13 41 -13z m1511 -737
c-7 -2 -21 -2 -30 0 -10 3 -4 5 12 5 17 0 24 -2 18 -5z m-11243 -133 c0 -5 -5
-10 -11 -10 -5 0 -7 5 -4 10 3 6 8 10 11 10 2 0 4 -4 4 -10z m13520 -435 c58
-3 129 -13 158 -21 75 -21 68 -54 -12 -54 -17 0 -49 -9 -71 -20 -48 -24 -85
-25 -156 -3 -63 19 -90 23 -83 11 11 -18 -97 -7 -141 14 -43 21 -58 38 -34 38
6 0 8 7 5 16 -3 8 -2 12 4 9 6 -3 10 -2 10 4 0 19 55 20 320 6z m-1253 -301
c-3 -3 -12 -4 -19 -1 -8 3 -5 6 6 6 11 1 17 -2 13 -5z m-2864 -261 c-7 -2 -21
-2 -30 0 -10 3 -4 5 12 5 17 0 24 -2 18 -5z m190 -30 c-7 -2 -21 -2 -30 0 -10
3 -4 5 12 5 17 0 24 -2 18 -5z m-446 -19 c-3 -3 -12 -4 -19 -1 -8 3 -5 6 6 6
11 1 17 -2 13 -5z m618 -165 c7 -7 -6 -9 -37 -8 -47 3 -61 12 -35 23 16 6 59
-3 72 -15z m-295 -60 c0 -12 -59 -21 -105 -17 -38 4 -39 4 -15 15 29 12 120
14 120 2z m-180 -109 c11 -6 12 -12 4 -20 -8 -8 -18 -5 -35 9 -22 19 -23 20
-4 21 11 0 27 -5 35 -10z m-535 -140 c3 -5 -3 -10 -14 -10 -12 0 -21 5 -21 10
0 6 6 10 14 10 8 0 18 -4 21 -10z m-6905 -460 c12 -8 12 -10 -5 -9 -11 0 -29
4 -40 9 -18 8 -18 9 5 9 14 0 32 -4 40 -9z m94 -16 c8 -3 12 -12 9 -20 -6 -17
23 -19 30 -1 4 8 8 9 14 1 7 -9 81 -29 180 -49 17 -3 37 -13 43 -20 9 -11 17
-12 30 -5 23 13 51 2 48 -17 -3 -18 8 -25 74 -49 26 -9 46 -20 43 -24 -8 -13
-149 12 -202 36 -28 13 -58 24 -67 24 -8 0 -22 7 -31 16 -8 9 -22 13 -31 10
-8 -3 -31 1 -51 9 -19 8 -46 15 -59 15 -35 0 -73 20 -67 36 3 8 -3 17 -12 20
-13 5 -14 9 -3 15 15 10 31 11 52 3z m8345 -150 c38 -4 50 -9 40 -15 -10 -7
-5 -8 14 -3 17 4 27 2 27 -5 0 -7 23 -11 58 -12 31 -1 82 -5 112 -9 36 -5 13
-6 -65 -2 -159 7 -750 6 -1100 -2 -253 -7 -354 -12 -651 -32 -81 -6 -173 1
-162 11 2 2 42 7 88 10 47 3 99 10 115 15 38 11 216 21 450 26 99 2 243 8 320
12 184 9 685 14 754 6z m-7666 -38 c9 -7 17 -16 17 -20 0 -13 -29 -5 -51 14
-23 18 -23 19 -4 19 11 0 28 -6 38 -13z m1210 -353 c-7 -2 -19 -2 -25 0 -7 3
-2 5 12 5 14 0 19 -2 13 -5z m-1013 -144 c0 -5 7 -9 16 -9 8 0 12 5 9 10 -3 6
-1 10 5 10 7 0 10 -7 6 -15 -3 -9 0 -15 9 -15 19 0 19 -16 0 -24 -8 -3 -15 -1
-15 4 0 5 -12 15 -27 22 -29 14 -46 42 -19 32 9 -3 16 -10 16 -15z m105 -9 c3
-5 -1 -10 -10 -10 -9 0 -13 5 -10 10 3 6 8 10 10 10 2 0 7 -4 10 -10z m365
-10 c0 -13 -11 -13 -30 0 -12 8 -11 10 8 10 12 0 22 -4 22 -10z m2550 -209 c0
-13 -27 -21 -73 -21 -38 0 -39 1 -21 15 21 16 94 21 94 6z m157 -386 c68 -9
215 -18 326 -20 111 -2 249 -9 307 -15 58 -6 130 -13 160 -15 30 -2 80 -7 110
-11 30 -3 69 -8 85 -9 17 -2 44 -6 60 -9 17 -3 53 -9 80 -12 28 -3 68 -10 90
-16 22 -5 49 -9 60 -9 11 0 52 -6 90 -14 43 -9 140 -15 250 -17 177 -2 236 1
405 22 114 14 103 13 205 11 67 -2 82 -5 60 -11 -16 -4 -56 -15 -88 -24 -32
-9 -61 -17 -65 -17 -8 -2 55 -16 118 -26 25 -5 145 -8 267 -8 122 0 217 -3
210 -7 -16 -10 -7 -16 33 -21 19 -2 27 -2 18 0 -37 9 -16 21 29 17 49 -5 72
-14 35 -14 -13 0 -22 -6 -22 -15 0 -8 -4 -15 -10 -15 -5 0 -10 -24 -10 -54 l0
-54 -60 -7 c-43 -5 -60 -11 -60 -22 0 -19 -24 -43 -44 -43 -25 0 -19 -37 7
-44 18 -5 19 -8 8 -15 -18 -11 29 -20 99 -20 25 1 82 -2 128 -7 76 -6 82 -6
83 12 0 18 1 18 9 -1 l9 -20 0 20 c1 17 3 17 11 5 5 -8 10 -19 10 -23 0 -10
-216 -8 -647 5 -326 11 -343 12 -343 30 0 11 -5 16 -10 13 -6 -4 -8 -11 -5
-16 6 -9 -149 -8 -885 6 -151 3 -302 8 -335 11 -33 3 -234 7 -448 7 l-387 2
-44 -45 c-80 -82 -93 -90 -149 -90 -47 0 -55 4 -94 42 -24 23 -43 47 -43 53
-1 27 -49 44 -146 50 -54 3 -115 8 -134 10 -111 12 -461 16 -580 6 -74 -6
-173 -14 -219 -17 -58 -5 -82 -4 -78 3 7 12 -14 23 -41 23 -15 0 -15 -2 -2
-10 8 -5 10 -10 4 -10 -6 0 -14 3 -18 8 -4 4 -11 7 -14 7 -4 1 -16 4 -28 8
-11 4 -38 10 -60 12 -21 3 -70 10 -109 16 -38 5 -104 12 -147 13 -42 2 -82 7
-89 12 -7 4 -35 9 -63 10 -56 3 -358 22 -366 24 -3 0 2 5 10 10 12 8 9 9 -10
6 -49 -10 -279 -12 -269 -2 2 2 55 7 117 10 62 3 117 8 122 11 9 5 37 7 295
20 118 6 216 15 226 21 3 2 62 6 130 9 194 9 259 14 267 19 4 3 26 7 47 10 22
3 50 7 62 10 13 3 25 1 28 -5 4 -5 12 -9 18 -9 7 0 6 4 -3 10 -12 8 -8 10 15
11 66 3 101 6 130 13 17 3 40 8 53 11 12 2 50 11 85 20 34 9 69 18 79 20 9 2
29 10 46 19 16 8 32 13 35 9 4 -3 18 2 31 10 14 9 62 23 108 31 46 8 148 29
228 47 80 17 165 35 190 39 79 13 308 10 437 -5z m-1667 -475 c0 -5 -8 -10
-17 -10 -15 0 -16 2 -3 10 19 12 20 12 20 0z m97 4 c-3 -3 -12 -4 -19 -1 -8 3
-5 6 6 6 11 1 17 -2 13 -5z m4307 -10 c9 -3 16 -11 16 -16 0 -7 -4 -7 -12 0
-7 5 -24 12 -38 15 -22 4 -22 4 -3 6 12 0 28 -2 37 -5z m70 -9 c25 -19 16 -19
-20 0 -16 8 -22 15 -14 15 8 -1 24 -7 34 -15z m73 -1 c-3 -3 -12 -4 -19 -1 -8
3 -5 6 6 6 11 1 17 -2 13 -5z m-4754 -21 c-7 -2 -21 -2 -30 0 -10 3 -4 5 12 5
17 0 24 -2 18 -5z m-70 -10 c-7 -2 -19 -2 -25 0 -7 3 -2 5 12 5 14 0 19 -2 13
-5z m5167 -13 l85 -9 -94 5 c-52 2 -118 4 -148 4 -30 0 -52 4 -48 9 5 10 53 7
205 -9z m273 -17 c-13 -2 -33 -2 -45 0 -13 2 -3 4 22 4 25 0 35 -2 23 -4z
m120 -10 c-7 -2 -21 -2 -30 0 -10 3 -4 5 12 5 17 0 24 -2 18 -5z m196 -9 c9
-8 -135 -2 -154 6 -11 4 17 6 65 3 47 -3 87 -7 89 -9z m184 -11 c-18 -2 -48
-2 -65 0 -18 2 -4 4 32 4 36 0 50 -2 33 -4z m220 -10 c-7 -2 -19 -2 -25 0 -7
3 -2 5 12 5 14 0 19 -2 13 -5z m550 -30 c-7 -2 -21 -2 -30 0 -10 3 -4 5 12 5
17 0 24 -2 18 -5z m130 -10 c-13 -2 -35 -2 -50 0 -16 2 -5 4 22 4 28 0 40 -2
28 -4z m-3978 -1373 c3 -5 1 -10 -4 -10 -6 0 -11 5 -11 10 0 6 2 10 4 10 3 0
8 -4 11 -10z m1445 -240 c0 -5 -2 -10 -4 -10 -3 0 -8 5 -11 10 -3 6 -1 10 4
10 6 0 11 -4 11 -10z m-118 -482 c-7 -7 -12 -8 -12 -2 0 14 12 26 19 19 2 -3
-1 -11 -7 -17z m1382 -34 c3 -8 2 -12 -4 -9 -6 3 -10 10 -10 16 0 14 7 11 14
-7z m-2094 -444 c0 -5 -2 -10 -4 -10 -3 0 -8 5 -11 10 -3 6 -1 10 4 10 6 0 11
-4 11 -10z m531 -342 c-11 -24 -24 -62 -31 -85 -6 -24 -16 -43 -21 -43 -7 0
-8 7 -4 18 4 9 13 35 20 57 17 56 37 95 46 95 5 0 0 -19 -10 -42z m-1831 -19
c0 -6 -4 -7 -10 -4 -5 3 -10 11 -10 16 0 6 5 7 10 4 6 -3 10 -11 10 -16z
m-4630 -49 c0 -5 -4 -10 -10 -10 -5 0 -10 5 -10 10 0 6 5 10 10 10 6 0 10 -4
10 -10z m4550 -32 c0 -6 -6 -5 -15 2 -8 7 -15 14 -15 16 0 2 7 1 15 -2 8 -4
15 -11 15 -16z m54 -40 c-10 -16 -22 -7 -17 13 4 15 8 17 14 8 4 -7 5 -17 3
-21z m1341 -28 c-3 -5 -12 -10 -18 -10 -7 0 -6 4 3 10 19 12 23 12 15 0z
m-4278 -132 c-3 -8 -6 -5 -6 6 -1 11 2 17 5 13 3 -3 4 -12 1 -19z m175 -50
c-7 -7 -12 -8 -12 -2 0 14 12 26 19 19 2 -3 -1 -11 -7 -17z m-3775 -34 c-3 -3
-12 -4 -19 -1 -8 3 -5 6 6 6 11 1 17 -2 13 -5z m6538 -34 c3 -5 -1 -10 -9 -10
-9 0 -16 5 -16 10 0 6 4 10 9 10 6 0 13 -4 16 -10z m-5625 -20 c0 -5 -7 -10
-16 -10 -8 0 -12 5 -9 10 3 6 10 10 16 10 5 0 9 -4 9 -10z m5730 -871 c0 -5
-4 -9 -10 -9 -5 0 -10 7 -10 16 0 8 5 12 10 9 6 -3 10 -10 10 -16z"/>
<path d="M12650 4425 c-10 -12 -10 -15 0 -15 7 0 10 -8 7 -20 -3 -12 0 -20 7
-20 7 0 13 6 14 13 0 6 2 21 4 31 4 24 -15 31 -32 11z"/>
<path d="M12714 4410 c1 -8 10 -16 21 -17 15 -1 15 0 3 3 -9 3 -19 11 -21 17
-2 7 -3 5 -3 -3z"/>
<path d="M12798 4393 c12 -2 32 -2 45 0 12 2 2 4 -23 4 -25 0 -35 -2 -22 -4z"/>
<path d="M12738 4373 c6 -2 18 -2 25 0 6 3 1 5 -13 5 -14 0 -19 -2 -12 -5z"/>
<path d="M5464 10480 c22 -4 51 -4 65 0 19 6 7 8 -39 8 -58 0 -61 -1 -26 -8z"/>
<path d="M5615 10480 c11 -4 63 -18 115 -31 52 -12 114 -31 138 -41 28 -11 68
-18 110 -18 74 0 182 -26 182 -45 0 -13 53 -14 81 -1 25 11 91 1 104 -17 7
-10 24 -17 39 -17 15 0 43 -12 63 -27 19 -15 45 -29 56 -30 26 -4 36 -14 20
-20 -18 -6 -16 -30 2 -37 8 -3 15 -13 15 -21 0 -10 -5 -13 -11 -9 -19 11 -150
6 -165 -7 -8 -6 -14 -20 -14 -30 0 -11 -4 -19 -8 -19 -5 0 -19 -10 -32 -22
-18 -17 -38 -23 -75 -24 -59 -2 -95 -11 -95 -25 0 -5 18 -17 40 -26 24 -11 40
-25 40 -34 0 -9 7 -30 15 -45 18 -35 19 -60 3 -70 -41 -26 -177 -33 -387 -22
-65 4 -125 2 -139 -3 -18 -7 -28 -6 -32 2 -6 8 -9 8 -14 0 -4 -6 -16 -11 -26
-11 -10 0 -23 -6 -27 -13 -13 -22 -82 -49 -157 -61 -62 -11 -71 -15 -77 -38
-6 -23 -2 -27 55 -53 33 -15 81 -29 106 -30 25 -1 45 -3 45 -4 0 -4 63 -19 83
-20 24 -2 12 -21 -14 -21 -16 0 -23 -4 -18 -11 4 -6 21 -9 43 -5 96 14 117 19
129 29 9 7 16 7 24 -1 15 -15 108 -16 108 -2 0 6 11 10 24 10 13 0 26 4 28 9
2 5 31 12 65 14 34 3 67 8 73 12 6 3 65 7 133 7 68 0 175 9 242 19 146 23 138
21 160 42 11 11 24 15 34 11 9 -4 34 -9 56 -12 22 -2 43 -9 46 -14 3 -5 46
-10 96 -11 93 -2 143 12 143 40 0 10 9 13 28 11 17 -2 26 2 25 9 -2 7 6 10 16
8 11 -2 22 3 25 11 3 8 15 14 26 14 11 0 23 7 26 15 4 8 15 15 25 15 10 0 19
5 19 10 0 6 -9 10 -20 10 -11 0 -20 5 -20 10 0 16 -27 12 -34 -6 -4 -9 -11
-12 -18 -7 -7 4 -35 6 -62 5 -41 -3 -48 -1 -42 13 6 17 -6 13 -36 -12 -11 -10
-18 -11 -23 -3 -3 5 -11 8 -16 4 -6 -3 -19 3 -30 15 -11 12 -26 21 -34 21 -22
0 -18 18 5 25 11 3 20 11 20 17 0 5 -7 8 -15 5 -8 -4 -17 -2 -20 3 -4 6 11 10
34 10 38 0 41 2 41 28 0 23 7 31 35 42 23 9 31 16 23 21 -7 4 -16 5 -20 3 -4
-3 -8 -1 -8 5 0 5 6 11 13 14 13 5 -39 51 -58 52 -5 0 -27 9 -48 19 -34 17
-56 36 -111 95 -11 12 -30 21 -43 21 -16 0 -30 10 -41 30 -9 16 -20 30 -25 30
-4 0 -2 9 5 20 11 17 10 22 -2 30 -8 5 -12 12 -8 15 12 13 175 8 255 -8 45 -8
91 -13 101 -10 10 2 60 -3 112 -12 62 -11 95 -13 99 -6 10 16 67 17 86 1 9 -8
24 -15 32 -16 8 -2 23 -10 33 -19 11 -10 38 -19 62 -20 24 -2 72 -8 108 -15
36 -6 92 -15 125 -19 33 -5 78 -13 100 -19 45 -11 279 -11 290 0 4 4 8 18 8
32 0 15 4 23 12 20 7 -3 15 5 19 18 7 22 7 22 16 3 l9 -20 6 20 c4 15 16 21
43 23 47 3 89 20 96 38 3 8 14 14 25 14 11 0 25 8 30 18 9 15 12 15 21 2 9
-13 11 -13 20 0 5 8 7 22 5 30 -2 8 0 22 5 30 8 12 10 9 10 -12 0 -16 4 -28 9
-28 16 0 22 49 9 70 -13 20 -20 20 -1418 19 -773 0 -1396 -4 -1385 -9z m1308
-770 c4 -16 0 -20 -19 -20 -17 0 -24 6 -24 20 0 13 7 20 19 20 10 0 21 -9 24
-20z"/>
<path d="M11131 10194 c0 -11 3 -14 6 -6 3 7 2 16 -1 19 -3 4 -6 -2 -5 -13z"/>
<path d="M10705 10100 c-3 -5 -1 -10 4 -10 6 0 11 5 11 10 0 6 -2 10 -4 10 -3
0 -8 -4 -11 -10z"/>
<path d="M11677 9857 c-12 -13 -31 -27 -42 -32 -17 -6 -14 -9 20 -17 33 -7
132 -4 141 5 2 1 -8 17 -22 35 -31 39 -66 42 -97 9z m83 -7 c0 -5 -12 -10 -27
-9 -25 0 -26 1 -8 9 27 12 35 12 35 0z"/>
<path d="M7215 9860 c-3 -5 3 -10 15 -10 12 0 18 5 15 10 -3 6 -10 10 -15 10
-5 0 -12 -4 -15 -10z"/>
<path d="M6968 9853 c7 -3 16 -2 19 1 4 3 -2 6 -13 5 -11 0 -14 -3 -6 -6z"/>
<path d="M12470 9830 c-9 -6 -10 -10 -3 -10 6 0 15 5 18 10 8 12 4 12 -15 0z"/>
<path d="M7260 9820 c0 -5 5 -10 10 -10 6 0 10 5 10 10 0 6 -4 10 -10 10 -5 0
-10 -4 -10 -10z"/>
<path d="M11810 9809 c0 -5 5 -7 10 -4 6 3 10 8 10 11 0 2 -4 4 -10 4 -5 0
-10 -5 -10 -11z"/>
<path d="M12770 9790 c0 -5 4 -10 9 -10 6 0 13 5 16 10 3 6 -1 10 -9 10 -9 0
-16 -4 -16 -10z"/>
<path d="M12253 9743 c9 -2 25 -2 35 0 9 3 1 5 -18 5 -19 0 -27 -2 -17 -5z"/>
<path d="M13630 9740 c0 -5 6 -10 14 -10 8 0 18 5 21 10 3 6 -3 10 -14 10 -12
0 -21 -4 -21 -10z"/>
<path d="M13736 9736 c7 -18 49 -22 59 -6 3 6 -3 10 -14 10 -10 0 -27 3 -35 6
-12 5 -15 2 -10 -10z"/>
<path d="M13000 9730 c0 -5 4 -10 9 -10 6 0 13 5 16 10 3 6 -1 10 -9 10 -9 0
-16 -4 -16 -10z"/>
<path d="M14008 9718 c-16 -5 -28 -15 -28 -21 0 -6 -6 -2 -14 9 -12 15 -17 17
-27 7 -7 -7 -22 -13 -33 -13 -12 0 -28 -5 -36 -11 -11 -7 -5 -9 25 -7 27 1 39
-2 38 -10 -3 -14 33 -16 42 -2 3 5 21 17 40 26 19 9 35 20 35 25 0 11 -7 10
-42 -3z"/>
<path d="M13775 9700 c-3 -5 3 -10 15 -10 12 0 18 5 15 10 -3 6 -10 10 -15 10
-5 0 -12 -4 -15 -10z"/>
<path d="M13490 9688 c-28 -8 -31 -11 -18 -19 10 -6 27 -4 48 5 40 16 19 26
-30 14z"/>
<path d="M14109 9684 c-11 -13 -9 -14 14 -9 44 12 86 12 90 1 3 -6 8 -8 12 -4
16 15 -9 28 -54 28 -32 0 -53 -5 -62 -16z"/>
<path d="M12620 9670 c-13 -8 -12 -10 3 -10 9 0 17 5 17 10 0 12 -1 12 -20 0z"/>
<path d="M12668 9663 c6 -2 18 -2 25 0 6 3 1 5 -13 5 -14 0 -19 -2 -12 -5z"/>
<path d="M10658 9653 c12 -2 32 -2 45 0 12 2 2 4 -23 4 -25 0 -35 -2 -22 -4z"/>
<path d="M10755 9650 c3 -5 10 -10 16 -10 5 0 9 5 9 10 0 6 -7 10 -16 10 -8 0
-12 -4 -9 -10z"/>
<path d="M14095 9630 c-3 -5 -1 -10 4 -10 6 0 11 5 11 10 0 6 -2 10 -4 10 -3
0 -8 -4 -11 -10z"/>
<path d="M10778 9613 c7 -3 16 -2 19 1 4 3 -2 6 -13 5 -11 0 -14 -3 -6 -6z"/>
<path d="M12145 9610 c3 -5 8 -10 11 -10 2 0 4 5 4 10 0 6 -5 10 -11 10 -5 0
-7 -4 -4 -10z"/>
<path d="M12197 9605 c3 -8 9 -12 14 -9 12 7 11 11 -5 17 -10 4 -13 1 -9 -8z"/>
<path d="M14220 9597 c-26 -17 -30 -23 -17 -25 9 -2 15 -7 12 -12 -3 -5 11 -8
32 -6 66 6 69 7 44 17 -20 8 -21 12 -10 25 8 10 21 13 36 9 13 -3 23 -1 23 5
0 19 -84 10 -120 -13z"/>
<path d="M11616 9584 c-82 -28 -149 -33 -140 -9 5 13 -2 14 -52 9 -33 -4 -60
-11 -62 -16 -2 -4 -10 -8 -19 -8 -16 0 -73 -31 -73 -40 0 -3 18 -4 40 -2 22 2
53 1 68 -4 21 -6 8 -9 -57 -15 -53 -4 -86 -11 -92 -20 -13 -21 -11 -29 10 -29
11 0 23 -4 26 -10 3 -5 19 -10 35 -10 23 0 31 -5 36 -25 3 -14 13 -25 20 -25
11 0 12 -4 4 -19 -5 -11 -10 -22 -10 -24 0 -14 76 -47 109 -47 30 0 40 -5 51
-25 14 -27 18 -28 92 -25 54 2 78 -7 57 -21 -10 -6 -5 -9 16 -9 17 1 54 -5 82
-12 49 -11 54 -10 75 9 24 22 65 32 83 21 18 -11 67 3 61 18 -3 8 1 14 9 14 8
0 15 5 15 11 0 5 5 7 11 3 8 -4 8 -9 0 -17 -20 -20 -11 -24 68 -24 73 -1 80 1
85 21 8 30 7 38 -3 32 -5 -3 -14 1 -21 9 -10 12 -26 14 -76 9 -42 -4 -64 -3
-64 4 0 12 24 22 56 22 13 0 24 5 24 10 0 6 -13 10 -30 10 -16 0 -30 4 -30 8
0 14 -87 32 -153 32 -96 0 -99 15 -5 29 46 6 106 13 133 15 188 14 205 18 205
42 0 12 -5 26 -10 29 -6 4 -8 11 -5 16 4 5 -7 9 -22 9 -31 0 -83 20 -83 33 0
11 35 8 47 -4 6 -6 19 -9 29 -7 16 3 15 6 -9 22 -25 17 -50 19 -248 19 -121 0
-214 4 -207 9 22 13 -4 8 -76 -18z m-156 -18 c0 -3 -4 -8 -10 -11 -5 -3 -10
-1 -10 4 0 6 5 11 10 11 6 0 10 -2 10 -4z m574 -13 c-5 -5 -12 -12 -16 -18 -4
-6 -8 -2 -8 8 0 9 7 17 17 17 9 0 12 -3 7 -7z m-87 -9 c-3 -3 -12 -4 -19 -1
-8 3 -5 6 6 6 11 1 17 -2 13 -5z m233 -49 c0 -7 -7 -16 -16 -19 -12 -5 -15 -2
-10 10 3 8 6 20 6 25 0 6 5 7 10 4 6 -3 10 -12 10 -20z m-427 -4 c5 -5 -15
-14 -48 -21 -61 -13 -68 -11 -70 21 -2 20 2 21 54 15 31 -4 60 -11 64 -15z
m-35 -76 c13 -13 -16 -25 -59 -25 -36 0 -49 4 -49 14 0 8 6 17 13 20 12 5 88
-2 95 -9z"/>
<path d="M14115 9530 c-17 -7 -15 -9 13 -9 17 -1 32 4 32 9 0 12 -17 12 -45 0z"/>
<path d="M14065 9510 c3 -5 8 -10 11 -10 2 0 4 5 4 10 0 6 -5 10 -11 10 -5 0
-7 -4 -4 -10z"/>
<path d="M14000 9506 c0 -2 7 -6 15 -10 8 -3 15 -1 15 4 0 6 -7 10 -15 10 -8
0 -15 -2 -15 -4z"/>
<path d="M14338 9503 c7 -3 16 -2 19 1 4 3 -2 6 -13 5 -11 0 -14 -3 -6 -6z"/>
<path d="M14311 9461 c-1 -8 -8 -11 -21 -8 -11 3 -17 1 -14 -4 3 -5 -5 -13
-18 -18 -13 -6 -17 -10 -10 -10 6 -1 12 -10 12 -21 0 -25 19 -26 26 -2 11 35
22 47 42 44 11 -2 24 2 28 9 5 9 1 11 -14 7 -12 -3 -23 -1 -26 6 -3 7 -5 6 -5
-3z"/>
<path d="M13505 9450 c-3 -5 -1 -10 4 -10 6 0 11 5 11 10 0 6 -2 10 -4 10 -3
0 -8 -4 -11 -10z"/>
<path d="M13468 9433 c7 -3 16 -2 19 1 4 3 -2 6 -13 5 -11 0 -14 -3 -6 -6z"/>
<path d="M13350 9421 c13 -10 13 -12 0 -20 -17 -11 -14 -16 19 -26 14 -4 21
-3 17 3 -3 5 12 12 34 16 48 8 53 25 8 23 -18 0 -46 3 -63 7 -23 6 -26 5 -15
-3z"/>
<path d="M14350 9406 c0 -9 5 -16 10 -16 6 0 10 4 10 9 0 6 -4 13 -10 16 -5 3
-10 -1 -10 -9z"/>
<path d="M14035 9390 c-18 -7 -18 -9 -3 -15 14 -5 15 -10 5 -25 -14 -24 -2
-37 19 -20 13 11 17 11 24 1 11 -18 27 -7 32 23 3 17 0 26 -11 29 -9 3 -23 7
-31 10 -8 3 -24 2 -35 -3z"/>
<path d="M13305 9370 c-19 -8 -19 -9 3 -9 12 -1 22 4 22 9 0 6 -1 10 -2 9 -2
0 -12 -4 -23 -9z"/>
<path d="M13147 9359 c-9 -5 -22 -7 -29 -3 -7 4 -8 3 -4 -5 8 -13 63 -6 81 10
13 13 -26 11 -48 -2z"/>
<path d="M12240 9330 c0 -19 3 -21 12 -12 9 9 9 15 0 24 -9 9 -12 7 -12 -12z"/>
<path d="M13068 9343 c7 -3 16 -2 19 1 4 3 -2 6 -13 5 -11 0 -14 -3 -6 -6z"/>
<path d="M13958 9273 c7 -3 16 -2 19 1 4 3 -2 6 -13 5 -11 0 -14 -3 -6 -6z"/>
<path d="M14000 9270 c0 -5 9 -10 19 -10 11 0 23 5 26 10 4 6 -5 10 -19 10
-14 0 -26 -4 -26 -10z"/>
<path d="M5485 8931 c-4 -8 -2 -16 5 -21 10 -6 9 -9 -1 -13 -9 -3 -10 -6 -2
-6 17 -1 22 11 13 33 -5 15 -9 16 -15 7z"/>
<path d="M17625 8530 c-3 -5 -2 -10 4 -10 5 0 13 5 16 10 3 6 2 10 -4 10 -5 0
-13 -4 -16 -10z"/>
<path d="M13565 8140 c-27 -7 -25 -8 15 -8 25 0 59 4 75 8 27 7 25 8 -15 8
-25 0 -58 -4 -75 -8z"/>
<path d="M13760 8040 c0 -5 18 -10 40 -10 22 0 40 5 40 10 0 6 -18 10 -40 10
-22 0 -40 -4 -40 -10z"/>
<path d="M13980 7990 c0 -5 5 -10 10 -10 6 0 10 5 10 10 0 6 -4 10 -10 10 -5
0 -10 -4 -10 -10z"/>
<path d="M4460 7790 c0 -5 5 -10 10 -10 6 0 10 5 10 10 0 6 -4 10 -10 10 -5 0
-10 -4 -10 -10z"/>
<path d="M4283 7573 c9 -2 23 -2 30 0 6 3 -1 5 -18 5 -16 0 -22 -2 -12 -5z"/>
<path d="M4880 7440 c0 -6 7 -10 15 -10 8 0 15 2 15 4 0 2 -7 6 -15 10 -8 3
-15 1 -15 -4z"/>
<path d="M14180 7310 c0 -5 5 -10 10 -10 6 0 10 5 10 10 0 6 -4 10 -10 10 -5
0 -10 -4 -10 -10z"/>
<path d="M13955 7240 c-3 -5 1 -10 10 -10 9 0 13 5 10 10 -3 6 -8 10 -10 10
-2 0 -7 -4 -10 -10z"/>
<path d="M14046 7229 c-11 -17 -21 -20 -42 -15 -24 6 -25 5 -11 -9 9 -8 24
-15 34 -15 23 0 66 38 58 51 -10 15 -23 11 -39 -12z"/>
<path d="M13178 7133 c7 -3 16 -2 19 1 4 3 -2 6 -13 5 -11 0 -14 -3 -6 -6z"/>
<path d="M13010 6850 c0 -5 7 -10 15 -10 8 0 15 5 15 10 0 6 -7 10 -15 10 -8
0 -15 -4 -15 -10z"/>
<path d="M5998 6703 c7 -3 16 -2 19 1 4 3 -2 6 -13 5 -11 0 -14 -3 -6 -6z"/>
<path d="M12365 6700 c3 -5 13 -10 21 -10 8 0 14 5 14 10 0 6 -9 10 -21 10
-11 0 -17 -4 -14 -10z"/>
<path d="M11825 6370 c3 -5 8 -10 11 -10 2 0 4 5 4 10 0 6 -5 10 -11 10 -5 0
-7 -4 -4 -10z"/>
<path d="M11825 6340 c-3 -5 -1 -10 4 -10 6 0 11 5 11 10 0 6 -2 10 -4 10 -3
0 -8 -4 -11 -10z"/>
<path d="M7412 6118 c-20 -20 -14 -32 7 -14 19 17 20 17 24 -6 5 -23 5 -23 4
1 -2 28 -17 37 -35 19z"/>
<path d="M7625 6120 c-47 -4 -61 -9 -63 -22 -2 -13 3 -18 18 -18 12 0 18 -4
15 -10 -3 -5 -26 -10 -50 -10 -24 0 -47 -4 -50 -10 -3 -5 1 -10 10 -10 9 0 14
-3 12 -7 -3 -5 5 -9 16 -10 12 -1 87 -7 167 -13 228 -19 242 -19 303 -9 76 13
193 21 287 19 41 0 107 4 145 11 39 6 105 12 147 14 42 2 85 8 95 14 17 11 17
11 -2 9 -14 -2 -19 2 -17 14 2 13 -11 18 -75 25 -117 12 -461 8 -521 -6 -40
-10 -79 -10 -179 -1 -70 6 -131 14 -137 17 -13 8 -48 9 -121 3z"/>
<path d="M7218 6073 c6 -2 18 -2 25 0 6 3 1 5 -13 5 -14 0 -19 -2 -12 -5z"/>
<path d="M7415 6040 c3 -5 21 -10 38 -9 31 1 31 1 7 9 -36 11 -52 11 -45 0z"/>
<path d="M7695 5960 c11 -5 43 -8 70 -8 43 0 46 1 20 8 -44 11 -116 11 -90 0z"/>
<path d="M8469 5835 c-3 -2 -38 -7 -78 -9 -74 -5 -111 -16 -53 -16 17 0 34 -4
37 -10 3 -5 18 -10 33 -10 26 0 26 0 5 -15 -11 -8 -42 -16 -67 -17 -26 0 -42
-5 -35 -9 8 -5 6 -8 -7 -11 -10 -2 100 -4 245 -3 202 0 265 3 268 13 3 7 22
12 48 12 43 0 67 13 43 23 -7 3 -4 6 7 7 33 2 -19 20 -105 36 -70 13 -331 20
-341 9z"/>
<path d="M8150 5740 c-12 -8 -11 -10 7 -10 12 0 25 5 28 10 8 13 -15 13 -35 0z"/>
<path d="M8248 5743 c6 -2 18 -2 25 0 6 3 1 5 -13 5 -14 0 -19 -2 -12 -5z"/>
<path d="M12960 5698 c0 -4 33 -8 73 -9 39 0 87 -1 105 -2 17 -1 32 1 32 6 0
4 8 7 18 7 14 0 15 -2 2 -10 -12 -8 -10 -10 9 -10 19 0 21 3 12 14 -9 11 -41
14 -131 13 -66 0 -120 -4 -120 -9z"/>
<path d="M10893 5543 c9 -2 23 -2 30 0 6 3 -1 5 -18 5 -16 0 -22 -2 -12 -5z"/>
</g>
</svg>
