<?xml version="1.0" standalone="no"?>
<!DOCTYPE svg PUBLIC "-//W3C//DTD SVG 20010904//EN"
 "http://www.w3.org/TR/2001/REC-SVG-20010904/DTD/svg10.dtd">
<svg version="1.0" xmlns="http://www.w3.org/2000/svg"
 width="4767.000000pt" height="3176.000000pt" viewBox="0 0 4767.000000 3176.000000"
 preserveAspectRatio="xMidYMid meet">

<g transform="translate(0.000000,3176.000000) scale(0.100000,-0.100000)"
fill="#000000" stroke="none">
<path d="M0 15880 l0 -15880 23835 0 23835 0 0 15880 0 15880 -23835 0 -23835
0 0 -15880z m21020 12903 c75 -18 122 -19 317 -8 142 8 263 -4 263 -27 0 -5 5
-6 10 -3 21 13 59 16 403 29 92 4 184 10 203 14 20 4 78 4 129 1 102 -8 183
-5 290 9 67 8 281 7 685 -3 102 -3 253 -5 335 -4 83 0 167 0 188 -1 20 0 65
-1 100 -2 65 -1 170 0 247 3 25 1 86 1 135 0 50 -1 161 -1 248 -1 87 0 195 -4
241 -9 63 -8 106 -6 174 5 93 15 127 14 242 -5 36 -6 133 -9 215 -7 123 4 154
2 179 -11 38 -20 185 -31 195 -15 5 8 17 8 36 3 17 -5 24 -10 17 -10 -7 -1
-10 -6 -6 -12 4 -7 23 -8 53 -4 110 15 219 23 263 20 110 -10 264 -8 286 4 24
13 62 0 62 -20 0 -7 11 -9 28 -5 20 5 23 4 12 -4 -22 -15 14 -13 99 5 69 14
72 14 108 -7 41 -24 44 -24 343 -19 85 1 157 6 160 11 5 8 55 12 115 10 11 0
39 -9 62 -20 27 -13 53 -18 71 -14 23 5 35 0 56 -21 l27 -27 149 5 c82 3 166
1 187 -4 21 -5 95 -9 166 -10 70 -1 127 -5 127 -9 0 -16 107 -23 145 -10 20 6
73 11 119 11 47 -1 101 5 122 12 24 9 50 11 67 6 15 -4 27 -5 27 -2 0 3 7 0
15 -7 10 -8 42 -13 83 -12 174 2 332 3 387 2 63 -1 116 4 131 11 15 8 77 2
106 -9 15 -7 35 -9 43 -6 8 4 15 2 15 -4 0 -6 14 -8 33 -6 102 14 301 22 318
13 11 -5 24 -7 30 -4 5 4 16 1 24 -5 8 -7 15 -8 15 -4 0 5 26 11 59 12 43 2
63 -1 75 -13 18 -18 137 -28 171 -15 17 8 16 9 -10 10 -22 0 -26 3 -15 9 19
11 120 2 120 -11 0 -5 9 -6 21 -3 14 5 27 0 40 -14 11 -12 25 -21 31 -21 6 0
16 -7 23 -16 9 -14 33 -17 116 -19 69 -2 107 1 112 9 6 7 7 5 3 -6 -9 -29 63
-43 147 -29 96 16 105 15 138 -21 28 -31 39 -81 21 -92 -13 -8 -102 -9 -155
-2 -32 5 -67 2 -101 -8 -59 -17 -108 -24 -251 -32 -58 -3 -113 -12 -130 -21
-25 -12 -46 -13 -120 -5 -50 5 -116 7 -148 5 -36 -3 -63 0 -72 7 -9 7 -46 12
-92 12 -650 -7 -753 -6 -878 5 -356 32 -622 37 -810 18 -224 -24 -889 -29
-1010 -8 -158 27 -412 50 -639 58 -88 3 -163 8 -167 11 -4 2 -27 -2 -51 -10
-24 -8 -61 -17 -83 -20 -64 -9 -323 -20 -405 -18 -41 0 -257 3 -480 5 -223 3
-445 10 -495 16 -49 6 -157 15 -240 20 -82 5 -166 15 -185 21 -23 7 -206 13
-525 17 -269 3 -580 8 -690 11 -273 6 -309 7 -555 4 -340 -3 -635 6 -782 23
-75 9 -162 15 -195 14 -32 -1 -118 6 -192 15 -74 8 -137 14 -141 11 -8 -5 -81
-5 -270 -1 -180 4 -296 16 -322 33 -17 11 -188 10 -181 -1 6 -9 -50 -3 -117
14 -62 15 -170 24 -170 13 0 -13 -207 -15 -230 -3 -14 7 -20 7 -20 0 0 -12
-146 -14 -154 -2 -7 12 63 36 97 34 25 -2 28 1 27 25 -1 16 -2 33 -1 40 1 13
67 83 78 83 3 0 15 7 25 17 13 11 18 12 18 3 0 -10 3 -10 14 -1 18 15 226 13
226 -2 0 -6 22 -7 58 -2 184 24 457 23 562 -2z m-1452 -140 c-1 -40 -3 -43
-30 -43 -17 0 -27 4 -23 10 3 6 0 10 -7 10 -9 0 -9 3 2 10 12 8 10 10 -10 10
-22 1 -23 2 -9 13 9 7 14 18 11 26 -7 20 17 30 44 17 20 -9 24 -18 22 -53z
m5746 -2208 c11 -8 28 -15 38 -15 10 0 18 -4 18 -10 0 -17 27 -11 35 7 6 16 8
16 23 -4 19 -24 115 -42 127 -24 8 14 125 15 125 1 0 -5 9 -10 20 -10 11 0 20
-4 20 -9 0 -8 206 -7 260 0 47 7 100 -2 100 -16 0 -12 15 -15 65 -17 97 -2
100 -2 105 -10 4 -4 23 -9 43 -10 20 -2 39 -9 42 -15 2 -7 15 -13 29 -13 13 0
26 -5 28 -12 3 -9 19 -8 67 2 52 11 72 11 119 0 31 -8 60 -18 63 -22 3 -5 40
-9 82 -11 54 -1 77 -6 77 -14 0 -8 15 -13 40 -13 29 0 40 -4 40 -15 0 -11 11
-15 40 -15 27 0 40 -4 40 -14 0 -7 11 -16 25 -18 13 -3 22 -1 19 3 -3 5 7 14
23 20 22 8 30 7 39 -5 13 -18 89 -22 99 -6 8 13 52 13 60 1 3 -5 -3 -12 -12
-14 -10 -3 0 -5 22 -6 61 -2 87 -11 80 -29 -10 -26 13 -40 63 -36 34 2 39 1
17 -4 -20 -5 -31 -14 -33 -29 -4 -26 22 -30 172 -32 55 -1 103 -4 109 -8 5 -3
66 -7 136 -9 69 -3 155 -8 191 -14 36 -5 94 -9 130 -9 48 0 67 -4 77 -16 6
-10 17 -14 23 -10 6 4 17 1 25 -5 8 -7 15 -9 15 -4 0 5 51 10 113 11 61 0 137
2 167 3 30 0 66 -2 80 -6 77 -19 272 -14 239 7 -10 6 -6 9 16 9 17 0 110 3
208 7 132 4 189 2 218 -7 31 -10 49 -11 96 0 32 7 65 12 73 11 8 -1 33 -3 55
-5 22 -2 51 -8 66 -14 15 -6 31 -6 41 -1 30 17 150 20 167 5 10 -9 35 -14 68
-13 28 1 46 5 40 9 -9 6 -9 8 -1 8 7 0 15 12 19 28 5 16 9 21 12 13 5 -11 7
-11 14 0 8 12 11 11 19 -1 9 -13 11 -13 20 0 7 10 12 12 18 4 11 -16 48 -34
71 -34 13 0 21 -7 22 -17 0 -15 2 -15 10 3 7 14 20 21 40 21 16 0 29 -3 29 -7
0 -7 117 -2 140 6 34 12 100 16 100 5 0 -6 5 -11 11 -11 5 0 7 5 4 10 -4 6 21
10 68 10 54 0 88 6 122 21 40 18 59 20 108 14 34 -3 70 -11 80 -17 17 -9 68
-16 124 -17 12 -1 34 -14 50 -31 15 -16 32 -30 36 -30 4 0 14 -6 21 -12 11
-11 9 -18 -16 -40 -26 -23 -42 -27 -116 -33 -69 -6 -96 -13 -129 -34 -23 -14
-43 -35 -45 -46 -3 -18 -72 -66 -93 -64 -24 3 -33 -2 -38 -22 -4 -15 -11 -19
-25 -15 -15 5 -25 -3 -46 -34 -22 -33 -32 -40 -59 -40 -19 0 -37 -3 -41 -7 -4
-5 -13 -8 -19 -8 -7 0 -11 -11 -9 -23 2 -19 -2 -23 -20 -21 -13 1 -36 -3 -51
-9 -16 -7 -33 -12 -39 -12 -5 0 -23 -10 -40 -21 -25 -18 -29 -27 -24 -50 3
-16 1 -41 -5 -56 -7 -19 -7 -29 0 -31 6 -2 11 -10 11 -18 0 -10 7 -13 25 -8
33 8 84 -4 66 -16 -8 -4 6 -6 32 -3 46 5 77 -9 77 -37 0 -6 11 -16 25 -22 14
-6 25 -16 25 -23 0 -7 32 -16 77 -23 42 -7 81 -16 87 -20 6 -4 32 -9 59 -10
35 -2 49 1 53 13 3 8 14 15 23 15 10 0 12 -3 4 -8 -8 -5 -4 -15 12 -35 27 -30
35 -33 35 -13 0 9 7 12 20 9 11 -3 20 -8 20 -12 0 -4 16 -7 36 -7 19 0 38 -5
42 -11 4 -5 28 -13 55 -17 39 -6 47 -5 47 8 0 20 0 20 38 0 18 -8 37 -12 43
-9 5 4 17 -1 24 -11 13 -18 14 -18 15 -1 0 25 18 21 22 -5 2 -12 16 -29 32
-38 16 -8 38 -23 48 -32 23 -23 56 -23 80 -1 17 15 18 15 18 -5 0 -20 5 -22
53 -22 29 0 58 -5 64 -11 6 -6 26 -15 45 -19 l33 -8 -34 -1 c-28 -1 -32 -3
-21 -16 7 -8 16 -12 22 -9 5 3 43 2 86 -2 72 -6 75 -8 54 -22 -12 -8 -22 -21
-22 -29 0 -10 -9 -14 -27 -12 -30 2 -82 -9 -98 -21 -5 -5 -34 -16 -62 -25 -29
-10 -53 -23 -53 -29 0 -24 -49 -56 -85 -56 -19 0 -35 -4 -35 -10 0 -6 -33 -10
-80 -10 -58 0 -80 -4 -80 -13 0 -14 -112 -60 -152 -63 -15 -1 -35 -5 -45 -9
-17 -7 -17 -8 2 -15 15 -7 9 -9 -25 -10 -25 -1 -84 -3 -132 -6 -84 -5 -88 -4
-88 15 0 24 -20 27 -53 10 -11 -7 -69 -12 -128 -13 -90 -1 -111 -4 -128 -20
-12 -11 -21 -25 -21 -32 0 -20 -58 -47 -86 -40 -13 4 -24 11 -24 16 0 6 -7 10
-16 10 -8 0 -13 4 -10 9 3 4 -15 11 -41 15 -40 5 -50 3 -70 -16 -20 -19 -34
-22 -96 -20 -76 1 -127 -12 -127 -33 0 -16 -83 -105 -98 -105 -6 0 -12 5 -14
12 -6 17 -68 -12 -68 -32 0 -36 14 -61 36 -66 13 -3 24 -10 24 -15 0 -5 39 -9
88 -9 48 0 102 -4 119 -9 27 -8 42 -4 99 24 57 29 74 33 115 28 27 -3 54 -1
61 4 7 6 30 16 50 22 32 11 40 10 54 -3 8 -9 22 -16 29 -16 7 0 21 -7 29 -16
18 -18 251 -40 323 -30 24 3 58 0 81 -8 41 -15 162 -11 194 5 11 6 18 5 22 -4
5 -9 7 -9 12 1 3 6 17 12 30 12 14 0 42 9 62 19 32 16 61 19 188 20 83 1 173
6 200 11 58 13 225 31 274 30 78 -1 171 -11 196 -21 15 -5 131 -11 258 -13
223 -4 358 -17 382 -37 6 -5 18 -7 25 -4 37 13 131 11 302 -6 173 -18 285 -18
312 -1 25 17 127 28 182 20 63 -10 97 -11 243 -9 52 1 127 -4 167 -12 39 -8
94 -12 122 -9 35 3 66 -1 97 -13 29 -11 58 -15 82 -11 118 19 121 19 179 -4
110 -41 123 -49 117 -65 -4 -8 1 -17 10 -21 9 -3 16 -12 16 -20 0 -15 26 -19
34 -6 5 9 158 25 201 22 11 0 68 -2 126 -3 99 -2 108 -4 148 -32 61 -43 143
-85 165 -85 11 0 34 -11 53 -26 18 -14 38 -22 44 -19 5 4 25 9 42 11 71 9 91
15 107 29 25 22 106 29 173 15 45 -9 61 -17 69 -36 6 -13 17 -24 25 -24 9 0
12 -11 9 -37 -2 -21 -1 -28 1 -15 5 24 23 31 23 7 0 -7 8 -19 18 -24 16 -10
16 -10 0 -11 -10 0 -18 -4 -18 -10 0 -5 9 -10 20 -10 11 0 20 -7 20 -15 0 -9
12 -21 28 -27 21 -9 23 -12 10 -15 -34 -8 -20 -33 18 -33 37 0 94 27 94 45 0
5 4 3 10 -5 7 -12 18 -12 68 -2 71 15 112 15 112 2 0 -5 -6 -10 -12 -10 -23
-1 15 -17 55 -24 23 -4 37 -13 37 -21 0 -11 12 -15 40 -15 22 0 40 -4 40 -10
0 -5 9 -10 20 -10 13 0 20 7 20 20 0 11 5 20 10 20 6 0 10 7 10 15 0 8 5 15
11 15 5 0 7 5 3 12 -5 7 -3 8 5 4 7 -5 18 0 26 10 20 28 142 33 172 7 39 -32
39 -64 -1 -107 -50 -53 -48 -76 7 -77 23 -1 74 -2 114 -3 68 -1 73 -2 108 -38
20 -21 42 -38 48 -38 7 0 19 -6 25 -12 10 -10 15 -10 23 2 8 13 11 13 20 -3 6
-9 14 -15 18 -12 16 10 43 -33 36 -57 -15 -47 -40 -59 -124 -61 -68 -2 -83 1
-103 19 -42 39 -110 50 -129 22 -3 -4 -14 -1 -25 7 -18 14 -18 14 9 15 15 0
27 3 27 8 0 4 -20 6 -45 4 -31 -3 -45 0 -45 9 0 8 -6 7 -18 -4 -10 -10 -28
-17 -40 -17 -12 0 -22 -4 -22 -9 0 -13 -115 -34 -149 -28 -17 4 -33 2 -37 -4
-3 -6 -18 -9 -32 -8 -15 1 -38 -1 -52 -5 -15 -4 -40 -1 -61 8 -26 11 -46 13
-67 7 -27 -8 -123 -7 -302 5 -183 11 -272 4 -336 -26 -35 -17 -54 -21 -82 -15
-43 8 -145 18 -182 17 -14 0 -45 0 -70 0 -93 2 -144 -2 -151 -13 -4 -7 -32 -9
-85 -4 -56 4 -75 3 -64 -4 22 -15 4 -13 -28 3 -24 12 -35 12 -82 0 -65 -18
-138 -24 -142 -12 -2 4 -64 13 -138 19 -109 9 -147 8 -201 -3 -48 -10 -92 -12
-170 -6 -57 5 -112 6 -121 4 -9 -2 -19 2 -22 10 -3 8 -11 14 -18 14 -6 0 -22
10 -36 22 -19 19 -40 24 -105 29 -45 4 -114 10 -154 14 -57 6 -83 4 -125 -10
-43 -14 -70 -16 -143 -10 -49 5 -133 9 -185 10 -52 2 -135 10 -185 19 -206 38
-251 38 -281 2 -22 -24 -132 -62 -157 -53 -7 2 -32 -7 -57 -20 -42 -23 -55
-24 -180 -24 -208 2 -249 0 -220 -8 21 -7 17 -9 -25 -14 -27 -3 -105 -9 -172
-13 -68 -3 -123 -10 -123 -15 0 -5 -18 -9 -39 -9 -22 0 -74 -5 -117 -11 -54
-7 -80 -7 -87 0 -15 15 -39 14 -77 -6 -38 -18 -66 -23 -160 -27 -36 -1 -87
-11 -113 -21 -41 -15 -58 -17 -115 -8 -50 7 -75 7 -97 -2 -16 -7 -70 -13 -119
-14 -49 -1 -94 -5 -99 -8 -8 -5 -62 -9 -187 -14 -49 -2 -256 -55 -275 -71 -13
-11 -27 -10 -20 2 4 6 -6 10 -24 10 -16 0 -32 -6 -35 -12 -5 -10 -7 -10 -12 0
-3 6 -23 12 -45 12 -35 0 -39 -3 -39 -25 0 -18 -4 -23 -15 -19 -8 4 -22 1 -30
-6 -11 -9 -18 -9 -30 3 -9 9 -25 14 -38 11 -12 -3 -74 -7 -138 -8 -64 -2 -122
-7 -129 -11 -21 -13 -201 -26 -332 -25 -81 2 -107 -7 -78 -25 17 -10 -15 -34
-38 -29 -11 3 -23 1 -26 -5 -4 -6 -14 -11 -22 -11 -8 0 -12 5 -9 10 3 6 -3 10
-14 10 -12 0 -21 4 -21 8 0 8 -110 4 -119 -4 -2 -2 3 -12 11 -21 13 -15 14
-24 4 -53 -10 -31 -16 -35 -56 -42 -25 -4 -54 -5 -65 -1 -11 3 -77 5 -147 4
-86 -2 -128 1 -128 8 0 6 11 11 24 11 14 0 28 5 31 10 10 17 -65 11 -82 -6
-11 -11 -28 -14 -52 -11 -20 2 -53 -2 -73 -9 -21 -7 -75 -14 -120 -16 -72 -3
-85 -6 -101 -25 -10 -13 -25 -23 -33 -23 -8 0 -14 -4 -14 -10 0 -15 -16 -12
-34 5 -8 8 -22 15 -30 15 -9 0 -16 4 -16 9 0 5 -37 -2 -81 -16 -45 -13 -111
-28 -148 -33 -36 -4 -77 -11 -91 -15 -19 -5 -22 -4 -10 4 12 9 10 11 -12 11
-16 0 -28 -4 -28 -9 0 -16 -63 -31 -141 -35 -107 -6 -180 -17 -211 -33 -16 -7
-28 -11 -28 -8 0 3 -15 -2 -32 -11 -22 -12 -68 -18 -145 -22 -62 -3 -113 -8
-113 -12 0 -11 -79 -32 -147 -39 -34 -4 -59 -3 -57 1 7 12 -34 10 -57 -2 -33
-18 -100 -25 -241 -24 -97 1 -138 -2 -138 -10 0 -12 -113 -20 -305 -21 -55 0
-103 -4 -107 -10 -4 -5 -33 -10 -64 -12 -32 -1 -86 -9 -119 -18 -55 -13 -66
-13 -90 -1 -18 9 -34 12 -44 6 -9 -4 -54 -11 -101 -14 -74 -4 -87 -8 -100 -28
-36 -54 -74 -89 -92 -85 -10 3 -18 1 -18 -3 0 -16 -38 2 -43 21 -5 20 -37 27
-37 9 0 -12 -181 -3 -217 11 -18 6 -23 5 -23 -6 0 -8 -3 -14 -7 -13 -21 5
-102 -17 -132 -35 -25 -15 -54 -21 -103 -23 -68 -1 -93 -9 -71 -22 6 -4 -19
-8 -55 -8 -372 -8 -512 -23 -512 -57 0 -8 -20 -12 -62 -12 -35 0 -83 -4 -107
-9 -26 -5 -42 -5 -38 0 5 8 -25 9 -100 3 -18 -2 -33 -7 -33 -11 0 -4 -9 -8
-20 -8 -11 0 -20 -4 -20 -10 0 -14 -33 -12 -64 3 -39 21 -96 17 -431 -28 -16
-3 -60 -7 -97 -11 -79 -8 -95 -30 -25 -37 37 -3 35 -4 -15 -5 -37 -1 -58 2
-60 10 -3 8 -31 13 -86 13 -48 0 -82 4 -82 10 0 6 -8 1 -16 -10 -11 -14 -18
-16 -21 -7 -3 7 -22 12 -44 12 -21 0 -39 4 -39 8 0 10 -114 7 -131 -4 -19 -11
-102 -5 -111 9 -4 7 -8 8 -9 2 -1 -5 -2 -17 -3 -25 -2 -8 -3 -23 -4 -32 -2
-22 -22 -24 -22 -3 0 8 -4 15 -10 15 -5 0 -10 -7 -10 -15 0 -17 -23 -19 -119
-9 -39 5 -57 10 -49 15 7 5 -26 9 -79 9 -58 0 -93 4 -95 11 -3 8 -28 9 -81 4
-59 -6 -77 -11 -73 -21 3 -7 0 -16 -5 -20 -18 -11 -138 7 -155 23 -22 22 -145
33 -359 31 -99 0 -223 2 -275 6 -307 21 -392 26 -456 26 -46 0 -77 5 -90 15
-21 16 -104 20 -104 5 0 -18 -38 -11 -42 8 -4 14 -17 19 -57 21 -29 1 -62 6
-74 10 -12 5 -49 12 -82 16 -33 4 -72 13 -87 21 -32 16 -58 18 -58 4 0 -5 10
-10 22 -10 12 0 18 -3 15 -7 -9 -8 -117 28 -117 39 0 4 -18 8 -40 8 -22 0 -40
5 -40 10 0 15 -54 12 -124 -6 -62 -17 -292 -23 -336 -9 -12 4 -20 2 -20 -5 0
-6 -5 -10 -11 -8 -6 2 -10 7 -9 12 1 5 -4 13 -12 17 -18 12 -126 11 -130 -1
-2 -5 -30 -1 -67 10 -36 12 -104 22 -155 24 -98 5 -148 18 -144 38 2 9 -7 12
-27 11 -16 -1 -60 12 -97 29 -58 26 -68 35 -69 57 -1 17 -3 20 -6 9 -6 -22
-41 -24 -50 -2 -3 8 -12 13 -19 10 -8 -3 -27 9 -44 27 -20 21 -33 28 -38 21
-18 -28 -172 -20 -172 9 0 4 4 6 9 3 4 -3 17 1 27 9 19 14 19 14 0 15 -16 0
-18 6 -13 39 4 34 2 39 -14 38 -11 -1 -19 -9 -19 -19 0 -18 -1 -18 -27 -1 -16
10 -30 20 -33 24 -3 3 -33 9 -68 13 -81 9 -99 15 -80 28 9 7 7 8 -7 3 -43 -16
-62 -16 -78 -1 -20 20 -87 22 -87 2 0 -10 -16 -15 -57 -18 -49 -3 -61 0 -80
19 -13 12 -23 31 -23 41 0 13 -12 23 -39 32 -22 7 -42 19 -45 26 -3 8 -20 14
-41 14 -19 0 -35 5 -35 10 0 6 -18 10 -40 10 -27 0 -45 6 -59 21 -10 11 -37
23 -60 26 -23 3 -41 10 -41 16 0 5 -13 7 -30 4 -16 -4 -32 -2 -36 4 -4 8 -9 7
-14 -1 -9 -15 -111 -15 -120 -1 -3 6 -22 6 -50 0 -40 -9 -123 -8 -247 4 -24 2
-43 0 -43 -5 0 -4 -13 -8 -30 -8 -16 0 -30 -4 -30 -10 0 -15 -57 -12 -63 3 -4
9 -7 9 -15 -1 -9 -13 -42 -7 -42 8 0 12 -97 33 -112 24 -12 -8 -57 -10 -304
-15 -93 -2 -160 8 -180 28 -14 14 -21 15 -52 3 -22 -8 -82 -13 -149 -13 -99
-1 -116 2 -141 20 -19 14 -34 18 -42 13 -10 -6 -22 0 -40 18 -41 44 -71 52
-158 45 -68 -5 -83 -3 -122 17 -62 31 -110 41 -133 29 -10 -6 -60 -11 -110
-11 -121 0 -117 -1 -117 22 0 19 -7 20 -104 20 -58 0 -117 5 -133 11 -15 6
-53 12 -83 13 -170 6 -170 6 -170 22 0 28 31 70 60 81 16 6 50 8 76 5 37 -4
49 -1 56 12 5 9 16 16 25 16 10 0 14 6 10 19 -6 26 30 62 42 42 5 -8 11 -9 15
-3 3 5 17 7 32 4 23 -4 25 -2 20 16 -4 11 -2 23 4 27 5 3 10 0 10 -8 0 -8 9
-17 19 -20 21 -5 41 9 41 30 0 7 5 13 10 13 6 0 10 6 10 13 0 8 18 20 40 27
22 7 40 17 40 22 0 12 78 10 82 -3 2 -7 15 -6 38 4 29 13 31 16 13 16 -30 1
-29 15 3 40 14 11 27 26 28 33 1 7 5 18 9 24 12 21 -17 31 -101 37 -82 5 -83
6 -127 50 -25 24 -45 49 -45 55 0 6 -9 14 -21 17 -12 4 -18 13 -15 20 5 15 -5
19 -66 30 -21 3 -38 10 -38 14 0 5 -17 12 -37 16 -21 3 -60 19 -88 34 -27 15
-66 36 -85 47 -19 10 -38 22 -41 27 -3 4 -34 11 -70 17 -35 5 -84 13 -108 18
-25 6 -51 8 -58 5 -7 -3 -13 2 -13 10 0 19 -56 37 -112 37 -21 0 -54 9 -75 19
-22 11 -72 23 -115 26 -86 8 -95 18 -48 50 17 11 32 27 35 35 3 9 15 16 28 16
111 1 130 9 129 53 -1 39 16 44 108 35 70 -7 71 -6 102 25 29 29 53 36 125 34
7 0 15 12 18 28 6 27 25 41 25 18 0 -5 4 -8 9 -5 5 3 7 14 4 24 -2 10 4 28 14
41 24 29 19 88 -8 96 -10 4 -16 12 -13 20 4 9 -3 16 -20 21 -14 3 -26 10 -26
15 0 5 -10 9 -22 9 -17 0 -20 -3 -9 -9 11 -7 7 -12 -15 -24 -27 -14 -32 -13
-74 9 -85 44 -88 44 -135 32 -34 -9 -57 -9 -107 2 -88 18 -198 24 -211 11 -6
-6 -19 -11 -29 -11 -10 0 -21 -6 -24 -13 -7 -20 -53 -19 -76 3 -12 11 -28 21
-35 21 -26 3 -31 4 -37 10 -4 3 -29 4 -56 1 -34 -3 -50 -1 -50 7 0 8 -29 12
-92 12 -236 1 -259 3 -270 22 -7 13 -17 17 -34 13 -17 -5 -24 -2 -24 9 0 8 -4
15 -10 15 -5 0 -10 18 -10 39 0 22 5 43 10 46 17 10 11 45 -7 46 -10 1 -25 2
-33 3 -8 1 -23 -5 -32 -12 -14 -12 -20 -11 -42 5 -14 10 -23 24 -21 31 2 6 0
12 -5 12 -5 0 -11 -8 -13 -17 -4 -14 -5 -13 -6 4 -2 34 -47 63 -97 63 -23 0
-46 5 -49 10 -3 6 -1 10 4 10 6 0 11 5 11 10 0 6 -9 10 -20 10 -11 0 -20 -7
-20 -15 0 -8 -5 -15 -10 -15 -6 0 -9 6 -8 13 2 6 -5 11 -14 11 -10 -1 -20 7
-24 18 -4 13 -11 17 -24 13 -13 -4 -20 0 -24 13 -5 16 -16 19 -59 20 -28 0
-57 -5 -64 -10 -13 -10 -53 10 -52 27 3 25 -2 35 -18 35 -21 -1 -74 -29 -55
-30 15 0 16 -20 1 -20 -7 0 -18 -8 -25 -17 -10 -14 -15 -15 -25 -6 -10 10 -15
9 -24 -4 -14 -19 -185 -31 -550 -39 -348 -7 -377 -8 -358 -15 35 -13 -93 -20
-242 -13 -82 3 -186 6 -230 6 -52 0 -70 2 -50 7 25 6 19 8 -35 13 -35 4 -66
11 -68 16 -5 15 -254 2 -273 -14 -28 -25 -134 -11 -216 28 -12 6 -29 8 -37 5
-8 -3 -18 -2 -21 3 -3 5 -12 7 -20 3 -9 -3 -27 3 -41 12 -21 14 -28 15 -35 4
-6 -11 -11 -10 -26 3 -14 13 -36 15 -113 12 -53 -2 -96 -8 -98 -14 -2 -5 -18
-10 -35 -10 -50 0 -76 -10 -70 -26 3 -8 1 -14 -3 -14 -5 0 -19 -3 -32 -6 -16
-5 -22 -2 -22 9 0 20 -38 28 -93 21 -44 -6 -107 11 -107 28 0 5 -21 8 -46 8
-36 0 -45 -3 -41 -14 7 -17 -23 -31 -33 -16 -5 8 -15 8 -34 0 -16 -6 -76 -13
-135 -17 -85 -5 -114 -10 -146 -29 -28 -16 -45 -20 -55 -14 -8 5 -25 7 -37 3
-13 -3 -23 -1 -23 6 0 13 -97 6 -165 -12 -36 -10 -58 -11 -80 -4 -85 28 -182
20 -207 -17 -13 -19 -284 -13 -346 8 -46 16 -52 20 -46 39 10 32 24 47 39 41
8 -3 24 1 37 10 17 12 48 16 126 16 94 0 103 2 98 18 -16 51 -5 149 15 137 5
-3 7 0 4 7 -4 9 20 22 71 40 42 16 79 26 83 23 4 -2 29 14 55 35 42 35 55 40
95 39 56 -1 92 -11 92 -24 0 -5 10 -15 22 -22 19 -10 24 -9 39 10 12 15 18 17
18 8 0 -11 4 -9 15 5 14 18 15 18 26 1 10 -17 11 -17 23 -1 11 15 24 16 85 11
40 -3 79 -11 86 -17 9 -8 14 -7 18 4 3 8 14 15 24 16 10 1 61 4 113 6 52 3
100 10 107 15 7 7 18 7 30 1 10 -5 60 -12 111 -14 65 -4 97 -10 110 -21 15
-14 55 -17 257 -19 208 -3 245 -1 275 14 31 15 267 74 330 83 21 3 114 20 153
28 6 1 11 -12 12 -30 0 -18 -3 -33 -7 -33 -5 0 -8 5 -8 12 0 15 -13 1 -16 -17
-1 -8 2 -12 8 -9 6 4 8 1 6 -7 -3 -8 -11 -13 -17 -12 -6 2 -11 0 -11 -5 0 -14
31 -52 43 -52 9 0 8 3 -1 8 -15 10 62 29 161 38 37 4 67 11 67 16 0 6 7 8 15
5 21 -9 102 18 166 53 42 23 67 30 111 30 39 0 71 7 98 21 32 17 53 20 101 17
56 -4 64 -7 95 -44 18 -21 32 -44 29 -51 -2 -6 5 -21 16 -34 17 -20 24 -21 86
-14 38 5 105 8 150 6 45 -1 91 3 102 8 14 8 51 8 128 0 59 -6 158 -12 218 -13
61 -1 134 -8 164 -14 29 -7 57 -9 62 -7 11 7 226 -14 263 -26 16 -5 32 -6 35
-2 3 5 15 9 26 10 11 1 70 9 130 17 140 19 213 19 246 2 14 -7 57 -14 95 -15
38 -1 87 -8 110 -16 31 -10 54 -11 100 -4 32 6 68 11 79 11 30 1 227 -22 250
-29 11 -3 31 -7 45 -8 14 -2 61 -6 105 -9 44 -4 114 -12 156 -18 59 -9 87 -8
121 1 57 16 182 18 200 4 7 -6 52 -13 99 -16 48 -2 91 -7 95 -10 17 -10 131
-27 145 -22 25 10 193 12 224 4 17 -5 41 -20 54 -33 19 -21 29 -23 84 -19 34
3 82 -1 107 -7 25 -6 56 -13 70 -15 14 -2 52 -9 85 -14 33 -6 92 -14 130 -17
39 -3 77 -8 85 -11 8 -3 56 -7 105 -9 50 -2 101 -5 115 -7 80 -10 129 -20 160
-31 21 -8 59 -11 98 -8 40 3 67 0 77 -8 8 -6 19 -9 24 -5 18 10 421 15 421 5
0 -6 5 -10 11 -10 5 0 9 8 7 18 -4 24 10 42 28 35 12 -4 14 0 9 19 -4 17 -2
27 7 30 19 8 57 -9 65 -28 3 -9 22 -34 43 -55 l36 -38 29 19 c17 11 24 20 16
20 -10 0 -8 7 8 21 16 15 21 29 18 47 -8 39 2 52 44 58 42 7 53 30 17 36 -13
2 13 7 56 11 62 6 83 13 94 28 14 21 47 25 58 8 5 -8 8 -8 13 0 5 8 19 5 47
-8 27 -13 41 -16 46 -8 5 8 13 6 26 -6 17 -16 20 -16 25 -2 4 8 18 15 33 15
15 0 32 7 38 16 9 11 42 17 131 24 66 4 133 13 148 19 16 6 42 11 58 11 17 0
39 5 50 10 10 6 40 15 66 21 27 6 68 15 93 20 103 22 159 28 223 22 51 -4 67
-3 67 7 0 10 15 11 63 7 42 -5 57 -4 47 3 -17 11 -24 10 145 16 123 4 137 7
129 29 -5 12 5 15 57 16 35 1 72 0 83 -1 10 -1 35 1 54 5 25 5 32 9 22 15 -16
10 6 16 84 23 27 3 51 10 55 15 9 15 57 32 89 32 15 0 47 -7 71 -16 42 -14 45
-14 65 6 17 17 19 24 9 39 -15 23 -8 31 29 31 19 0 28 -5 28 -16 0 -24 169 -9
235 22 41 19 46 24 25 25 -20 1 -16 3 14 11 38 10 126 85 126 108 0 13 8 13
165 15 138 1 238 12 230 25 -6 10 36 0 51 -12 16 -12 92 1 109 18 7 8 30 14
49 14 20 0 36 4 36 9 0 5 14 11 30 15 18 3 30 12 30 21 0 9 9 15 25 15 14 0
25 -6 25 -13 0 -22 39 -48 58 -38 9 5 32 6 50 4 24 -4 31 -2 27 8 -5 14 35 39
62 39 7 0 13 5 13 11 0 7 22 10 63 7 46 -2 64 0 64 10 0 6 -4 12 -9 12 -5 0
-6 5 -3 10 3 6 50 10 106 10 59 0 99 4 99 10 0 6 9 10 20 10 11 0 35 9 54 19
l34 20 16 -22 c13 -19 17 -20 25 -7 6 8 11 11 11 6 0 -6 5 -5 11 1 6 6 18 9
25 6 8 -3 22 -2 31 1 15 6 15 8 3 16 -12 7 -12 12 -2 22 9 9 12 9 12 -3 0 -9
7 -6 19 10 13 18 25 23 44 19 17 -3 28 0 32 10 3 8 12 12 22 8 11 -5 23 0 33
14 12 16 22 20 42 15 19 -5 25 -11 21 -23 -5 -12 -1 -14 16 -9 15 4 30 -2 48
-19 17 -15 38 -24 59 -24 41 0 46 19 7 21 -59 3 81 17 175 18 55 0 124 7 154
15 122 34 129 37 139 63 6 15 15 23 23 20 8 -3 20 0 26 8 6 7 20 12 30 10 11
-2 22 0 25 6 4 5 13 5 23 0 39 -21 107 -22 167 -2 40 13 51 20 35 20 -20 1
-22 3 -10 11 8 5 25 7 36 4 14 -4 25 0 31 9 16 28 76 37 230 34 115 -1 153 -5
153 -14 0 -7 5 -13 10 -13 6 0 10 7 10 15 0 9 9 15 21 15 15 0 19 5 15 15 -3
8 3 19 14 25 26 14 30 13 31 -7 0 -14 2 -13 9 5 11 27 40 29 47 3 6 -24 28
-34 51 -22 35 19 119 36 161 32 25 -2 62 -12 84 -24 30 -15 41 -17 47 -8 5 9
55 14 166 17 333 10 421 13 474 20 70 9 117 11 448 15 149 2 272 2 272 -1 0
-11 74 -4 77 8 3 6 13 12 23 12 11 0 23 8 28 17 8 13 34 18 137 25 71 4 130
10 133 13 8 8 15 6 36 -10z m1666 -209 c0 -8 -4 -18 -10 -21 -5 -3 -10 3 -10
14 0 12 5 21 10 21 6 0 10 -6 10 -14z m500 -171 c0 -8 -7 -15 -15 -15 -16 0
-20 12 -8 23 11 12 23 8 23 -8z m120 -6 c0 -14 -77 -11 -83 4 -3 9 7 11 39 8
24 -1 44 -7 44 -12z m-6200 1 c0 -5 -4 -10 -10 -10 -5 0 -10 5 -10 10 0 6 5
10 10 10 6 0 10 -4 10 -10z m6040 -3 c0 -9 -11 -12 -35 -9 -19 2 -35 8 -35 13
0 5 16 9 35 9 22 0 35 -5 35 -13z m-7715 -215 c-3 -3 -11 0 -18 7 -9 10 -8 11
6 5 10 -3 15 -9 12 -12z m-13463 -252 c30 0 20 -14 -25 -34 -37 -17 -107 -31
-107 -21 0 2 20 16 45 32 25 15 45 32 45 38 0 5 5 4 12 -3 7 -7 20 -12 30 -12z
m778 -40 c0 -17 -7 -20 -40 -20 -33 0 -40 3 -40 20 0 17 7 20 40 20 33 0 40
-3 40 -20z m1230 -10 c0 -4 16 -15 35 -24 20 -10 35 -24 35 -34 0 -10 7 -28
16 -41 16 -22 15 -24 -20 -56 -21 -18 -54 -36 -74 -40 -66 -11 -74 -16 -69
-36 4 -14 0 -19 -13 -19 -11 0 -22 5 -25 10 -3 6 -22 10 -41 10 -19 0 -34 5
-34 10 0 6 9 10 19 10 11 0 23 5 26 10 6 9 -11 12 -100 15 -22 1 -34 9 -45 29
-14 25 -13 28 3 37 9 6 17 14 17 18 0 5 15 24 33 44 24 27 45 38 87 47 30 6
71 15 90 19 37 8 60 4 60 -9z m-1530 -51 c0 -10 -4 -21 -10 -24 -5 -3 -10 -15
-10 -26 0 -10 -4 -19 -10 -19 -5 0 -10 7 -10 15 0 10 -10 15 -30 15 -16 0 -30
-4 -30 -10 0 -16 -70 -12 -86 5 -13 13 -11 17 18 35 18 11 41 20 51 20 9 0 17
6 17 14 0 20 60 25 83 7 9 -8 17 -22 17 -32z m-253 9 c-3 -7 -5 -2 -5 12 0 14
2 19 5 13 2 -7 2 -19 0 -25z m393 11 c0 -11 -4 -17 -10 -14 -5 3 -10 13 -10
21 0 8 5 14 10 14 6 0 10 -9 10 -21z m4140 -3 c0 -3 -4 -8 -10 -11 -5 -3 -10
-1 -10 4 0 6 5 11 10 11 6 0 10 -2 10 -4z m7457 -52 c-3 -3 -12 -4 -19 -1 -8
3 -5 6 6 6 11 1 17 -2 13 -5z m-7357 -34 c0 -5 -9 -10 -20 -10 -11 0 -20 5
-20 10 0 6 9 10 20 10 11 0 20 -4 20 -10z m-4080 -120 c0 -5 -9 -10 -20 -10
-11 0 -20 5 -20 10 0 6 9 10 20 10 11 0 20 -4 20 -10z m427 -40 c55 0 79 -5
109 -22 22 -13 39 -27 39 -33 0 -5 4 -25 9 -42 8 -36 29 -43 45 -15 10 16 10
16 11 0 0 -10 -5 -18 -12 -18 -9 0 -9 -3 0 -12 7 -7 12 -24 12 -39 0 -36 -22
-43 -113 -34 -81 8 -157 39 -165 67 -2 10 -11 18 -19 18 -13 0 -13 -3 -2 -16
11 -14 10 -18 -5 -30 -10 -7 -16 -20 -13 -28 10 -27 -53 -31 -94 -7 -19 12
-41 24 -49 28 -8 3 -18 11 -22 17 -5 7 -22 6 -55 -2 -27 -7 -56 -10 -65 -7
-11 4 -21 -1 -30 -14 -7 -12 -18 -21 -24 -21 -7 0 -14 -7 -18 -15 -4 -11 -21
-15 -64 -15 -41 0 -64 5 -72 15 -14 17 -46 20 -55 5 -9 -14 -68 -13 -83 2 -9
9 -12 9 -12 0 0 -7 -16 -12 -40 -12 -22 0 -40 5 -40 10 0 6 6 10 14 10 16 0
31 18 23 26 -3 3 -14 1 -24 -4 -12 -7 -24 -7 -34 -1 -12 8 -12 11 3 22 9 7 18
24 20 37 2 14 9 24 15 23 7 -2 15 6 18 17 6 20 15 22 85 25 19 1 58 2 85 3 30
2 45 6 37 10 -9 6 0 12 26 20 50 15 52 15 52 -3 0 -29 18 -15 24 20 8 39 9 40
37 25 14 -8 19 -7 19 2 0 6 6 4 13 -7 8 -10 19 -15 24 -12 6 4 16 0 23 -8 16
-19 28 -19 64 0 18 10 57 15 112 15 72 0 84 2 84 17 0 15 1 15 18 0 14 -13 38
-17 89 -17z m-1912 -48 c6 -4 11 -20 12 -35 2 -27 1 -28 -45 -25 -43 3 -47 6
-50 30 -2 19 2 28 15 31 29 8 57 7 68 -1z m-211 -8 c9 -4 16 -18 16 -34 0 -32
-14 -40 -71 -40 -42 0 -42 1 -33 49 6 27 11 31 39 31 19 0 40 -3 49 -6z m2493
-34 c-3 -11 -1 -18 4 -15 4 3 15 -10 23 -30 8 -19 20 -35 26 -35 8 0 8 -6 0
-20 -22 -41 -162 -3 -144 38 4 9 9 32 12 50 4 30 7 32 44 32 35 0 40 -2 35
-20z m23163 -10 c0 -5 -4 -10 -10 -10 -5 0 -10 5 -10 10 0 6 5 10 10 10 6 0
10 -4 10 -10z m-22920 -20 c0 -5 -4 -10 -10 -10 -5 0 -7 -12 -4 -27 9 -45 -14
-65 -60 -56 -35 8 -39 12 -41 42 -2 26 1 35 16 38 10 3 19 9 19 14 0 5 18 9
40 9 22 0 40 -4 40 -10z m-360 -44 c0 -27 -15 -42 -25 -26 -8 13 3 50 16 50 5
0 9 -11 9 -24z m642 -24 c14 -12 15 -18 6 -30 -34 -41 -105 -32 -92 11 13 46
47 53 86 19z m1673 -32 c-3 -5 -12 -7 -20 -3 -21 7 -19 13 6 13 11 0 18 -4 14
-10z m3265 -234 c0 -3 -4 -8 -10 -11 -5 -3 -10 -1 -10 4 0 6 5 11 10 11 6 0
10 -2 10 -4z m18160 0 c0 -3 -4 -8 -10 -11 -5 -3 -10 -1 -10 4 0 6 5 11 10 11
6 0 10 -2 10 -4z m-1640 -406 c0 -5 -4 -10 -10 -10 -5 0 -10 5 -10 10 0 6 5
10 10 10 6 0 10 -4 10 -10z m-16062 -302 c4 -34 -11 -36 -32 -6 -22 31 -20 40
7 36 16 -2 23 -11 25 -30z m22969 -390 c-2 -13 -4 -3 -4 22 0 25 2 35 4 23 2
-13 2 -33 0 -45z m181 10 c7 -7 12 -15 12 -19 0 -11 -48 -17 -62 -7 -10 7 -9
12 6 23 24 18 29 18 44 3z m52 -128 c0 -13 7 -20 19 -20 10 0 46 -3 80 -6 52
-6 61 -5 61 10 0 13 11 16 63 15 66 0 99 -9 97 -24 0 -6 17 -14 39 -20 45 -11
65 -25 26 -17 -18 3 -25 0 -23 -9 2 -7 -7 -18 -19 -24 -13 -5 -23 -15 -23 -22
0 -18 -37 -25 -131 -27 -67 -1 -82 2 -90 17 -6 9 -18 17 -28 17 -10 0 -24 7
-31 15 -7 8 -18 15 -25 15 -7 0 -15 15 -17 33 -3 17 -8 40 -13 50 -4 10 -3 17
4 17 6 0 11 -9 11 -20z m925 -80 c8 -25 -1 -40 -25 -40 -10 0 -20 -5 -22 -12
-3 -9 -12 -8 -38 0 -20 7 -36 8 -39 3 -6 -8 -52 -14 -94 -12 -17 1 -17 3 -3
16 8 9 13 21 10 28 -3 9 6 12 33 9 21 -2 54 3 73 12 51 22 97 21 105 -4z
m-22885 -10 c0 -5 -4 -10 -10 -10 -5 0 -10 5 -10 10 0 6 5 10 10 10 6 0 10 -4
10 -10z m14064 -435 c-7 -17 -20 -20 -28 -6 -7 10 3 21 20 21 8 0 11 -6 8 -15z
m-34 -45 c0 -5 -4 -10 -10 -10 -5 0 -10 5 -10 10 0 6 5 10 10 10 6 0 10 -4 10
-10z m-4237 -577 c-7 -2 -19 -2 -25 0 -7 3 -2 5 12 5 14 0 19 -2 13 -5z
m-2518 -203 c3 -5 -3 -10 -14 -10 -10 0 -21 -6 -24 -12 -2 -7 -8 -10 -12 -6
-9 8 15 37 32 38 6 0 15 -4 18 -10z m1225 -3028 c8 -4 16 -19 17 -34 2 -31
-11 -38 -21 -11 -5 13 -9 14 -19 4 -9 -10 -8 -15 7 -27 12 -8 14 -14 7 -14
-19 0 -50 42 -51 68 0 16 6 22 23 21 12 0 29 -3 37 -7z m-70 -34 c0 -19 -18
-44 -25 -36 -4 3 0 15 7 27 15 24 18 26 18 9z m-10 -88 c0 -5 -2 -10 -4 -10
-3 0 -8 5 -11 10 -3 6 -1 10 4 10 6 0 11 -4 11 -10z m723 -47 c-13 -2 -35 -2
-50 0 -16 2 -5 4 22 4 28 0 40 -2 28 -4z m67 -8 c0 -8 -7 -15 -15 -15 -8 0
-15 7 -15 15 0 8 7 15 15 15 8 0 15 -7 15 -15z m-43 -57 c-3 -8 -6 -5 -6 6 -1
11 2 17 5 13 3 -3 4 -12 1 -19z m216 -5 c-13 -2 -33 -2 -45 0 -13 2 -3 4 22 4
25 0 35 -2 23 -4z m337 -11 c0 -8 154 -34 200 -35 14 0 64 3 113 7 67 5 87 4
87 -6 0 -10 21 -13 80 -12 44 0 80 -3 80 -8 0 -4 18 -8 40 -8 22 0 40 -4 40
-10 0 -5 15 -10 34 -10 19 0 47 -5 63 -12 27 -11 27 -12 6 -15 -13 -3 -23 -9
-23 -15 0 -6 11 -8 25 -6 13 3 26 1 28 -5 1 -5 10 -3 19 6 23 24 88 3 88 -29
0 -13 8 -24 20 -27 11 -3 20 -1 20 4 0 5 -7 9 -15 9 -8 0 -15 5 -15 10 0 15
26 12 40 -5 7 -9 20 -13 29 -10 9 2 23 0 31 -5 12 -8 10 -10 -10 -11 l-25 -1
28 -10 c15 -5 27 -14 27 -19 0 -5 36 -9 79 -9 44 0 83 -4 86 -10 3 -6 -4 -10
-17 -10 -46 -1 55 -41 117 -47 33 -3 68 -10 79 -15 12 -7 16 -7 12 0 -3 5 0
12 7 15 21 8 67 -4 67 -18 0 -6 11 -17 25 -23 15 -7 25 -20 25 -32 0 -16 -7
-20 -34 -20 -35 0 -50 -17 -40 -44 4 -10 18 -12 51 -8 29 3 48 1 53 -7 4 -7
32 -14 64 -16 31 -1 63 -8 71 -15 8 -6 18 -10 22 -7 15 8 46 -9 49 -28 2 -13
0 -15 -9 -6 -6 6 -20 11 -31 11 -37 0 0 -22 40 -24 22 -1 50 -8 64 -15 13 -8
67 -17 120 -21 67 -5 109 -13 143 -29 26 -13 47 -27 47 -31 0 -17 80 -43 120
-37 43 6 59 -5 40 -28 -10 -12 -10 -15 1 -15 11 0 11 -2 0 -12 -11 -10 -14
-10 -18 0 -3 6 -12 12 -21 12 -13 0 -12 -4 6 -20 12 -11 25 -20 29 -20 4 0 17
-12 29 -27 18 -23 25 -26 35 -15 18 17 30 15 22 -4 -5 -13 -2 -15 16 -9 15 4
23 2 27 -10 5 -12 9 -13 14 -4 5 7 15 9 26 4 13 -5 15 -9 7 -12 -21 -8 -14
-21 12 -25 14 -2 25 -5 24 -8 -4 -10 22 -50 32 -50 18 0 59 -48 59 -70 0 -11
16 -37 35 -57 19 -20 35 -43 35 -49 0 -7 5 -16 11 -19 18 -12 -2 69 -23 86
-10 9 -18 24 -18 33 0 9 -4 16 -10 16 -5 0 -10 9 -10 20 0 11 5 20 10 20 6 0
10 -4 10 -10 0 -5 7 -10 15 -10 8 0 15 5 15 11 0 5 4 8 9 5 5 -3 12 -48 16
-98 4 -51 12 -104 16 -117 9 -22 11 -23 28 -7 16 15 19 14 41 -9 23 -25 23
-25 2 -25 l-21 0 22 -23 c12 -13 29 -33 38 -44 16 -20 16 -21 -7 -32 -15 -6
-25 -7 -29 -1 -12 20 -25 9 -25 -20 0 -19 5 -30 14 -30 10 0 14 -9 13 -27 -2
-26 1 -28 38 -29 43 0 115 -27 115 -43 0 -5 21 -20 48 -32 26 -13 55 -33 65
-46 10 -13 23 -21 28 -18 18 12 112 7 119 -5 5 -7 17 -11 27 -8 15 4 19 0 19
-16 -1 -18 4 -21 37 -18 28 2 39 -1 44 -15 9 -24 62 -73 79 -73 8 0 22 -4 32
-9 9 -5 55 -16 102 -25 49 -9 90 -22 96 -31 6 -8 26 -15 47 -15 19 0 37 -4 39
-9 2 -6 48 -17 103 -26 97 -16 126 -18 360 -29 118 -6 175 -14 175 -26 0 -10
189 -25 263 -21 46 2 61 -1 71 -14 9 -12 29 -18 77 -19 35 -2 71 -6 79 -9 8
-4 56 -12 105 -17 50 -5 115 -14 146 -20 34 -6 75 -6 101 -2 34 7 55 5 87 -8
23 -9 38 -20 34 -24 -4 -5 11 -5 35 -1 65 11 155 14 167 7 5 -4 -6 -9 -25 -12
-27 -4 -36 -10 -38 -27 -3 -18 2 -23 20 -25 46 -3 73 4 91 23 20 22 21 22 45
10 33 -17 67 -30 87 -34 11 -2 19 -9 18 -15 -2 -7 1 -12 6 -12 5 0 11 -7 13
-15 3 -12 7 -13 28 -1 14 7 24 18 22 25 -3 17 24 24 45 13 17 -10 17 -11 1
-17 -10 -4 -18 -13 -18 -21 0 -7 -12 -17 -27 -20 -16 -4 -31 -12 -35 -18 -6
-8 -11 -7 -17 3 -5 8 -17 16 -26 17 -14 2 -16 -3 -11 -26 3 -16 1 -32 -5 -35
-5 -4 -9 -14 -7 -23 1 -10 -1 -23 -5 -29 -11 -18 -62 -16 -81 2 -8 8 -28 15
-45 15 -16 0 -33 5 -36 10 -3 6 -13 10 -20 10 -8 0 -24 8 -35 17 -11 9 -37 18
-59 18 -22 1 -48 9 -59 18 -10 9 -28 17 -39 17 -12 0 -23 7 -27 15 -3 8 -14
15 -24 15 -15 0 -21 -9 -25 -42 -3 -24 -3 -45 -1 -48 3 -2 26 -5 52 -6 59 -3
56 -2 43 -17 -16 -21 -3 -27 43 -21 54 8 125 -21 118 -48 -3 -11 1 -18 11 -18
16 0 30 -24 20 -34 -15 -15 -49 -3 -77 27 -36 39 -59 50 -74 35 -8 -8 -8 -17
-1 -31 6 -11 7 -18 2 -15 -4 2 -21 10 -38 17 -16 7 -38 17 -47 22 -10 5 -25 9
-33 9 -8 0 -15 4 -15 9 0 15 -39 19 -51 5 -14 -17 -2 -35 47 -65 23 -14 34
-28 34 -44 0 -13 6 -25 13 -28 6 -2 10 -7 7 -10 -8 -9 -100 5 -94 14 3 5 -5 9
-18 9 -19 0 -20 -2 -8 -11 12 -9 11 -9 -5 -4 -11 5 -33 10 -50 13 -16 2 -35 9
-42 14 -14 11 -97 13 -113 3 -5 -3 -10 -15 -10 -26 0 -10 -5 -19 -10 -19 -6 0
-5 -12 3 -32 12 -29 16 -31 67 -33 30 -1 57 2 60 5 9 13 50 22 50 11 0 -6 -6
-11 -14 -11 -7 0 -19 -7 -26 -15 -8 -9 -23 -13 -40 -10 -25 4 -27 2 -22 -20 5
-26 -23 -69 -38 -60 -4 3 -11 -2 -14 -11 -5 -14 -17 -16 -72 -11 -41 3 -72 11
-84 22 -21 19 -70 14 -91 -11 -6 -8 -17 -14 -24 -14 -7 0 -18 -7 -25 -15 -7
-8 -20 -15 -29 -15 -9 0 -29 -7 -45 -15 -15 -8 -39 -15 -52 -15 -13 0 -24 -4
-24 -10 0 -5 -7 -10 -15 -10 -8 0 -25 -6 -36 -12 -16 -10 -23 -10 -26 -2 -5
15 -73 -4 -80 -23 -3 -8 -23 -13 -47 -14 l-41 -1 43 -10 c23 -5 42 -14 42 -20
0 -5 11 -19 25 -30 14 -11 22 -24 19 -30 -4 -7 7 -8 34 -3 37 6 40 5 35 -14
-4 -15 1 -22 21 -27 20 -5 26 -13 26 -33 l0 -26 19 24 c16 22 23 23 67 17 27
-3 52 -13 57 -21 4 -9 12 -13 17 -10 5 3 14 -11 20 -30 6 -19 16 -35 21 -35 5
0 9 -7 9 -15 0 -19 -23 -19 -59 0 -16 8 -31 11 -35 8 -3 -4 -12 2 -20 12 -16
23 -36 12 -36 -20 0 -48 113 -91 217 -82 51 4 67 1 83 -13 12 -10 16 -20 11
-22 -6 -1 -8 -13 -5 -25 4 -16 14 -23 30 -23 14 0 24 -6 24 -14 0 -8 3 -21 6
-30 5 -13 1 -15 -22 -10 -24 4 -31 1 -42 -23 -10 -22 -10 -30 2 -41 11 -11 21
-11 57 -1 24 7 47 12 51 11 4 -1 5 5 2 13 -4 8 -1 15 5 15 6 0 11 -6 11 -14 0
-20 8 -24 73 -34 34 -5 54 -5 51 0 -4 6 4 8 17 6 16 -2 29 -14 38 -35 14 -32
45 -45 53 -21 3 8 12 8 34 1 l29 -11 -35 -14 c-42 -17 -91 -16 -125 2 -18 10
-28 11 -36 3 -16 -16 6 -51 35 -59 43 -10 134 3 165 25 33 24 54 26 102 10 45
-16 46 -17 24 -33 -17 -12 -17 -14 3 -34 27 -27 27 -28 3 -35 -23 -6 -39 -63
-22 -80 18 -18 13 -25 -26 -30 -21 -4 -71 -11 -110 -17 -68 -11 -75 -10 -107
9 -18 12 -45 21 -60 21 -14 0 -26 5 -26 10 0 6 -6 10 -13 10 -22 0 -39 54 -26
83 16 34 5 59 -23 55 -21 -3 -23 -9 -24 -60 -1 -52 2 -61 32 -97 19 -22 44
-41 56 -43 35 -5 34 -28 -1 -28 -16 0 -32 -4 -35 -9 -3 -5 -27 -12 -53 -16
-37 -5 -48 -4 -55 9 -10 18 -43 21 -53 5 -4 -6 1 -16 10 -23 16 -11 11 -14
-36 -24 -54 -10 -54 -10 -89 24 -36 35 -70 45 -70 21 0 -7 14 -23 30 -35 33
-25 40 -59 14 -69 -9 -3 -25 -1 -35 5 -10 7 -32 12 -48 12 -35 0 -61 31 -61
72 0 16 -4 28 -10 28 -26 0 1 -137 30 -155 11 -7 4 -25 -9 -25 -16 0 -71 64
-71 81 0 19 -33 35 -50 24 -6 -4 -5 -16 5 -34 10 -20 11 -31 3 -39 -15 -15 -1
-32 27 -32 37 0 39 -17 4 -34 -18 -9 -36 -16 -42 -16 -5 0 -32 20 -59 45 -28
25 -56 45 -64 45 -7 0 -21 11 -30 25 -9 14 -23 25 -30 25 -8 0 -14 5 -14 11 0
6 -12 9 -27 7 -41 -4 -43 -36 -4 -49 26 -9 30 -15 25 -35 -5 -19 0 -27 31 -45
26 -16 35 -27 32 -40 -5 -20 2 -24 78 -34 63 -9 67 -12 54 -36 -14 -26 -4 -58
13 -41 17 17 39 14 68 -8 20 -15 21 -20 8 -20 -24 0 -33 -20 -16 -37 13 -12
20 -12 54 6 53 28 90 31 86 9 -4 -22 11 -23 29 -2 12 14 14 14 26 -2 18 -25
44 -1 37 34 -4 23 0 29 34 45 71 32 113 16 72 -28 -13 -14 -26 -22 -30 -20 -4
2 -16 -2 -26 -10 -18 -13 -18 -14 9 -20 41 -11 73 8 98 57 12 24 22 44 23 45
0 1 13 4 27 8 23 6 30 1 49 -31 19 -30 21 -40 11 -56 -6 -10 -9 -23 -6 -28 11
-18 36 3 61 52 24 48 26 49 66 46 51 -4 57 -18 21 -49 -15 -13 -57 -54 -94
-91 -48 -48 -78 -70 -108 -78 -30 -8 -41 -16 -41 -30 0 -23 4 -24 32 -9 15 8
23 8 32 -1 15 -15 -36 -60 -68 -60 -29 0 -39 -10 -25 -27 14 -16 47 -17 79 0
21 11 27 11 36 -2 18 -23 48 -6 39 22 -24 71 2 123 105 207 36 30 69 60 73 67
15 24 47 35 63 22 11 -9 18 -9 26 -1 7 7 22 12 35 12 19 0 23 -5 23 -34 0 -18
-7 -39 -15 -46 -20 -16 -19 -40 0 -40 23 0 63 50 69 86 8 37 32 61 75 74 30 8
31 7 31 -20 0 -16 4 -31 10 -35 12 -8 50 16 50 32 0 14 62 43 91 43 10 0 33 9
51 20 38 23 60 25 89 8 14 -8 23 -9 25 -3 14 34 22 37 84 30 l61 -7 -38 -26
c-21 -15 -44 -25 -50 -24 -7 2 -13 -2 -13 -8 0 -6 -6 -17 -13 -23 -7 -7 -41
-38 -75 -70 -37 -35 -68 -57 -77 -54 -7 3 -19 0 -25 -8 -8 -10 -8 -14 1 -17 7
-2 1 -15 -16 -33 -15 -17 -36 -41 -47 -54 -26 -34 -123 -41 -154 -12 -27 25
-57 33 -88 25 -35 -8 -33 -31 3 -39 16 -3 31 -14 33 -23 3 -9 26 -27 51 -40
26 -13 47 -26 47 -30 -1 -10 -48 -62 -56 -62 -4 0 -16 7 -25 16 -14 12 -16 21
-9 34 7 13 5 21 -5 30 -18 15 -35 5 -35 -21 0 -13 -7 -19 -24 -19 -24 0 -41
-23 -30 -41 3 -5 17 -9 31 -9 21 0 23 -2 13 -15 -10 -12 -9 -16 4 -21 24 -9 2
-31 -44 -45 -23 -7 -40 -19 -43 -30 -4 -16 -15 -19 -72 -19 -75 0 -122 20
-131 57 -4 16 -14 23 -30 23 -38 0 -42 -29 -8 -57 l29 -24 -42 6 c-34 5 -43 4
-43 -8 0 -26 37 -50 66 -43 40 10 134 -4 134 -19 0 -8 -8 -16 -19 -20 -10 -3
-26 -14 -36 -25 -14 -16 -15 -20 -4 -24 18 -6 89 -17 112 -17 21 0 22 -7 0
-31 -21 -23 -44 -23 -76 2 -14 11 -29 20 -35 20 -5 0 -19 9 -32 20 -30 26 -45
21 -45 -16 0 -25 4 -29 32 -32 17 -2 34 -10 37 -18 10 -26 -91 -19 -129 10
-26 20 -39 23 -78 19 -45 -5 -58 -18 -37 -39 5 -5 13 -27 18 -49 7 -36 11 -40
40 -40 22 -1 43 -11 69 -36 21 -20 45 -41 53 -47 48 -37 59 -49 65 -69 4 -17
-1 -24 -26 -37 -22 -11 -36 -13 -49 -6 -10 6 -23 10 -29 10 -17 0 -13 -28 6
-39 15 -8 15 -11 -8 -35 -13 -15 -48 -38 -77 -52 l-53 -26 -24 22 c-30 28 -62
21 -45 -10 6 -11 20 -20 30 -20 11 0 20 -6 20 -14 0 -27 22 -29 72 -5 41 19
54 21 79 12 27 -10 31 -9 51 19 13 17 38 45 56 64 17 18 32 41 32 51 1 19 22
53 34 53 3 0 6 -7 6 -15 0 -20 9 -19 45 5 36 24 73 25 103 4 22 -15 25 -14 61
18 63 55 160 128 169 128 5 0 18 -11 30 -25 12 -14 26 -25 30 -25 20 0 79 35
112 66 31 29 41 33 80 30 64 -4 120 -26 120 -48 0 -22 13 -23 44 -3 20 13 25
13 42 0 10 -8 26 -15 35 -15 9 0 22 -6 28 -14 18 -21 -24 -46 -76 -46 -31 0
-43 -4 -43 -14 0 -21 18 -29 57 -28 18 1 33 -1 33 -4 0 -5 -51 -73 -83 -110
l-18 -22 -42 20 c-61 30 -95 58 -101 84 -7 28 -24 31 -33 7 -4 -10 -13 -23
-21 -29 -23 -17 -11 -49 20 -50 15 -1 34 -7 43 -14 13 -11 11 -15 -17 -34 -18
-11 -32 -25 -32 -31 1 -19 34 -16 65 6 28 20 34 20 60 8 l30 -14 -37 -53 c-35
-49 -40 -52 -68 -46 -17 4 -41 13 -53 21 -16 10 -34 13 -63 8 -47 -8 -54 -32
-12 -40 41 -9 57 -20 57 -41 0 -13 7 -19 23 -18 12 0 22 -2 22 -6 0 -14 -79
-78 -124 -100 -50 -25 -67 -47 -48 -59 8 -5 5 -13 -9 -24 -11 -10 -24 -15 -29
-12 -6 3 -7 0 -4 -8 3 -9 -7 -20 -29 -31 -46 -21 -47 -21 -97 15 -33 24 -47
29 -59 22 -27 -17 -84 -2 -128 33 -23 19 -46 34 -51 34 -5 0 -15 7 -22 15 -16
19 -56 20 -63 1 -6 -14 31 -46 53 -46 15 0 60 -31 60 -41 0 -17 -28 -9 -93 25
-42 22 -70 30 -78 25 -11 -7 -8 -13 12 -31 25 -23 34 -29 97 -69 35 -23 35
-23 -10 -73 -10 -11 -18 -23 -18 -28 0 -4 -6 -8 -13 -8 -24 0 -97 -54 -97 -72
0 -15 5 -17 28 -12 15 4 29 11 30 16 2 4 13 8 24 8 27 0 75 36 83 61 4 12 14
30 24 42 42 52 51 57 95 55 41 -3 43 -4 35 -26 -12 -30 13 -40 46 -18 33 21
32 9 -2 -26 -23 -24 -24 -28 -9 -34 13 -5 15 -14 11 -35 -6 -24 -3 -31 17 -38
20 -8 21 -10 6 -16 -9 -4 -14 -13 -11 -21 7 -19 -14 -18 -25 2 -7 13 -16 11
-60 -17 -55 -34 -65 -45 -33 -36 22 5 37 -18 19 -29 -7 -5 -8 -2 -3 6 6 10 4
12 -10 7 -9 -4 -23 -3 -29 1 -22 17 -56 21 -56 6 0 -8 7 -14 16 -14 9 0 13 -5
10 -12 -3 -7 -9 -21 -12 -30 -7 -19 -29 -24 -38 -9 -3 5 3 11 14 14 11 3 20
11 20 19 0 9 -2 10 -8 1 -4 -6 -19 -14 -35 -18 -20 -5 -28 -3 -33 10 -5 13 -9
14 -15 3 -6 -9 -11 -10 -16 -2 -10 15 -83 26 -83 13 0 -6 5 -7 10 -4 6 3 10 0
10 -9 0 -8 -5 -16 -12 -18 -17 -6 -2 -25 26 -32 14 -3 38 -11 53 -18 15 -6 31
-12 36 -12 4 -1 7 -5 7 -11 0 -5 -15 -10 -33 -10 -20 0 -31 -5 -29 -12 3 -20
-7 -15 -34 15 l-25 27 4 -32 c2 -18 -1 -34 -7 -36 -18 -6 -46 5 -46 18 0 13
-67 31 -78 21 -3 -3 0 -6 6 -6 7 0 12 -4 12 -10 0 -5 -9 -10 -20 -10 -11 0
-20 -4 -20 -10 0 -5 -9 -10 -19 -10 -11 0 -21 -3 -23 -7 -9 -21 -71 -53 -102
-53 -19 0 -38 -5 -42 -11 -3 -6 -15 -8 -26 -6 -25 7 -77 -11 -103 -36 -39 -37
-78 -51 -140 -50 -42 1 -65 -3 -77 -14 -12 -11 -51 -19 -120 -25 -61 -5 -105
-13 -110 -21 -6 -9 -10 -9 -18 3 -5 8 -10 10 -10 3 0 -6 -24 -16 -52 -23 -29
-6 -60 -14 -68 -18 -8 -3 -35 -11 -60 -17 -25 -6 -44 -16 -43 -23 2 -6 -4 -9
-12 -5 -9 3 -24 -2 -35 -12 -11 -10 -26 -15 -34 -12 -9 4 -20 -1 -26 -11 -8
-14 -11 -15 -19 -3 -8 12 -12 12 -26 -2 -9 -10 -20 -15 -25 -12 -5 3 -24 -3
-42 -13 -18 -10 -63 -31 -100 -47 -38 -15 -68 -32 -68 -37 0 -4 -6 -8 -14 -8
-8 0 -18 -9 -21 -20 -4 -13 -15 -20 -30 -20 -14 0 -29 -9 -35 -20 -6 -11 -17
-20 -25 -20 -8 0 -15 -6 -15 -14 0 -16 -24 -28 -43 -20 -16 6 -50 -23 -61 -51
-5 -13 -10 -15 -13 -7 -7 17 -24 15 -38 -5 -7 -9 -23 -17 -36 -18 -18 -1 -24
-8 -25 -26 -1 -49 -50 -90 -69 -59 -12 19 -45 -9 -45 -38 -1 -28 -28 -97 -29
-74 -1 17 -47 -12 -83 -52 -102 -115 -199 -215 -231 -239 -21 -15 -35 -32 -32
-37 14 -23 -15 -8 -38 20 -14 17 -33 30 -41 30 -20 0 -20 -9 -2 -29 23 -25 25
-81 4 -81 -7 0 -26 -21 -42 -47 -17 -25 -58 -74 -92 -107 -182 -179 -250 -243
-273 -258 -27 -18 -61 -15 -96 8 -20 14 -55 19 -55 8 0 -3 9 -17 20 -31 33
-43 26 -58 -38 -81 -72 -27 -219 -108 -249 -138 -8 -8 -33 -24 -54 -35 -21
-10 -39 -23 -39 -28 0 -5 -33 -22 -72 -37 -40 -15 -82 -33 -93 -40 -11 -7 -45
-20 -75 -28 -77 -20 -122 -38 -223 -89 -48 -25 -120 -52 -160 -61 -40 -9 -99
-26 -132 -37 -60 -19 -142 -37 -290 -63 -245 -43 -886 -52 -1178 -16 -86 11
-179 20 -205 20 -76 0 -315 54 -395 89 -27 11 -56 21 -65 21 -23 0 -156 32
-162 39 -6 7 -121 69 -175 94 -22 10 -51 24 -65 32 -14 8 -48 25 -77 39 -28
14 -54 29 -57 34 -3 6 -43 32 -89 58 -45 27 -87 53 -94 59 -6 7 -37 24 -70 39
-32 16 -65 32 -73 37 -26 16 -53 27 -106 42 -51 15 -61 22 -138 92 -21 19 -41
35 -45 35 -12 0 -50 31 -128 105 -41 39 -91 78 -111 89 -21 10 -45 25 -55 34
-9 8 -27 20 -40 26 -12 7 -22 16 -23 21 -3 42 -88 147 -111 138 -7 -3 -13 2
-13 11 0 20 -55 76 -75 76 -8 0 -21 11 -27 25 -9 19 -19 25 -45 25 -21 0 -36
6 -40 16 -3 8 -12 13 -20 9 -11 -4 -13 -1 -9 12 6 14 5 15 -5 6 -14 -14 -49 0
-49 20 0 13 -36 39 -57 43 -7 1 -38 17 -70 34 -106 59 -118 64 -143 62 -16 -2
-33 5 -45 17 -10 12 -29 21 -42 21 -12 0 -23 5 -23 10 0 6 5 10 10 10 6 0 10
5 10 10 0 15 -47 12 -53 -2 -3 -7 -6 -3 -6 9 -1 15 -6 21 -15 17 -7 -3 -20 2
-29 10 -9 9 -31 16 -49 17 -40 1 -94 16 -64 18 23 1 14 13 -11 15 -24 2 -83
29 -83 38 0 4 -18 11 -40 14 -22 4 -37 10 -34 15 3 5 -1 6 -9 4 -7 -3 -22 3
-32 15 -10 11 -24 20 -32 20 -7 0 -13 5 -13 10 0 6 -18 10 -39 10 -22 0 -41 5
-44 13 -3 7 -21 11 -46 11 -29 -2 -41 2 -41 12 0 8 -6 14 -12 15 -7 0 -4 4 7
9 16 7 14 8 -12 7 -17 -1 -29 -5 -26 -9 2 -5 -1 -8 -6 -8 -6 0 -12 -8 -12 -17
-1 -17 -2 -17 -6 0 -3 10 -22 25 -44 33 -25 11 -39 23 -39 34 0 13 -10 19 -37
22 -21 3 -41 0 -45 -5 -4 -7 -16 -4 -33 7 -15 10 -35 15 -48 12 -12 -3 -16 -3
-9 0 14 7 16 34 2 34 -5 0 -24 16 -43 35 -24 24 -40 33 -51 29 -19 -7 -165 23
-180 37 -6 5 -18 9 -28 9 -11 0 -38 9 -61 20 -23 11 -58 23 -79 26 -26 5 -35
10 -31 20 4 11 -5 14 -36 14 -23 0 -41 4 -41 9 0 5 -19 13 -42 17 -38 6 -40 8
-18 14 22 5 23 7 7 13 -10 4 -27 7 -38 7 -10 0 -19 4 -19 8 0 17 -37 51 -46
43 -17 -16 -103 -20 -115 -5 -10 12 -1 14 50 14 34 0 61 4 61 10 0 6 -33 10
-80 10 -47 0 -80 -4 -80 -10 0 -5 -18 -10 -40 -10 -22 0 -40 5 -40 10 0 6 9
10 20 10 20 0 20 0 1 19 -13 13 -18 27 -14 42 4 15 3 20 -5 15 -7 -4 -12 -21
-12 -39 l0 -31 -34 37 c-18 20 -39 37 -45 37 -7 0 -11 28 -11 79 l0 79 -69 0
-70 -1 -4 -36 c-3 -21 -3 -16 -2 12 l2 47 -58 0 c-32 0 -61 5 -64 10 -3 6 -1
10 5 10 6 0 8 5 5 10 -3 6 -14 10 -24 10 -11 0 -24 12 -31 30 -14 35 -18 36
-36 13 -12 -17 -13 -17 -14 -1 0 10 -9 22 -19 28 -25 13 -74 13 -66 0 3 -5 17
-10 30 -10 13 0 27 -4 30 -10 4 -6 -10 -10 -34 -10 l-41 0 0 45 c0 25 -2 45
-4 45 -2 0 -11 3 -20 6 -12 5 -16 0 -16 -20 0 -21 -5 -26 -22 -25 -21 0 -21 1
-4 8 31 12 0 25 -51 22 -26 -1 -43 2 -43 8 0 6 16 11 36 11 36 0 73 23 54 35
-5 3 -10 1 -10 -4 0 -6 -18 -11 -40 -11 -22 0 -40 5 -40 10 0 6 -4 10 -10 10
-5 0 -10 -7 -10 -16 0 -8 -5 -12 -10 -9 -6 4 -8 15 -5 24 3 11 -3 25 -15 36
-19 17 -22 17 -61 2 -43 -17 -43 -17 -90 26 -10 9 -24 17 -29 17 -5 0 -10 5
-10 10 0 6 2 10 4 10 2 0 20 7 39 15 35 14 37 14 61 -10 24 -24 56 -34 56 -17
0 4 -9 14 -20 22 -33 24 -23 30 45 23 56 -5 65 -4 65 11 0 11 -9 16 -30 16
-37 0 -38 12 -5 38 14 11 25 27 25 35 0 18 50 32 78 23 11 -4 24 0 32 9 7 9 8
15 2 15 -6 0 -12 -6 -14 -12 -3 -9 -10 -8 -23 5 -21 21 -17 26 48 55 34 15 37
20 37 58 0 44 10 54 56 54 13 0 24 4 24 8 0 5 16 14 35 22 23 9 32 17 25 24
-6 6 -3 14 8 23 13 11 14 15 4 20 -8 3 -25 18 -39 34 -14 16 -29 26 -34 23
-10 -6 -31 31 -22 40 3 3 1 6 -6 6 -19 0 -4 70 17 87 9 7 34 13 55 13 30 0 37
4 37 20 0 15 7 20 25 20 28 0 75 20 75 32 0 4 9 8 20 8 11 0 20 3 20 8 0 4 16
24 35 45 31 34 34 40 20 53 -8 9 -15 20 -15 26 0 5 -7 7 -16 4 -8 -3 -13 -2
-10 2 10 17 -82 50 -157 57 -46 4 -77 12 -77 19 0 6 -9 -4 -20 -21 -20 -34
-44 -46 -33 -17 4 10 0 22 -9 28 -9 7 -18 25 -20 41 -3 28 -15 47 -74 112 -24
26 -106 43 -118 25 -4 -6 -13 -9 -21 -5 -8 3 -15 1 -15 -5 0 -6 -13 -15 -30
-21 -16 -5 -30 -15 -30 -21 0 -8 -15 -9 -46 -4 -34 5 -45 4 -40 -5 4 -6 1 -11
-8 -11 -9 0 -16 4 -16 10 0 12 45 24 70 17 11 -3 21 1 24 9 3 8 1 14 -4 14 -6
0 -10 4 -10 9 0 4 16 6 36 4 27 -3 42 2 65 22 17 14 36 25 42 25 7 0 4 7 -6
14 -13 10 -14 15 -5 18 7 3 -2 11 -20 19 -18 7 -32 19 -32 25 0 15 -33 24 -92
24 -27 0 -48 5 -48 10 0 6 -4 10 -10 10 -5 0 -10 -13 -10 -30 0 -37 -21 -40
-44 -5 -9 14 -23 25 -31 25 -8 0 -15 4 -15 9 0 5 -3 16 -6 25 -5 13 2 16 45
16 30 0 51 4 51 11 0 7 -17 10 -45 7 -31 -2 -45 1 -45 9 0 7 -6 13 -13 13 -8
0 -22 18 -32 40 -10 21 -20 39 -24 38 -24 -3 -31 6 -31 40 -1 28 -7 41 -25 55
-22 15 -25 16 -25 2 0 -8 -7 -15 -16 -15 -14 0 -15 10 -9 78 4 42 11 79 16 80
14 5 11 39 -4 45 -26 10 -67 -5 -67 -24 0 -27 -14 -24 -49 12 -40 39 -39 49 5
49 23 0 33 4 28 11 -3 6 -17 8 -29 5 -28 -7 -42 9 -26 28 9 10 7 15 -6 20 -12
5 -25 -2 -43 -24 -32 -39 -46 -38 -86 5 l-32 35 25 0 c13 0 21 4 18 10 -3 6
-15 10 -26 10 -14 0 -19 7 -19 30 0 28 -3 30 -37 30 -33 0 -35 1 -18 13 29 22
8 37 -51 37 -41 0 -54 4 -54 15 0 11 11 15 40 15 36 0 40 3 40 25 0 23 -4 25
-40 25 -29 0 -40 -4 -40 -15 0 -18 1 -18 -44 0 -24 10 -36 22 -36 35 0 11 -10
26 -23 35 -33 21 -183 40 -211 26 -22 -11 -272 -21 -254 -10 17 11 -21 19 -87
19 -35 0 -67 5 -70 10 -8 13 -74 13 -115 -1 -21 -8 -34 -8 -39 -2 -3 6 -21 18
-40 28 -25 13 -35 14 -41 5 -6 -9 -9 -9 -15 0 -4 7 -2 16 6 21 19 11 9 18 -42
28 -24 5 -53 12 -63 16 -14 6 -17 5 -12 -3 5 -8 -2 -10 -26 -6 -42 8 -88 27
-88 36 0 5 -8 8 -18 8 -25 0 -62 45 -62 75 0 22 -4 25 -40 25 -45 0 -51 -13
-17 -41 l22 -18 -52 -1 c-29 0 -53 2 -53 5 0 3 11 17 25 31 14 14 25 29 25 34
0 6 9 10 20 10 11 0 20 5 20 10 0 9 -14 14 -33 11 -4 -1 -4 7 1 16 5 10 7 24
5 31 -3 6 0 12 6 12 6 0 11 -4 11 -10 0 -5 9 -1 20 10 11 11 31 20 43 20 13 0
37 6 53 14 16 8 50 17 77 21 38 5 47 3 47 -9 0 -8 9 -20 20 -26 11 -6 20 -20
20 -31 0 -16 4 -18 28 -13 15 4 37 18 49 31 18 19 26 21 47 13 14 -5 33 -7 41
-4 8 4 15 1 15 -5 0 -16 19 -14 37 5 17 17 76 12 101 -9 10 -7 16 -8 20 0 4 6
26 12 49 15 32 2 43 0 47 -12 3 -11 6 -10 11 6 7 23 12 23 193 25 56 0 102 5
102 10 0 5 18 9 40 9 22 0 40 4 40 9 0 14 129 23 181 13 59 -11 102 -5 127 18
11 10 37 20 58 22 37 3 39 5 36 32 -2 16 -15 38 -28 49 -13 10 -24 24 -24 31
0 13 -67 13 -172 2 -15 -1 -25 1 -22 5 2 5 -12 11 -33 14 -21 3 -51 12 -66 20
-16 8 -35 15 -42 15 -8 0 -18 8 -24 18 -8 14 -13 15 -30 5 -19 -12 -20 -11
-16 20 3 17 3 26 -1 19 -3 -6 -10 -10 -15 -6 -5 3 -9 -2 -9 -10 0 -12 -10 -16
-39 -16 -22 0 -41 -5 -44 -12 -3 -10 -9 -10 -26 0 -25 15 -48 16 -54 2 -3 -6
-4 -5 -3 2 3 14 55 30 74 23 6 -2 12 2 12 10 0 11 13 15 48 16 66 2 79 4 152
24 87 24 124 30 117 19 -9 -15 106 -12 121 3 10 10 18 11 27 3 9 -7 16 -6 25
5 12 14 16 12 41 -15 30 -32 73 -39 121 -21 21 8 243 24 308 22 14 0 35 5 47
11 21 11 121 2 109 -9 -10 -11 16 -33 38 -33 12 0 42 9 66 21 59 28 149 40
234 29 39 -4 98 -7 131 -5 32 2 65 0 73 -4 7 -4 57 -2 110 6 53 7 135 15 181
18 47 3 88 8 92 11 4 2 40 7 81 10 40 3 84 9 98 13 14 5 56 4 95 -1 50 -7 76
-6 95 3 14 6 68 15 121 20 69 5 106 13 135 30 21 12 57 22 79 23 22 1 46 5 52
9 9 6 11 3 7 -7 -3 -9 -16 -16 -29 -16 -14 0 -33 -13 -48 -32 -98 -126 -142
-146 -259 -122 -125 26 -177 13 -249 -63 -73 -76 -87 -133 -35 -133 16 0 44
18 78 50 78 74 120 94 199 94 63 1 68 -1 99 -34 32 -34 35 -35 106 -35 40 0
76 4 81 8 8 8 -25 41 -49 49 -20 7 23 58 81 95 54 35 55 35 115 24 69 -12 83
-15 145 -31 70 -17 83 -5 36 35 -22 19 -43 34 -47 35 -5 0 -26 8 -48 17 -41
18 -61 43 -35 43 8 0 15 6 16 13 0 10 2 10 6 0 7 -18 32 -16 39 2 4 8 14 15
23 15 14 0 14 -2 1 -10 -13 -8 -12 -10 3 -10 10 0 20 7 24 15 3 9 19 23 35 31
l29 15 -23 18 c-32 24 -100 42 -160 43 -28 0 -79 8 -115 18 -43 12 -105 18
-185 19 -67 1 -144 6 -172 12 -50 9 -126 16 -256 24 -166 10 -409 41 -449 57
-14 6 -44 12 -66 14 -88 7 -140 16 -150 24 -5 4 -46 13 -90 20 -99 15 -104 16
-135 27 -14 6 -47 11 -75 12 -30 1 -73 13 -111 32 -34 16 -68 29 -76 29 -7 0
-24 7 -37 16 -17 12 -33 15 -64 9 -60 -10 -85 -9 -151 8 -33 9 -64 13 -70 9
-34 -20 -236 15 -236 41 0 5 -26 6 -62 2 -82 -10 -112 -9 -116 4 -2 6 -12 11
-22 11 -10 0 -22 4 -25 10 -3 5 -31 8 -62 6 -31 -3 -63 -1 -72 4 -9 5 -23 11
-32 13 -21 7 -33 55 -18 73 6 8 22 14 35 14 13 0 24 5 24 12 0 7 6 6 18 -4 26
-23 72 -32 72 -14 0 16 46 28 105 28 187 0 178 1 209 -31 23 -24 33 -28 47
-21 10 6 27 10 38 10 10 0 21 6 23 13 6 16 369 20 380 4 4 -7 15 -7 35 1 23
10 50 14 126 21 5 1 6 5 3 9 -6 10 60 9 70 0 3 -4 23 0 43 8 92 40 204 56 214
32 4 -10 8 -9 16 2 10 13 12 13 21 0 11 -17 126 -25 135 -9 8 11 55 12 55 1 0
-16 173 -14 205 2 30 14 94 15 127 1 9 -3 29 0 45 8 17 9 73 17 143 21 63 3
131 10 151 16 20 6 87 11 149 13 85 2 115 6 123 17 18 22 31 25 165 27 101 1
127 4 142 18 16 14 30 16 77 10 87 -11 159 -7 192 10 17 8 51 15 76 15 30 0
52 6 63 17 16 16 17 16 20 0 2 -9 11 -17 21 -17 26 0 135 30 141 39 6 9 46 19
110 26 25 3 47 10 48 15 2 6 12 10 23 10 10 0 19 5 19 10 0 6 17 10 38 10 20
0 44 5 52 10 10 6 11 10 3 10 -7 0 -13 4 -13 9 0 12 75 40 125 45 22 3 73 10
113 15 41 6 78 8 84 5 6 -4 8 -2 4 4 -3 6 -2 13 4 17 5 3 10 15 10 26 0 19 35
28 42 10 2 -5 19 -3 38 5 27 12 31 17 20 24 -11 7 -6 13 22 25 21 8 42 15 48
15 5 0 10 4 10 8 0 10 77 32 130 37 l35 4 -38 -8 c-59 -12 -57 -23 3 -19 37 2
54 7 52 16 -1 7 9 12 28 12 16 0 30 5 30 10 0 6 18 17 40 26 22 9 40 22 40 29
0 8 17 16 40 20 22 4 40 11 40 16 0 5 14 9 30 9 20 0 30 5 30 15 0 8 6 15 13
15 16 0 49 33 46 46 -4 17 13 44 27 44 8 0 14 -4 14 -9 0 -8 147 -38 164 -33
4 2 13 -1 20 -6 6 -5 40 -12 74 -16 35 -3 80 -13 100 -22 21 -9 46 -20 57 -24
87 -33 90 -38 50 -64 -32 -21 -31 -30 0 -44 38 -18 79 -15 129 9 42 21 46 21
92 6 27 -8 65 -18 84 -22 19 -4 58 -18 85 -30 91 -42 197 -85 206 -85 31 0 0
25 -175 143 -22 15 -75 39 -117 52 -42 13 -93 35 -113 49 -26 17 -49 24 -76
23 -33 -1 -94 19 -162 54 -10 5 -57 9 -105 9 -142 0 -166 14 -85 50 36 16 44
23 32 30 -12 6 -15 24 -14 71 1 34 -1 57 -5 50 -8 -12 -41 -5 -41 9 0 11 30
21 41 14 5 -3 9 2 9 10 0 9 -7 16 -15 16 -18 0 -19 19 -1 43 14 18 86 25 86 7
0 -18 50 -11 72 10 12 11 29 20 38 20 9 0 22 6 29 13 11 10 14 10 18 0 3 -7
12 -13 21 -13 15 1 15 2 0 11 -10 5 -18 17 -18 24 0 8 8 15 18 16 15 0 14 1
-2 8 -19 7 -19 8 2 13 11 3 23 1 25 -5 2 -8 8 -7 19 3 8 8 33 24 56 35 23 11
42 27 42 36 0 9 10 21 23 27 l22 11 -25 1 c-18 1 -11 6 25 16 30 9 70 13 102
9 45 -4 54 -2 63 15 9 17 8 20 -10 20 -33 0 -21 32 18 44 12 4 22 12 22 17 0
5 18 9 41 9 22 0 38 4 35 8 -3 5 9 6 27 4 32 -5 32 -5 13 16 -18 21 -18 22 9
32 22 8 30 8 37 -2 6 -10 12 -8 26 8 10 11 29 24 44 27 15 4 36 21 48 38 13
17 28 28 36 25 8 -3 14 -1 14 4 0 6 9 10 20 10 11 0 20 -5 20 -12 0 -7 5 -6
13 4 6 9 25 19 40 22 21 5 27 11 23 24 -8 23 35 42 95 42 26 0 51 5 54 10 9
14 45 12 45 -2 0 -7 5 -5 11 5 7 12 17 16 30 12 12 -4 21 -1 25 8 3 8 24 18
47 22 23 4 51 9 61 12 10 2 24 11 31 20 9 12 31 16 103 16 71 0 92 4 92 14 0
11 4 11 22 2 14 -8 18 -14 11 -16 -20 -7 4 -43 27 -43 11 0 20 5 20 10 0 6 7
10 15 10 21 0 19 18 -2 22 -13 3 -6 10 22 22 33 14 55 16 123 11 45 -4 82 -10
82 -13 0 -4 -37 -6 -82 -5 -81 1 -82 1 -28 -8 55 -9 181 -2 190 10 19 25 160
54 160 33z m240 4 c0 -3 -4 -8 -10 -11 -5 -3 -10 -1 -10 4 0 6 5 11 10 11 6 0
10 -2 10 -4z m-907 -33 c-7 -2 -21 -2 -30 0 -10 3 -4 5 12 5 17 0 24 -2 18 -5z
m1738 -169 c12 -14 11 -16 -5 -13 -11 2 -21 10 -24 17 -5 17 13 15 29 -4z
m495 -214 c9 0 12 -4 9 -10 -10 -17 -55 -12 -55 6 0 11 5 14 16 10 9 -3 22 -6
30 -6z m1134 -580 c0 -22 -4 -40 -10 -40 -5 0 -10 18 -10 40 0 22 5 40 10 40
6 0 10 -18 10 -40z m27 -27 c-3 -10 -5 -2 -5 17 0 19 2 27 5 18 2 -10 2 -26 0
-35z m-5267 -73 c0 -13 -28 -25 -38 -16 -3 4 0 11 8 16 20 13 30 12 30 0z
m-140 -50 c0 -5 -4 -10 -10 -10 -5 0 -10 5 -10 10 0 6 5 10 10 10 6 0 10 -4
10 -10z m-460 -220 c0 -5 -7 -10 -16 -10 -8 0 -12 5 -9 10 3 6 10 10 16 10 5
0 9 -4 9 -10z m5965 0 c-3 -5 -10 -10 -16 -10 -5 0 -9 5 -9 10 0 6 7 10 16 10
8 0 12 -4 9 -10z m-6085 -14 c0 -3 -4 -8 -10 -11 -5 -3 -10 -1 -10 4 0 6 5 11
10 11 6 0 10 -2 10 -4z m9170 -669 c0 6 26 10 59 9 43 -1 57 -4 50 -12 -13
-15 -1 -44 18 -44 9 0 22 -8 29 -17 12 -17 13 -17 14 -1 0 9 -5 20 -10 23 -14
9 7 35 26 35 8 0 14 5 14 10 0 6 12 10 28 10 19 0 23 -3 13 -9 -8 -5 -9 -11
-3 -15 6 -3 13 -2 17 4 3 5 16 10 28 9 15 0 17 -2 7 -6 -8 -3 -17 -9 -20 -13
-3 -4 -20 -15 -37 -24 -39 -20 -41 -33 -9 -47 23 -11 24 -12 7 -30 -17 -19
-36 -24 -80 -21 -20 2 -21 4 -11 17 10 12 9 15 -6 15 -18 1 -18 1 1 15 18 14
17 15 -16 13 -34 -3 -36 -5 -32 -33 4 -27 0 -33 -31 -48 -20 -9 -36 -21 -36
-27 0 -5 -7 -7 -15 -4 -10 4 -15 0 -16 -12 -1 -17 -2 -17 -6 -1 -2 9 -8 17
-13 17 -5 0 -11 -8 -13 -17 -3 -11 -5 -8 -6 9 -1 33 -27 49 -58 37 -22 -8 -23
-6 -23 36 0 38 4 47 23 54 12 5 35 25 52 44 22 26 33 33 42 25 8 -7 13 -7 13
-1z m414 -11 c-4 -11 1 -13 18 -10 13 2 17 2 11 -2 -7 -3 -13 -12 -13 -20 0
-19 -10 -18 -26 3 -9 13 -9 22 -2 30 14 17 19 16 12 -1z m-724 -232 l25 -15
-25 7 c-14 3 -29 10 -34 15 -16 14 6 10 34 -7z m-205 -74 c3 -6 -4 -10 -17
-10 -18 0 -20 2 -8 10 19 12 18 12 25 0z m-428 -56 c-3 -3 -12 -4 -19 -1 -8 3
-5 6 6 6 11 1 17 -2 13 -5z m188 -26 l30 -3 -28 -13 c-18 -7 -26 -8 -22 -1 4
6 1 10 -6 8 -28 -3 -38 1 -33 16 4 10 10 12 18 6 6 -5 24 -11 41 -13z m85 -29
c0 -5 -4 -9 -8 -9 -5 0 -9 7 -9 15 0 8 4 12 9 9 4 -3 8 -9 8 -15z m-9850 -19
c0 -5 -5 -10 -11 -10 -5 0 -7 5 -4 10 3 6 8 10 11 10 2 0 4 -4 4 -10z m-2415
-130 c3 -5 1 -10 -4 -10 -6 0 -11 5 -11 10 0 6 2 10 4 10 3 0 8 -4 11 -10z
m11615 -210 c0 -5 -5 -10 -11 -10 -5 0 -7 5 -4 10 3 6 8 10 11 10 2 0 4 -4 4
-10z m174 -52 c-5 -8 0 -9 14 -6 27 7 27 3 3 -27 -17 -22 -20 -23 -40 -9 -27
19 -27 28 2 42 29 14 29 14 21 0z m179 -28 c3 -11 14 -20 25 -20 11 0 25 -7
32 -15 7 -8 16 -13 20 -10 5 3 11 1 14 -4 3 -4 19 -11 34 -14 19 -4 31 -14 35
-29 6 -22 7 -22 21 -3 14 19 15 19 11 -10 -2 -16 -4 -32 -5 -35 -2 -3 -2 -9
-1 -13 1 -5 -4 -7 -11 -4 -7 2 -12 10 -10 17 2 11 0 11 -12 1 -11 -9 -16 -9
-21 0 -4 6 -2 15 5 19 8 5 3 9 -14 12 -14 3 -26 4 -26 2 0 -1 -3 -10 -7 -20
-4 -12 -3 -15 5 -10 7 4 12 1 12 -8 0 -9 9 -16 21 -16 11 0 17 -4 14 -10 -9
-15 -45 -12 -51 5 -4 8 -10 13 -14 10 -14 -9 -41 7 -36 20 2 7 -5 15 -16 18
-13 4 -18 11 -15 20 4 10 -1 13 -20 9 -18 -3 -23 -9 -20 -23 3 -11 1 -19 -4
-19 -5 0 -9 5 -9 10 0 6 -7 10 -15 10 -8 0 -15 5 -15 10 0 6 -7 10 -15 10 -8
0 -15 6 -15 13 1 19 26 48 35 39 5 -4 5 -1 1 5 -9 17 8 50 18 34 10 -16 26
-14 26 4 0 22 17 18 23 -5z m263 -101 c4 -8 9 -7 15 2 4 7 11 10 15 6 5 -4 -5
-20 -21 -35 -21 -19 -27 -21 -22 -8 5 12 3 16 -5 14 -7 -3 -14 -15 -16 -27 -3
-18 -6 -20 -18 -10 -11 9 -12 15 -3 25 9 11 8 14 -1 14 -10 0 -10 3 0 15 15
18 46 20 56 4z m-13673 -76 c-7 -2 -13 -14 -13 -26 -1 -21 -1 -21 -11 -3 -11
19 2 37 26 35 6 0 4 -3 -2 -6z m13597 -3 c0 -5 -2 -10 -4 -10 -3 0 -8 5 -11
10 -3 6 -1 10 4 10 6 0 11 -4 11 -10z m-70 -20 c0 -5 -2 -10 -4 -10 -3 0 -8 5
-11 10 -3 6 -1 10 4 10 6 0 11 -4 11 -10z m123 -100 c-6 -7 -23 23 -23 40 0 8
6 4 13 -10 8 -14 12 -27 10 -30z m292 -6 c-9 -9 -18 -14 -21 -11 -9 9 6 27 22
27 13 0 13 -2 -1 -16z m-13878 0 c-3 -3 -12 -4 -19 -1 -8 3 -5 6 6 6 11 1 17
-2 13 -5z m13678 -4 c4 -6 11 -8 16 -5 5 4 9 -1 9 -9 0 -20 -19 -21 -26 -1 -4
8 -10 12 -15 9 -5 -3 -9 0 -9 5 0 14 17 14 25 1z m505 -5 c0 -8 -4 -15 -10
-15 -5 0 -7 7 -4 15 4 8 8 15 10 15 2 0 4 -7 4 -15z m689 -35 c33 -27 44 -31
50 -21 5 8 13 11 19 7 6 -3 15 0 19 9 9 16 118 29 138 17 6 -4 19 -8 30 -9 36
-6 45 -12 45 -33 0 -28 -20 -26 -21 3 -1 16 -2 18 -6 5 -2 -10 -13 -18 -24
-18 -11 0 -24 -11 -31 -26 -10 -22 -9 -27 5 -35 9 -5 14 -16 11 -24 -4 -10 0
-15 15 -15 12 0 21 -6 21 -12 0 -10 2 -10 8 -1 5 7 17 10 32 6 21 -6 18 -8
-20 -19 -33 -10 -46 -10 -51 -2 -5 8 -13 6 -25 -6 -9 -10 -25 -15 -35 -13 -11
3 -20 -1 -22 -12 -4 -12 -5 -10 -6 5 -1 21 -24 26 -49 10 -11 -6 -18 18 -13
47 0 4 -3 7 -9 7 -5 0 -10 6 -10 13 -1 6 -10 23 -21 36 -26 32 -43 16 -37 -38
2 -23 0 -41 -5 -41 -5 0 -5 -9 -2 -20 8 -26 -15 -27 -46 -1 l-24 19 26 29 c15
17 24 37 21 51 -5 33 -35 27 -56 -13 -17 -32 -46 -48 -46 -26 0 18 -64 81 -82
81 -26 0 -23 -35 4 -55 31 -21 13 -50 -32 -50 -34 0 -53 -24 -43 -52 3 -8 -4
-13 -20 -13 -14 0 -28 -7 -32 -17 -6 -17 -7 -17 -16 0 -6 10 -10 28 -9 40 4
43 0 57 -15 57 -9 0 -18 -6 -21 -14 -3 -8 -12 -12 -21 -9 -9 4 -19 -1 -25 -11
-13 -23 -32 -7 -59 48 -25 51 -24 58 6 86 22 21 35 24 110 24 47 0 85 2 85 6
0 3 16 6 36 6 19 0 38 4 42 10 4 5 23 11 41 12 19 2 36 4 37 5 1 1 22 2 47 1
34 0 53 -8 86 -34z m-14836 13 c-7 -2 -19 -2 -25 0 -7 3 -2 5 12 5 14 0 19 -2
13 -5z m15372 -22 c-5 -12 -3 -13 6 -4 21 21 39 3 39 -41 0 -24 -3 -45 -6 -49
-9 -9 -35 4 -28 14 3 5 -7 14 -21 19 -34 13 -122 13 -130 0 -12 -19 15 -50 43
-50 23 -1 24 -2 10 -11 -12 -7 -24 -7 -37 0 -10 6 -21 7 -25 4 -4 -4 -13 3
-22 15 -8 12 -20 20 -25 17 -5 -4 -12 1 -15 9 -3 9 -10 14 -14 11 -5 -3 -11
-1 -15 5 -3 5 -1 10 4 10 6 0 11 11 11 25 0 19 5 25 23 25 59 1 114 7 135 14
23 8 32 -8 10 -17 -8 -3 -8 -6 -2 -6 6 -1 19 8 29 19 20 22 40 17 30 -9z
m-1238 -3 c-3 -8 -6 -5 -6 6 -1 11 2 17 5 13 3 -3 4 -12 1 -19z m153 7 c5 3 4
-8 -1 -25 -11 -31 -36 -40 -45 -16 -3 8 3 24 13 35 10 12 19 17 21 11 2 -5 8
-8 12 -5z m-275 -14 l50 -19 -28 -11 c-16 -6 -38 -11 -49 -11 -11 0 -36 -9
-54 -21 -40 -24 -45 -13 -9 21 13 12 22 27 19 31 -6 10 3 29 14 29 4 0 30 -9
57 -19z m-230 -11 c3 -5 -1 -10 -10 -10 -9 0 -13 5 -10 10 3 6 8 10 10 10 2 0
7 -4 10 -10z m86 -17 c-12 -20 -14 -14 -5 12 4 9 9 14 11 11 3 -2 0 -13 -6
-23z m-21 -13 c0 -5 -4 -10 -10 -10 -5 0 -10 5 -10 10 0 6 5 10 10 10 6 0 10
-4 10 -10z m322 -100 c29 -34 63 -63 76 -66 12 -4 22 -10 22 -15 0 -14 -33
-11 -55 5 -27 18 -75 29 -75 17 0 -15 -32 0 -74 35 l-37 31 33 27 c18 14 38
26 45 26 6 0 36 -27 65 -60z m1438 50 c0 -5 -10 -10 -22 -10 -19 0 -20 2 -8
10 19 13 30 13 30 0z m-1316 -16 c4 -9 4 -19 2 -21 -8 -8 -26 8 -26 23 0 19
16 18 24 -2z m-317 0 c-3 -3 -12 -4 -19 -1 -8 3 -5 6 6 6 11 1 17 -2 13 -5z
m-111 -19 c18 -15 18 -15 -5 -13 -14 2 -26 9 -29 16 -5 17 10 15 34 -3z m790
-52 c-4 -4 -11 -1 -16 7 -16 25 -11 35 7 17 9 -9 13 -20 9 -24z m-655 -25 l64
-43 -75 -7 c-41 -4 -94 -10 -118 -14 l-43 -6 42 56 c23 31 47 56 54 56 6 0 41
-19 76 -42z m-186 -18 c-3 -5 -11 -10 -16 -10 -6 0 -7 5 -4 10 3 6 11 10 16
10 6 0 7 -4 4 -10z m502 -66 c-3 -3 -12 -4 -19 -1 -8 3 -5 6 6 6 11 1 17 -2
13 -5z m-274 -37 c21 14 55 10 49 -5 -4 -10 -17 -13 -48 -9 -40 4 -46 2 -69
-29 -36 -48 -62 -60 -84 -40 -10 9 -25 16 -34 16 -23 0 -22 -46 1 -59 13 -8 2
-10 -46 -11 -49 0 -69 5 -91 21 -16 12 -34 18 -40 15 -13 -9 -15 -56 -2 -56
11 0 114 -80 109 -85 -2 -2 -24 1 -49 6 -31 7 -56 21 -78 44 -18 19 -39 35
-46 35 -25 0 -21 23 9 72 24 37 37 48 58 48 15 0 29 4 32 8 2 4 40 9 82 11 43
1 83 5 88 9 16 9 141 18 144 9 2 -4 9 -4 15 0z m217 -47 c0 -5 -5 -10 -11 -10
-5 0 -7 5 -4 10 3 6 8 10 11 10 2 0 4 -4 4 -10z m-742 -79 c18 -29 47 -58 70
-71 31 -18 39 -26 32 -39 -5 -9 -11 -24 -14 -34 -8 -26 -84 -13 -111 19 -25
29 -45 31 -45 4 0 -24 -8 -25 -37 -5 -16 11 -28 13 -45 6 -13 -5 -50 -15 -83
-22 -100 -20 -162 -37 -184 -49 -24 -12 -41 -6 -41 16 0 8 -5 14 -11 14 -6 0
-9 -12 -7 -27 3 -26 0 -28 -32 -29 -19 -1 -39 -3 -45 -5 -5 -2 -20 0 -32 5
-24 8 -21 36 3 36 8 0 14 5 14 12 0 7 7 5 18 -5 23 -21 52 -7 33 17 -20 24 -7
50 18 36 30 -16 39 -12 43 16 2 20 18 33 76 64 63 34 72 37 72 20 0 -33 18
-32 51 5 18 20 42 35 54 35 24 0 49 -22 38 -33 -3 -4 4 -7 16 -7 12 0 33 13
47 29 14 16 35 32 47 34 12 2 23 5 24 6 1 0 15 -21 31 -48z m493 23 c12 -14
11 -16 -5 -13 -11 2 -21 10 -24 17 -5 17 13 15 29 -4z m182 2 c-8 -4 -30 -6
-48 -3 -18 3 -38 0 -44 -6 -8 -8 -11 -7 -11 6 0 14 9 16 59 14 40 -1 54 -5 44
-11z m-1175 -55 c3 -8 -1 -12 -9 -9 -7 2 -15 10 -17 17 -3 8 1 12 9 9 7 -2 15
-10 17 -17z m951 -20 c11 -7 9 -11 -8 -21 -30 -16 -58 -6 -41 15 14 17 29 19
49 6z m489 2 c-10 -2 -28 -2 -40 0 -13 2 -5 4 17 4 22 1 32 -1 23 -4z m-602
-50 c-10 -10 -19 5 -10 18 6 11 8 11 12 0 2 -7 1 -15 -2 -18z m-1136 7 c8 -5
11 -10 5 -10 -5 0 -17 5 -25 10 -8 5 -10 10 -5 10 6 0 17 -5 25 -10z m2125
-10 c4 -6 10 -8 15 -5 11 7 60 -15 60 -27 0 -4 7 -8 16 -8 8 0 31 -11 50 -24
l35 -23 -31 -13 c-16 -7 -30 -16 -30 -21 0 -19 -41 -7 -72 21 -18 17 -40 30
-49 30 -9 0 -19 7 -23 15 -7 20 -45 19 -53 0 -6 -17 22 -55 41 -55 6 0 20 -8
31 -17 20 -15 20 -15 -2 -10 -27 6 -30 -9 -6 -35 9 -10 13 -21 9 -25 -3 -4
-43 -8 -88 -9 -86 -2 -106 -13 -72 -39 11 -8 31 -15 47 -15 15 0 27 -4 27 -10
0 -5 -5 -10 -10 -10 -6 0 -19 -14 -29 -31 l-19 -30 -7 28 c-8 35 -23 53 -52
64 -29 11 -29 20 1 50 13 13 40 52 60 87 20 34 41 62 46 62 6 0 10 7 10 16 0
34 78 61 95 34z m-325 -10 c0 -5 -5 -10 -12 -10 -6 0 -25 -10 -42 -23 -17 -12
-44 -29 -61 -37 -16 -8 -42 -25 -57 -38 -14 -13 -34 -22 -44 -20 -20 3 -17 7
40 56 65 55 176 100 176 72z m165 -10 c7 -12 -34 -30 -52 -23 -8 3 -13 -3 -13
-17 0 -17 4 -21 20 -17 11 3 20 2 20 -2 0 -5 -9 -16 -20 -26 -11 -10 -20 -24
-20 -31 0 -22 -22 -29 -90 -29 -60 0 -65 -2 -68 -22 -3 -19 1 -23 22 -23 36 0
32 -15 -6 -31 -46 -18 -98 -59 -98 -76 0 -7 7 -16 15 -19 9 -4 20 -15 26 -25
8 -15 3 -27 -22 -59 -36 -44 -55 -49 -85 -21 -28 26 -91 54 -103 46 -6 -3 -11
-13 -11 -21 0 -8 -5 -14 -11 -14 -6 0 -9 -10 -7 -22 2 -15 11 -23 32 -25 16
-2 42 -15 58 -28 l28 -24 -22 -12 c-12 -7 -29 -18 -36 -26 -16 -15 -22 -16
-42 -3 -13 8 -13 13 -2 31 20 31 0 47 -32 25 -35 -23 -49 -20 -80 14 -15 17
-31 28 -36 25 -6 -4 -10 -2 -10 3 0 12 260 252 273 252 8 0 -4 -72 -16 -95
-18 -32 -16 -45 4 -45 22 0 42 29 64 93 10 31 13 53 7 64 -7 12 -2 23 23 44
18 16 39 29 46 29 7 0 25 11 39 25 30 29 157 95 182 95 9 0 20 -5 23 -10z
m555 -10 c0 -5 -4 -10 -10 -10 -5 0 -10 5 -10 10 0 6 5 10 10 10 6 0 10 -4 10
-10z m-26 -22 c31 -1 33 -3 23 -20 -15 -23 -18 -23 -53 8 -16 15 -24 23 -17
20 7 -4 28 -7 47 -8z m-945 -115 c-8 -10 -61 -64 -119 -121 -175 -172 -182
-179 -178 -159 5 26 270 295 292 296 16 1 17 -1 5 -16z m785 -32 c34 10 48 3
26 -12 -11 -8 -12 -12 -2 -16 33 -13 5 -23 -66 -23 -109 0 -176 32 -94 45 20
4 44 7 52 9 8 1 24 -1 35 -4 11 -4 33 -3 49 1z m-13324 -57 c0 -14 -3 -14 -15
-4 -8 7 -15 14 -15 16 0 2 7 4 15 4 8 0 15 -7 15 -16z m13540 -4 c0 -5 -10
-10 -22 -10 -19 0 -20 2 -8 10 19 13 30 13 30 0z m-440 -10 c0 -5 -5 -10 -11
-10 -5 0 -7 5 -4 10 3 6 8 10 11 10 2 0 4 -4 4 -10z m456 -5 c-3 -20 -16 -31
-16 -13 0 13 8 28 16 28 1 0 1 -7 0 -15z m-809 -41 c-14 -15 -30 -23 -36 -20
-15 10 -14 26 2 26 8 0 22 9 33 21 10 11 20 16 22 10 2 -6 -8 -22 -21 -37z
m139 28 c16 -13 22 -33 26 -75 3 -32 1 -60 -4 -63 -4 -3 -8 3 -9 13 -1 10 -2
29 -2 42 -2 31 -27 41 -27 11 0 -17 -4 -20 -20 -15 -13 4 -28 -2 -45 -19 -19
-19 -30 -23 -46 -18 -20 8 -18 13 36 75 31 37 59 67 63 67 4 -1 16 -9 28 -18z
m340 -13 c32 -6 64 -14 69 -17 6 -4 16 -7 24 -7 8 0 16 -5 18 -10 2 -6 -9 -11
-24 -10 -21 0 -27 -4 -25 -17 2 -10 0 -18 -4 -18 -15 0 -64 43 -64 57 0 12 -7
14 -35 9 -25 -5 -42 -2 -57 9 -22 15 -22 15 8 15 17 0 57 -5 90 -11z m234 -4
c0 -8 -2 -15 -4 -15 -2 0 -6 7 -10 15 -3 8 -1 15 4 15 6 0 10 -7 10 -15z
m-367 -40 c22 -17 51 -35 79 -48 l28 -13 -33 -12 c-46 -17 -121 -5 -155 24
-23 21 -24 24 -8 24 11 0 16 3 13 7 -4 3 2 17 14 29 17 18 24 20 35 11 8 -7
20 -16 27 -22z m457 19 c0 -14 -3 -14 -15 -4 -8 7 -15 14 -15 16 0 2 7 4 15 4
8 0 15 -7 15 -16z m-13485 -4 c-3 -5 -12 -10 -20 -10 -8 0 -17 5 -20 10 -4 6
5 10 20 10 15 0 24 -4 20 -10z m12671 -166 c-1 -1 -18 -4 -39 -7 l-37 -6 27
35 26 35 12 -28 c7 -15 12 -28 11 -29z m281 40 c-3 -3 -12 -4 -19 -1 -8 3 -5
6 6 6 11 1 17 -2 13 -5z m-177 -14 c22 -7 21 -8 -12 -9 -21 -1 -38 4 -38 9 0
11 14 11 50 0z m-550 -42 c0 -18 -2 -20 -9 -8 -6 8 -7 18 -5 22 9 14 14 9 14
-14z m-11790 -2 c0 -3 -4 -8 -10 -11 -5 -3 -10 -1 -10 4 0 6 5 11 10 11 6 0
10 -2 10 -4z m-204 -36 c-1 -16 -4 -30 -8 -30 -10 0 -10 22 -2 44 9 23 11 20
10 -14z m12631 13 c2 -6 -7 -10 -21 -9 -18 1 -22 4 -14 14 12 14 30 12 35 -5z
m-12680 -15 c-3 -8 -6 -5 -6 6 -1 11 2 17 5 13 3 -3 4 -12 1 -19z m12031 -36
c2 -13 -4 -22 -17 -27 -12 -3 -21 -13 -21 -21 0 -8 -7 -14 -15 -14 -8 0 -15 7
-15 15 0 8 -6 25 -12 36 -11 18 -10 23 11 40 21 17 26 18 45 6 12 -8 22 -24
24 -35z m79 42 c-3 -3 -12 -4 -19 -1 -8 3 -5 6 6 6 11 1 17 -2 13 -5z m416 -1
c14 -14 -14 -29 -45 -25 l-33 5 30 13 c35 15 40 16 48 7z m310 -50 c-7 -3 -13
-13 -13 -24 0 -14 -7 -19 -25 -19 -19 0 -25 -5 -25 -21 0 -22 24 -52 33 -42
10 9 37 -24 37 -45 0 -16 -6 -20 -32 -18 -31 1 -33 -1 -36 -36 -3 -36 -3 -37
-35 -26 -18 6 -36 15 -41 19 -14 13 -56 11 -56 -2 0 -8 -5 -8 -15 1 -11 9 -12
16 -4 26 6 7 8 23 3 36 -6 21 -5 22 11 8 15 -13 19 -12 35 8 10 12 23 22 28
22 13 0 52 63 52 84 0 9 1 16 3 16 1 0 20 7 42 14 22 8 42 12 45 9 3 -3 -1 -8
-7 -10z m-12973 -3 c0 -5 -5 -10 -11 -10 -5 0 -7 5 -4 10 3 6 8 10 11 10 2 0
4 -4 4 -10z m41 -32 c12 -18 18 -25 15 -15 -4 11 -2 16 5 11 6 -3 9 -15 6 -25
-3 -11 1 -23 10 -28 13 -7 12 -10 -6 -23 -11 -8 -18 -18 -13 -23 4 -5 1 -5 -6
0 -10 5 -11 10 -3 18 18 18 13 27 -13 27 -32 0 -44 19 -23 35 19 14 12 26 -9
18 -8 -3 -14 0 -14 6 0 6 6 10 13 9 6 -2 11 3 10 10 -5 21 7 13 28 -20z
m11906 -4 c-16 -13 -33 -22 -38 -18 -5 3 5 16 23 28 42 29 52 22 15 -10z
m1097 27 c3 -5 -1 -14 -8 -20 -12 -10 -13 -8 -9 8 6 23 9 25 17 12z m-766 -13
c7 -7 12 -16 12 -20 0 -15 -15 -8 -28 12 -13 22 -3 27 16 8z m-68 -33 c10 -12
10 -15 -4 -15 -9 0 -16 7 -16 15 0 8 2 15 4 15 2 0 9 -7 16 -15z m-11759 -24
c13 -12 27 -21 32 -21 22 0 67 -43 66 -63 -1 -17 -2 -18 -6 -5 -3 14 -9 16
-22 9 -9 -5 -35 -8 -56 -7 -21 2 -51 0 -67 -5 -15 -4 -28 -4 -28 0 0 12 -71
-1 -77 -15 -5 -14 -33 -8 -33 8 0 6 7 8 15 4 9 -3 15 0 15 9 0 8 -6 15 -13 15
-17 0 -36 -19 -33 -34 2 -6 1 -8 -1 -3 -3 4 -11 7 -19 7 -9 0 -12 -4 -9 -10 3
-6 -1 -7 -10 -4 -13 5 -7 12 24 31 23 13 41 29 41 34 0 6 5 7 10 4 6 -3 10 -1
10 5 0 6 15 25 33 41 27 25 38 30 69 26 20 -3 47 -14 59 -26z m12020 9 c16 0
29 -4 29 -10 0 -16 -83 -11 -105 7 -19 15 -18 15 14 9 18 -3 46 -6 62 -6z
m-413 -28 c2 -7 -3 -12 -12 -12 -9 0 -16 7 -16 16 0 17 22 14 28 -4z m129 -7
c6 -14 9 -25 6 -25 -7 0 -32 33 -33 43 0 16 16 5 27 -18z m-307 -7 c-1 -28
-28 -48 -63 -48 -47 0 -54 13 -21 39 29 23 84 29 84 9z m860 2 c0 -5 -7 -10
-16 -10 -8 0 -12 5 -9 10 3 6 10 10 16 10 5 0 9 -4 9 -10z m-786 -15 c-4 -8
-8 -15 -10 -15 -2 0 -4 7 -4 15 0 8 4 15 10 15 5 0 7 -7 4 -15z m366 -15 c18
-16 21 -23 12 -32 -9 -9 -18 -8 -37 2 -27 14 -33 35 -12 43 6 3 12 6 13 6 1 1
11 -8 24 -19z m420 0 c0 -5 -5 -10 -11 -10 -5 0 -7 5 -4 10 3 6 8 10 11 10 2
0 4 -4 4 -10z m-160 -20 c0 -13 -28 -25 -38 -16 -3 4 0 11 8 16 20 13 30 12
30 0z m633 -5 c-3 -9 -8 -14 -10 -11 -3 3 -2 9 2 15 9 16 15 13 8 -4z m-1083
-5 c0 -5 -9 -10 -20 -10 -11 0 -20 5 -20 10 0 6 9 10 20 10 11 0 20 -4 20 -10z
m-11525 -10 c-3 -5 -12 -10 -18 -10 -7 0 -6 4 3 10 19 12 23 12 15 0z m11329
-7 c4 -5 28 -9 52 -9 63 -2 75 -18 31 -39 -29 -13 -39 -14 -55 -4 -11 7 -28 9
-38 5 -18 -7 -18 -8 -1 -21 10 -7 14 -16 8 -19 -5 -4 -12 -2 -16 4 -3 5 -16
10 -29 10 -31 0 -36 7 -22 35 15 32 55 53 70 38z m701 -23 c8 0 18 8 24 17 5
10 11 16 13 13 2 -3 14 -20 26 -38 13 -19 21 -36 18 -39 -3 -3 -26 2 -51 11
-44 17 -72 46 -57 61 4 4 8 0 10 -9 2 -9 10 -16 17 -16z m-225 10 c0 -5 -5
-10 -11 -10 -5 0 -7 5 -4 10 3 6 8 10 11 10 2 0 4 -4 4 -10z m710 0 c0 -5 -7
-10 -16 -10 -8 0 -12 5 -9 10 3 6 10 10 16 10 5 0 9 -4 9 -10z m-577 -38 c12
-11 14 -19 7 -26 -7 -7 -20 0 -43 23 -31 32 -31 33 -7 26 14 -4 33 -14 43 -23z
m-422 -11 c-12 -16 -21 -32 -21 -35 0 -11 18 -6 32 7 17 17 68 31 68 18 0 -25
-119 -55 -139 -36 -6 7 60 75 72 75 4 0 -1 -13 -12 -29z m1478 7 c0 -13 -3
-17 -6 -10 -4 10 -8 9 -17 -3 -8 -12 -20 -14 -39 -10 -35 9 -35 32 1 38 58 9
62 8 61 -15z m-1244 2 c3 -5 -1 -10 -10 -10 -9 0 -13 5 -10 10 3 6 8 10 10 10
2 0 7 -4 10 -10z m682 -17 c-9 -9 -19 -14 -23 -11 -10 10 6 28 24 28 15 0 15
-1 -1 -17z m-431 -19 c-9 -23 3 -37 19 -24 11 9 24 9 52 -1 21 -6 44 -13 51
-15 7 -2 10 -8 7 -14 -7 -11 -63 -9 -82 3 -7 4 -22 5 -35 2 -16 -4 -31 1 -46
15 -22 21 -22 23 -5 36 25 19 47 18 39 -2z m264 -5 c0 -5 -4 -9 -10 -9 -5 0
-10 7 -10 16 0 8 5 12 10 9 6 -3 10 -10 10 -16z m-593 -16 c5 -14 -55 -45 -63
-32 -6 11 36 50 50 46 6 -2 11 -8 13 -14z m219 -4 c19 -22 19 -22 -3 -10 -13
6 -23 16 -23 21 0 15 5 12 26 -11z m929 1 c10 -11 14 -20 8 -20 -5 0 -18 9
-28 20 -10 11 -14 20 -8 20 5 0 18 -9 28 -20z m-1652 -20 c-3 -10 -11 -25 -19
-31 -8 -6 -14 -17 -14 -23 0 -6 -17 -22 -36 -34 -32 -21 -40 -22 -60 -11 -29
15 -30 25 -5 38 10 6 24 24 31 40 12 29 27 37 82 40 21 1 25 -3 21 -19z m1347
10 c0 -5 -7 -10 -16 -10 -8 0 -12 5 -9 10 3 6 10 10 16 10 5 0 9 -4 9 -10z
m-155 -10 c-3 -5 -13 -10 -21 -10 -8 0 -14 5 -14 10 0 6 9 10 21 10 11 0 17
-4 14 -10z m545 0 c0 -5 -2 -10 -4 -10 -3 0 -8 5 -11 10 -3 6 -1 10 4 10 6 0
11 -4 11 -10z m-1880 -8 c0 -2 -9 -15 -19 -28 l-19 -25 -16 23 c-23 32 -20 36
19 35 19 -1 35 -3 35 -5z m382 -29 l28 -5 -21 -29 c-22 -31 -75 -64 -82 -51
-2 4 -8 25 -11 46 -8 44 5 60 39 50 11 -3 32 -8 47 -11z m768 -3 c0 -5 -2 -10
-4 -10 -3 0 -8 5 -11 10 -3 6 -1 10 4 10 6 0 11 -4 11 -10z m-920 -12 c0 -7
12 -24 27 -40 37 -38 22 -46 -27 -14 -44 29 -45 31 -27 51 15 18 27 19 27 3z
m1927 6 c-3 -3 -12 -4 -19 -1 -8 3 -5 6 6 6 11 1 17 -2 13 -5z m440 0 c-3 -3
-12 -4 -19 -1 -8 3 -5 6 6 6 11 1 17 -2 13 -5z m-292 -14 c-3 -5 -13 -10 -21
-10 -8 0 -12 5 -9 10 3 6 13 10 21 10 8 0 12 -4 9 -10z m90 -40 c-20 -22 -83
-46 -93 -35 -10 9 27 35 60 42 15 3 30 13 34 22 5 12 8 13 11 3 3 -7 -3 -22
-12 -32z m-2211 4 c6 -10 15 -22 20 -25 10 -8 -53 -41 -64 -34 -11 7 12 86 24
82 5 -2 14 -12 20 -23z m2586 16 c0 -5 -4 -10 -10 -10 -5 0 -10 5 -10 10 0 6
5 10 10 10 6 0 10 -4 10 -10z m-905 -20 c-3 -5 -11 -10 -16 -10 -6 0 -7 5 -4
10 3 6 11 10 16 10 6 0 7 -4 4 -10z m365 -5 c0 -8 -9 -15 -20 -15 -22 0 -27
15 -7 23 21 9 27 7 27 -8z m-821 -24 l23 -18 -34 -21 c-19 -12 -42 -30 -52
-41 -17 -19 -21 -19 -46 -6 -27 14 -30 13 -48 -12 -27 -36 -34 -15 -12 34 14
32 26 43 57 53 21 7 42 16 48 21 14 14 38 10 64 -10z m-1319 -1 c0 -5 -4 -10
-10 -10 -5 0 -10 5 -10 10 0 6 5 10 10 10 6 0 10 -4 10 -10z m-11240 -25 c0
-8 -7 -15 -15 -15 -8 0 -15 7 -15 15 0 8 7 15 15 15 8 0 15 -7 15 -15z m12898
-7 c2 -10 -13 -24 -43 -38 -25 -12 -48 -20 -51 -18 -2 3 1 19 7 36 7 22 18 32
37 35 37 5 47 3 50 -15z m269 -24 c-7 -7 -57 15 -57 25 0 18 24 17 43 -2 10
-10 17 -21 14 -23z m-108 27 c7 -5 12 -14 9 -21 -2 -7 -10 -4 -22 9 -19 21
-12 28 13 12z m251 -1 c0 -5 -4 -10 -10 -10 -5 0 -10 5 -10 10 0 6 5 10 10 10
6 0 10 -4 10 -10z m484 1 c3 -4 -3 -16 -13 -25 -18 -16 -19 -15 -23 9 -4 19
-1 25 13 25 10 0 20 -4 23 -9z m-354 -16 c54 -28 32 -54 -28 -33 -48 16 -47
15 -32 33 16 19 24 19 60 0z m-765 -5 c-3 -5 -10 -10 -16 -10 -5 0 -9 5 -9 10
0 6 7 10 16 10 8 0 12 -4 9 -10z m-455 -25 c-13 -14 -27 -25 -32 -25 -5 0 -1
11 8 25 9 14 23 25 32 25 12 0 10 -6 -8 -25z m130 10 c0 -8 -5 -24 -12 -34
-15 -24 -4 -49 27 -61 31 -12 31 -19 -1 -58 -31 -37 -44 -40 -44 -13 0 33 -11
51 -32 51 -17 0 -20 -5 -16 -40 2 -22 2 -40 0 -40 -2 0 -19 15 -39 34 l-36 33
37 48 c33 44 90 93 109 95 4 0 7 -7 7 -15z m624 -1 c4 -10 1 -14 -6 -12 -15 5
-23 28 -10 28 5 0 13 -7 16 -16z m-234 -8 c0 -15 -32 -39 -69 -51 -37 -11 -21
15 25 42 47 27 44 26 44 9z m-153 -24 c-21 -22 -23 -54 -3 -46 7 3 21 -7 30
-21 10 -16 23 -24 32 -21 7 3 18 -3 24 -14 6 -11 17 -20 25 -20 8 0 19 -9 25
-21 9 -16 18 -19 36 -15 21 6 24 3 24 -24 0 -16 4 -30 9 -30 5 0 9 -20 8 -44
-2 -50 -16 -52 -18 -3 -1 31 -1 31 -9 7 -4 -14 -8 -21 -9 -16 -1 5 -8 3 -17
-5 -9 -7 -18 -9 -22 -3 -9 12 -35 12 -44 -1 -4 -5 -17 -10 -29 -10 -12 0 -27
-9 -33 -20 -6 -11 -12 -22 -13 -24 -2 -2 -9 1 -17 8 -11 9 -15 8 -20 -5 -4 -9
-12 -14 -22 -10 -8 3 -12 2 -9 -3 3 -5 1 -12 -4 -15 -5 -4 -12 4 -14 16 -4 19
-4 19 -6 -5 -1 -25 -4 -27 -23 -21 -31 9 -53 44 -28 44 6 0 10 -5 10 -11 0 -5
4 -8 9 -5 25 16 -28 116 -61 116 -22 0 -34 -25 -21 -43 5 -6 8 -18 7 -24 -1
-7 -2 -17 -3 -23 0 -5 -6 -10 -12 -10 -6 0 -9 7 -6 14 4 9 1 13 -6 10 -8 -3
-14 7 -15 28 -2 18 -7 34 -12 36 -5 2 3 18 18 35 48 56 225 227 230 222 3 -3
-2 -13 -11 -23z m1078 18 c3 -5 1 -10 -4 -10 -6 0 -11 -9 -11 -19 0 -15 -12
-22 -50 -31 -27 -7 -50 -16 -50 -21 0 -5 -4 -9 -9 -9 -5 0 -4 11 2 25 7 14 18
25 25 25 6 0 12 4 12 10 0 5 11 12 25 16 14 3 25 10 25 15 0 12 27 11 35 -1z
m55 -20 c0 -5 -6 -10 -14 -10 -8 0 -18 5 -21 10 -3 6 3 10 14 10 12 0 21 -4
21 -10z m-342 -27 c37 -9 30 -16 -55 -64 -35 -20 -73 -25 -73 -10 0 7 19 35
55 78 5 7 19 10 30 7 11 -3 30 -8 43 -11z m-1208 -5 c0 -11 -77 -117 -95 -130
-28 -20 -11 20 32 77 47 63 63 76 63 53z m587 -10 c-3 -8 -6 -5 -6 6 -1 11 2
17 5 13 3 -3 4 -12 1 -19z m187 14 c6 -10 -56 -42 -79 -42 -9 0 -15 -9 -15
-22 0 -13 -4 -30 -10 -38 -8 -13 -10 -13 -14 0 -3 8 -7 33 -8 55 -3 38 -2 40
32 46 54 10 88 10 94 1z m44 -61 c-37 -32 -73 -46 -82 -32 -6 9 78 60 102 60
7 1 -2 -12 -20 -28z m824 17 c-7 -7 -30 -13 -51 -14 -33 -2 -38 0 -28 12 7 7
30 13 52 14 30 0 36 -3 27 -12z m-2682 -28 c-6 -11 -18 -20 -28 -20 -13 0 -12
4 8 20 31 25 33 25 20 0z m1930 4 c0 -8 -4 -12 -10 -9 -5 3 -10 10 -10 16 0 5
5 9 10 9 6 0 10 -7 10 -16z m-282 -6 c-6 -18 -28 -21 -28 -4 0 9 7 16 16 16 9
0 14 -5 12 -12z m1327 2 c3 -5 1 -10 -4 -10 -6 0 -11 5 -11 10 0 6 2 10 4 10
3 0 8 -4 11 -10z m-1910 -59 c-10 -16 -25 -3 -25 22 0 20 1 20 16 5 9 -9 13
-21 9 -27z m947 -18 c-11 -16 -33 -39 -48 -53 -34 -30 -17 -3 30 48 37 39 44
41 18 5z m88 12 c-7 -8 -17 -15 -22 -15 -6 0 -5 7 2 15 7 8 17 15 22 15 6 0 5
-7 -2 -15z m107 -8 c-12 -26 -57 -53 -57 -34 0 12 48 57 61 57 4 0 2 -10 -4
-23z m463 13 c0 -5 -2 -10 -4 -10 -3 0 -8 5 -11 10 -3 6 -1 10 4 10 6 0 11 -4
11 -10z m-253 -6 c-3 -3 -12 -4 -19 -1 -8 3 -5 6 6 6 11 1 17 -2 13 -5z m-567
-11 c0 -5 -22 -6 -49 -5 -43 3 -51 1 -61 -18 -8 -15 -8 -20 -1 -16 7 4 11 -1
11 -13 0 -12 5 -21 10 -21 6 0 10 -4 10 -9 0 -5 -9 -7 -21 -4 -11 3 -18 11
-15 19 3 7 1 14 -4 16 -5 2 -12 15 -15 31 l-7 27 71 0 c39 0 71 -3 71 -7z
m-831 -28 c13 -14 18 -25 11 -25 -7 0 -18 -7 -24 -16 -11 -14 -14 -14 -36 4
-24 20 -25 20 -6 41 24 26 26 26 55 -4z m121 -11 c0 -14 -3 -14 -15 -4 -8 7
-15 14 -15 16 0 2 7 4 15 4 8 0 15 -7 15 -16z m950 -18 c0 -2 -7 -9 -15 -16
-13 -11 -14 -10 -9 4 5 14 24 23 24 12z m-1150 -86 c20 13 60 13 60 0 0 -5 -4
-10 -10 -10 -5 0 -10 -11 -10 -24 0 -14 5 -28 10 -31 16 -10 12 -25 -5 -19
-11 5 -13 2 -9 -10 5 -13 0 -16 -25 -16 -17 0 -31 -5 -31 -11 0 -5 -4 -8 -8
-5 -7 4 -8 -6 -3 -46 1 -3 10 -4 21 -1 11 3 20 0 20 -5 0 -12 -40 -38 -52 -34
-5 1 -8 -2 -8 -7 0 -5 -9 -11 -20 -14 -16 -4 -20 0 -20 20 0 13 -4 22 -10 18
-5 -3 -7 -12 -3 -20 3 -10 -1 -15 -12 -15 -9 0 -14 -4 -10 -9 3 -5 -3 -12 -12
-14 -10 -2 -3 -2 15 0 19 2 32 -1 32 -7 0 -6 -4 -9 -8 -6 -5 3 -18 -4 -30 -14
-12 -11 -28 -20 -37 -20 -12 0 -15 -6 -10 -20 6 -18 2 -20 -42 -18 -43 1 -44
2 -10 5 20 2 37 8 37 14 0 12 -81 11 -100 -1 -8 -5 -10 -10 -5 -10 6 0 11 -9
12 -20 1 -14 -4 -20 -18 -20 -10 0 -19 -4 -19 -10 0 -5 -7 -10 -15 -10 -9 0
-12 -6 -8 -17 6 -17 5 -17 -13 -2 -39 33 -47 34 -40 5 5 -19 3 -26 -9 -26 -9
0 -15 -9 -15 -24 0 -32 -38 -43 -49 -14 -8 21 -8 21 -24 -3 -9 -13 -17 -19
-17 -15 0 19 32 44 48 39 14 -5 15 -3 5 8 -16 16 -17 29 -3 29 6 0 15 -10 20
-22 l9 -23 0 22 c1 16 -6 24 -23 29 -18 4 -22 10 -18 27 3 12 7 16 10 9 2 -7
13 -17 24 -23 19 -10 20 -8 16 33 -3 39 -1 43 21 46 24 4 40 14 69 45 9 9 22
17 28 17 7 0 15 6 18 13 4 8 10 5 22 -10 17 -24 39 -29 63 -14 12 8 12 12 2
25 -7 8 -10 19 -7 25 3 5 -3 7 -14 4 -25 -7 -28 22 -2 31 33 13 62 31 62 39 0
4 18 25 40 47 22 22 40 43 40 48 0 4 5 20 12 34 11 23 14 24 33 12 13 -9 25
-10 35 -4z m-119 -7 c-16 -31 -120 -139 -121 -126 0 7 9 18 19 25 11 6 37 36
58 65 36 50 64 73 44 36z m369 -41 c-5 -2 -8 -8 -4 -13 3 -5 -3 -9 -13 -9 -15
0 -16 -2 -3 -10 13 -8 13 -11 1 -19 -7 -5 -11 -13 -7 -19 3 -6 2 -13 -4 -17
-6 -4 -10 15 -11 52 -1 59 -3 58 -14 -9 -6 -37 -28 -51 -39 -25 -3 6 -3 -1 1
-18 4 -24 3 -28 -7 -18 -10 9 -17 10 -27 2 -18 -16 -16 -1 3 18 8 9 13 21 10
29 -3 7 2 18 10 24 8 7 14 17 14 22 0 6 10 23 21 40 l21 29 30 -28 c16 -15 24
-29 18 -31z m-130 28 c0 -5 -5 -10 -11 -10 -5 0 -7 5 -4 10 3 6 8 10 11 10 2
0 4 -4 4 -10z m197 -105 c-4 -8 -11 -15 -17 -15 -6 0 -6 7 2 20 14 22 24 19
15 -5z m31 8 c-1 -10 1 -24 5 -30 9 -14 -2 -17 -20 -5 -7 4 -10 17 -6 30 6 26
26 30 21 5z m62 -43 c18 -12 2 -12 -25 0 -13 6 -15 9 -5 9 8 0 22 -4 30 -9z
m-320 -40 c0 -5 -5 -10 -11 -10 -5 0 -7 5 -4 10 3 6 8 10 11 10 2 0 4 -4 4
-10z m-12410 -81 c0 -5 -4 -9 -10 -9 -5 0 -10 7 -10 16 0 8 5 12 10 9 6 -3 10
-10 10 -16z m60 -19 c0 -5 -4 -10 -10 -10 -5 0 -10 5 -10 10 0 6 5 10 10 10 6
0 10 -4 10 -10z m11744 -55 c-7 -16 -44 -21 -44 -6 0 8 16 16 42 20 4 0 5 -6
2 -14z m426 5 c0 -5 -10 -10 -22 -9 -22 0 -22 1 -3 9 11 5 21 9 23 9 1 1 2 -3
2 -9z m-12010 -30 c0 -5 -4 -10 -10 -10 -5 0 -10 5 -10 10 0 6 5 10 10 10 6 0
10 -4 10 -10z m437 -212 c-2 -13 -4 -3 -4 22 0 25 2 35 4 23 2 -13 2 -33 0
-45z m10986 7 c-10 -7 -20 -11 -23 -9 -2 3 2 9 9 13 9 6 10 11 2 15 -6 4 -15
5 -19 2 -4 -2 -9 4 -9 15 -2 19 -1 19 28 -2 28 -20 29 -22 12 -34z m-10863 5
c0 -5 -10 -10 -22 -10 -19 0 -20 2 -8 10 19 13 30 13 30 0z m-104 -109 c-26
-5 -27 -7 -13 -20 22 -18 14 -29 -17 -24 -25 5 -41 27 -30 44 3 5 24 8 47 8
37 -1 39 -2 13 -8z m10664 -31 c0 -5 -4 -10 -10 -10 -5 0 -10 5 -10 10 0 6 5
10 10 10 6 0 10 -4 10 -10z m8675 -50 c-3 -5 -14 -10 -23 -10 -15 0 -15 2 -2
10 20 13 33 13 25 0z m-8838 -6 c-3 -3 -12 -4 -19 -1 -8 3 -5 6 6 6 11 1 17
-2 13 -5z m-9977 -58 c0 -3 -4 -8 -10 -11 -5 -3 -10 -1 -10 4 0 6 5 11 10 11
6 0 10 -2 10 -4z"/>
<path d="M30340 25570 c0 -5 5 -10 10 -10 6 0 10 5 10 10 0 6 -4 10 -10 10 -5
0 -10 -4 -10 -10z"/>
<path d="M18698 25433 c12 -2 30 -2 40 0 9 3 -1 5 -23 4 -22 0 -30 -2 -17 -4z"/>
<path d="M30305 24550 c-3 -5 -1 -10 4 -10 6 0 11 5 11 10 0 6 -2 10 -4 10 -3
0 -8 -4 -11 -10z"/>
<path d="M29831 24474 c0 -11 3 -14 6 -6 3 7 2 16 -1 19 -3 4 -6 -2 -5 -13z"/>
<path d="M14321 24326 c2 -2 26 -6 53 -9 30 -3 43 -1 35 4 -13 8 -97 13 -88 5z"/>
<path d="M36457 23763 c-19 -3 -27 -10 -25 -20 5 -26 21 -24 41 2 10 14 17 24
15 24 -2 -1 -16 -4 -31 -6z"/>
<path d="M36360 23751 c0 -6 5 -13 10 -16 6 -3 10 1 10 9 0 9 -4 16 -10 16 -5
0 -10 -4 -10 -9z"/>
<path d="M14800 23344 c0 -14 3 -14 15 -4 8 7 15 14 15 16 0 2 -7 4 -15 4 -8
0 -15 -7 -15 -16z"/>
<path d="M28822 23088 c-19 -19 -14 -28 18 -28 17 0 30 4 30 8 0 9 -21 32 -30
32 -3 0 -11 -5 -18 -12z"/>
<path d="M28791 23024 c-21 -24 -5 -28 18 -5 12 12 16 21 9 21 -7 -1 -19 -8
-27 -16z"/>
<path d="M28480 23010 c0 -5 9 -10 20 -10 11 0 20 5 20 10 0 6 -9 10 -20 10
-11 0 -20 -4 -20 -10z"/>
<path d="M28123 22943 c9 -2 23 -2 30 0 6 3 -1 5 -18 5 -16 0 -22 -2 -12 -5z"/>
<path d="M18740 22810 c0 -5 -16 -10 -35 -10 -39 0 -42 -5 -18 -32 15 -17 14
-18 -18 -18 -24 0 -30 -3 -20 -9 11 -7 10 -10 -5 -14 -10 -2 36 -5 104 -6
l122 -1 0 40 c0 39 -1 40 -35 40 -19 0 -35 5 -35 10 0 6 -13 10 -30 10 -16 0
-30 -4 -30 -10z"/>
<path d="M18610 22775 c-10 -13 -9 -15 9 -15 12 0 21 6 21 15 0 8 -4 15 -9 15
-5 0 -14 -7 -21 -15z"/>
<path d="M18880 22570 c0 -6 7 -10 15 -10 8 0 15 2 15 4 0 2 -7 6 -15 10 -8 3
-15 1 -15 -4z"/>
<path d="M19268 22483 c6 -2 18 -2 25 0 6 3 1 5 -13 5 -14 0 -19 -2 -12 -5z"/>
<path d="M20108 22448 c5 -5 16 -8 23 -6 8 3 3 7 -10 11 -17 4 -21 3 -13 -5z"/>
<path d="M22500 22275 c0 -8 2 -15 4 -15 2 0 6 7 10 15 3 8 1 15 -4 15 -6 0
-10 -7 -10 -15z"/>
<path d="M8063 25363 c9 -2 23 -2 30 0 6 3 -1 5 -18 5 -16 0 -22 -2 -12 -5z"/>
<path d="M6560 25450 c0 -5 5 -10 10 -10 6 0 10 5 10 10 0 6 -4 10 -10 10 -5
0 -10 -4 -10 -10z"/>
<path d="M23465 19190 c3 -5 10 -10 16 -10 5 0 9 5 9 10 0 6 -7 10 -16 10 -8
0 -12 -4 -9 -10z"/>
<path d="M23548 18713 c7 -3 16 -2 19 1 4 3 -2 6 -13 5 -11 0 -14 -3 -6 -6z"/>
<path d="M23520 18689 c0 -5 5 -7 10 -4 6 3 10 8 10 11 0 2 -4 4 -10 4 -5 0
-10 -5 -10 -11z"/>
<path d="M24061 18657 c-8 -10 -5 -18 12 -33 44 -38 143 -111 167 -124 14 -7
33 -21 42 -31 10 -9 25 -23 36 -31 49 -36 139 -185 128 -214 -3 -8 -13 -14
-23 -14 -21 -1 -53 -23 -53 -37 0 -19 71 -35 128 -28 84 10 119 39 146 118 3
9 14 20 23 23 10 4 41 17 68 29 49 23 183 64 260 81 25 6 40 15 40 24 0 26
-134 16 -219 -16 -39 -15 -77 -34 -84 -41 -7 -7 -17 -13 -22 -13 -5 0 -30 -16
-56 -36 -39 -30 -51 -35 -66 -25 -10 6 -26 11 -37 11 -21 0 -58 51 -90 121
-11 26 -35 60 -52 75 -17 16 -39 36 -48 44 -24 22 -179 96 -250 119 -41 13
-36 14 -50 -2z"/>
<path d="M23360 18600 c0 -23 1 -24 35 -8 34 15 32 28 -5 28 -23 0 -30 -4 -30
-20z"/>
<path d="M23280 18550 c0 -5 -12 -10 -26 -10 -14 0 -23 -4 -20 -9 4 -5 0 -12
-6 -14 -7 -3 -4 -6 7 -6 11 0 30 8 43 18 24 21 28 31 12 31 -5 0 -10 -4 -10
-10z"/>
<path d="M23180 18530 c0 -5 5 -10 11 -10 5 0 7 5 4 10 -3 6 -8 10 -11 10 -2
0 -4 -4 -4 -10z"/>
<path d="M26320 18471 c0 -5 7 -12 16 -15 24 -9 27 -7 10 9 -17 17 -26 19 -26
6z"/>
<path d="M22960 18410 c0 -5 28 -9 63 -8 44 1 55 3 37 9 -37 11 -100 10 -100
-1z"/>
<path d="M22531 18164 c-18 -21 -6 -30 14 -11 8 9 15 18 15 21 0 11 -15 5 -29
-10z"/>
<path d="M27426 17712 c-2 -4 4 -13 15 -20 16 -11 19 -9 19 8 0 19 -24 28 -34
12z"/>
<path d="M21200 17450 c0 -5 5 -10 10 -10 6 0 10 5 10 10 0 6 -4 10 -10 10 -5
0 -10 -4 -10 -10z"/>
<path d="M27875 17350 c28 -12 47 -12 40 0 -3 6 -18 10 -33 9 -24 0 -25 -1 -7
-9z"/>
<path d="M24295 17263 c6 -6 52 -18 104 -28 52 -9 114 -26 137 -37 40 -17 44
-22 44 -53 0 -29 4 -36 25 -41 34 -8 51 0 67 33 13 27 17 28 98 33 47 3 109 2
139 -2 29 -3 63 -3 75 1 38 15 -47 31 -224 42 -115 7 -185 16 -230 30 -69 22
-253 39 -235 22z"/>
<path d="M18755 17152 c40 -5 40 -5 -30 -23 -38 -10 -85 -18 -104 -18 -19 -1
-31 -4 -28 -8 10 -9 -53 -34 -66 -26 -6 3 -7 1 -3 -5 4 -8 -3 -16 -19 -22 -15
-6 -25 -16 -22 -23 5 -14 45 -14 107 2 118 30 139 33 173 22 34 -12 127 -94
127 -112 0 -6 -16 -17 -35 -25 -38 -15 -42 -23 -23 -42 34 -34 158 8 225 77
33 34 58 51 74 51 25 0 100 -42 152 -86 42 -35 57 -31 57 14 0 46 -59 129
-105 148 -26 10 -37 9 -82 -10 -28 -12 -60 -29 -70 -39 -13 -11 -36 -17 -71
-17 -43 0 -56 5 -80 28 -36 35 -47 62 -30 75 9 6 6 7 -9 4 -13 -3 -24 1 -27 9
-3 8 -19 14 -36 14 -16 0 -30 5 -30 10 0 6 -19 9 -42 8 l-43 -1 40 -5z"/>
<path d="M18490 17100 c-13 -8 -12 -10 3 -10 9 0 17 5 17 10 0 12 -1 12 -20 0z"/>
<path d="M22960 16605 c-47 -12 -112 -33 -144 -45 -77 -28 -185 -23 -311 14
-49 15 -119 29 -155 31 l-65 5 45 -21 c25 -11 63 -24 85 -29 22 -5 56 -13 75
-19 19 -5 55 -15 80 -22 25 -6 52 -15 60 -19 19 -9 25 -47 10 -64 -8 -11 -2
-19 26 -35 l37 -22 23 28 c12 15 25 43 29 61 5 30 14 37 68 62 34 15 89 34
122 43 76 19 111 33 120 46 9 15 -9 13 -105 -14z"/>
<path d="M29648 16483 c6 -2 18 -2 25 0 6 3 1 5 -13 5 -14 0 -19 -2 -12 -5z"/>
<path d="M22175 16470 c-19 -8 -19 -9 2 -9 12 -1 25 4 28 9 7 12 -2 12 -30 0z"/>
<path d="M27180 16471 c-8 -5 -42 -17 -75 -26 -71 -22 -159 -60 -197 -87 -17
-12 -41 -18 -66 -17 -21 2 -44 -1 -51 -5 -8 -5 -24 0 -40 12 -58 42 -216 111
-228 98 -3 -2 32 -23 78 -46 135 -65 169 -89 187 -129 24 -50 51 -72 74 -58
13 9 16 20 12 47 -5 34 -4 36 48 67 29 18 82 45 118 61 134 61 180 83 180 87
0 7 -23 5 -40 -4z"/>
<path d="M20290 16439 c0 -5 5 -7 10 -4 6 3 10 8 10 11 0 2 -4 4 -10 4 -5 0
-10 -5 -10 -11z"/>
<path d="M18120 16120 c0 -5 5 -10 10 -10 6 0 10 5 10 10 0 6 -4 10 -10 10 -5
0 -10 -4 -10 -10z"/>
<path d="M17938 16083 c12 -2 32 -2 45 0 12 2 2 4 -23 4 -25 0 -35 -2 -22 -4z"/>
<path d="M21025 16054 c-11 -2 -45 -9 -75 -15 -62 -13 -90 -28 -90 -47 0 -11
14 -13 68 -7 42 4 92 2 131 -6 55 -10 66 -17 106 -61 47 -52 57 -91 30 -112
-21 -16 -6 -33 36 -41 37 -7 39 -5 119 81 11 11 44 27 73 34 49 11 61 10 128
-9 41 -12 89 -29 108 -37 48 -21 50 -9 6 36 -86 88 -161 100 -264 44 -55 -31
-71 -35 -107 -29 -46 7 -57 17 -98 88 -28 49 -58 69 -121 80 -16 3 -39 3 -50
1z"/>
<path d="M17900 15296 c0 -2 7 -7 16 -10 8 -3 12 -2 9 4 -6 10 -25 14 -25 6z"/>
<path d="M18035 15250 c3 -5 10 -10 16 -10 5 0 9 5 9 10 0 6 -7 10 -16 10 -8
0 -12 -4 -9 -10z"/>
<path d="M18400 14970 c0 -5 5 -10 10 -10 6 0 10 5 10 10 0 6 -4 10 -10 10 -5
0 -10 -4 -10 -10z"/>
<path d="M18437 14793 c40 -4 42 -6 46 -41 l4 -37 1 43 2 42 -47 -2 -48 -1 42
-4z"/>
<path d="M18688 14623 c6 -2 18 -2 25 0 6 3 1 5 -13 5 -14 0 -19 -2 -12 -5z"/>
<path d="M18760 13664 c0 -14 3 -15 18 -3 9 7 19 15 21 16 2 2 -5 3 -17 3 -14
0 -22 -6 -22 -16z"/>
<path d="M20830 13640 c0 -5 11 -10 25 -10 14 0 25 5 25 10 0 6 -11 10 -25 10
-14 0 -25 -4 -25 -10z"/>
<path d="M18720 13568 c0 -18 -2 -42 -4 -53 -2 -11 -1 -14 1 -7 3 6 9 12 14
12 5 0 9 18 9 40 0 22 -4 40 -10 40 -5 0 -10 -15 -10 -32z"/>
<path d="M18670 13505 c0 -8 5 -15 10 -15 6 0 10 7 10 15 0 8 -4 15 -10 15 -5
0 -10 -7 -10 -15z"/>
<path d="M18743 13405 c0 -22 2 -30 4 -17 2 12 2 30 0 40 -3 9 -5 -1 -4 -23z"/>
<path d="M30053 13179 c-1 -12 3 -19 10 -16 17 5 21 37 5 37 -8 0 -14 -9 -15
-21z"/>
<path d="M28480 13146 c0 -9 7 -16 16 -16 9 0 14 5 12 12 -6 18 -28 21 -28 4z"/>
<path d="M28530 13130 c0 -14 48 -35 58 -26 8 9 -26 36 -45 36 -7 0 -13 -5
-13 -10z"/>
<path d="M29955 13100 c3 -5 8 -10 11 -10 2 0 4 5 4 10 0 6 -5 10 -11 10 -5 0
-7 -4 -4 -10z"/>
<path d="M28570 13080 c0 -5 5 -10 10 -10 6 0 10 5 10 10 0 6 -4 10 -10 10 -5
0 -10 -4 -10 -10z"/>
<path d="M29848 13003 c7 -3 16 -2 19 1 4 3 -2 6 -13 5 -11 0 -14 -3 -6 -6z"/>
<path d="M29583 15983 c-15 -5 -17 -23 -4 -23 5 0 11 7 15 15 3 8 4 15 3 14
-1 0 -8 -3 -14 -6z"/>
<path d="M29740 15980 c0 -5 5 -10 11 -10 5 0 7 5 4 10 -3 6 -8 10 -11 10 -2
0 -4 -4 -4 -10z"/>
<path d="M29782 15959 c2 -7 10 -15 17 -17 8 -3 12 1 9 9 -2 7 -10 15 -17 17
-8 3 -12 -1 -9 -9z"/>
<path d="M30610 15660 c0 -5 5 -10 10 -10 6 0 10 5 10 10 0 6 -4 10 -10 10 -5
0 -10 -4 -10 -10z"/>
<path d="M30660 13511 c0 -6 5 -13 10 -16 6 -3 10 1 10 9 0 9 -4 16 -10 16 -5
0 -10 -4 -10 -9z"/>
<path d="M30568 13423 c7 -3 16 -2 19 1 4 3 -2 6 -13 5 -11 0 -14 -3 -6 -6z"/>
<path d="M30450 13370 c0 -5 5 -10 11 -10 5 0 7 5 4 10 -3 6 -8 10 -11 10 -2
0 -4 -4 -4 -10z"/>
</g>
</svg>
